<svg xmlns="http://www.w3.org/2000/svg" data-name="Layer 1" viewBox="0 0 32 32"><path fill="#56aaff" d="M28,5H4A3,3,0,0,0,1,8V23a1,1,0,0,0,1.74.67l8.15-9.08,5.6,8.09a1,1,0,0,0,1.43.22l6-4.59,5.38,5.47A1,1,0,0,0,31,23.1V8A3,3,0,0,0,28,5Z"/><path fill="#0478ed" d="M30.71,22.4l-6-6.1a1,1,0,0,0-1.32-.09l-6.68,5.13a1,1,0,0,0-.21,1.36l2.68,3.87A1,1,0,0,0,20,27h8a3,3,0,0,0,3-3v-.9A1,1,0,0,0,30.71,22.4Z"/><path fill="#0478ed" d="M20.82,25.43l-9-13a1,1,0,0,0-1.57-.1l-9,10A1,1,0,0,0,1,23v1a3,3,0,0,0,3,3H20a1,1,0,0,0,.82-1.57Z"/><circle cx="20" cy="12" r="2" fill="#fff"/></svg>