<svg width="439" height="540" viewBox="0 0 439 540" fill="none" xmlns="http://www.w3.org/2000/svg">
<path fill-rule="evenodd" clip-rule="evenodd" d="M235.458 266.757C244.567 278.143 254.682 290.641 261.778 299.38C269.669 275.654 259.13 242.501 247.373 217.716C244.567 233.127 240.648 249.439 235.458 266.757Z" fill="#F2C94C"/>
<path fill-rule="evenodd" clip-rule="evenodd" d="M179.956 178.95C168.252 190.177 157.766 211.149 165.657 243.931C172.754 243.349 182.816 242.554 191.925 241.707C186.735 218.405 182.816 197.592 179.956 178.95Z" fill="#F2994A"/>
<path opacity="0.2" d="M205.165 295.726C139.707 44.38 193.567 23.0374 213.903 14.4579C234.24 46.5514 288.046 130.015 222.536 305.735L205.165 295.726Z" fill="url(#paint0_linear)"/>
<path opacity="0.1" d="M224.442 281.268C158.984 29.975 212.791 8.57943 233.18 0C253.517 32.0934 307.324 115.558 241.813 291.277L224.442 281.268Z" fill="url(#paint1_linear)"/>
<path opacity="0.15" d="M222.536 305.735C288.046 130.015 234.24 46.5514 213.903 14.4579V300.757L222.536 305.735Z" fill="url(#paint2_linear)"/>
<path opacity="0.1" d="M233.392 102.953C233.392 118.258 224.389 125.461 213.268 119.053C202.146 112.645 193.143 95.0092 193.143 79.704C193.143 64.3987 202.146 57.1962 213.268 63.6043C224.389 70.0124 233.392 87.6479 233.392 102.953Z" fill="white"/>
<path opacity="0.1" d="M229.42 362.613C224.813 355.093 222.589 345.56 220.629 337.193C218.352 327.554 216.445 319.346 211.679 317.28C206.224 314.897 203.788 320.934 200.346 329.302C198.333 334.227 195.95 340.053 192.455 345.402C188.694 341.43 184.723 338.146 180.539 335.763C163.009 325.648 148.392 334.386 144.95 355.252C142.567 353.451 140.184 351.81 137.747 350.38C109.626 334.174 86.8535 352.551 86.8535 391.529C86.8535 430.454 109.626 475.152 137.695 491.358C164.969 507.087 187.265 490.193 188.536 453.598C193.673 463.13 200.504 471.127 208.078 475.47C210.037 476.582 211.944 477.429 213.744 477.959C224.654 501.95 240.912 522.604 259.078 533.09C291.912 552.049 318.551 530.654 318.604 485.32C318.604 439.987 291.965 387.822 259.131 368.863C248.274 362.613 238.159 360.707 229.42 362.613Z" fill="url(#paint3_linear)"/>
<path opacity="0.3" d="M282.327 189.224L425.688 272L425.741 346.725L295.037 271.258L282.38 275.389L282.327 189.224Z" fill="url(#paint4_linear)"/>
<path fill-rule="evenodd" clip-rule="evenodd" d="M384.009 285.134V264.85L438.133 296.096V316.38L384.009 285.134Z" fill="#F2C94C"/>
<path opacity="0.1" d="M319.186 228.679L350.591 246.791V253.358L319.186 235.246V228.679Z" fill="white"/>
<path opacity="0.1" d="M319.239 241.813L375.906 274.542V281.109L319.239 248.38V241.813Z" fill="white"/>
<path opacity="0.15" d="M319.239 254.947L392.588 297.314V303.881L319.239 261.514V254.947Z" fill="white"/>
<path fill-rule="evenodd" clip-rule="evenodd" d="M311.454 231.062C311.454 237.205 307.8 240.118 303.299 237.523C298.797 234.928 295.143 227.831 295.143 221.688C295.143 215.545 298.797 212.632 303.299 215.227C307.853 217.822 311.454 224.919 311.454 231.062Z" fill="#F2C94C"/>
<path opacity="0.3" d="M158.667 83.6759L15.3053 0.953278L15.3583 75.6791L146.062 151.093L158.719 169.841L158.667 83.6759Z" fill="url(#paint5_linear)"/>
<path fill-rule="evenodd" clip-rule="evenodd" d="M0 30.0809V9.79749L54.1246 41.0435V61.327L0 30.0809Z" fill="#F2994A"/>
<path opacity="0.15" d="M121.807 80.6043L90.4018 62.4922V69.0591L121.807 87.1713V80.6043Z" fill="white"/>
<path opacity="0.15" d="M121.807 93.7382L61.2741 58.785V65.352L121.807 100.305V93.7382Z" fill="white"/>
<path opacity="0.15" d="M121.807 106.872L48.4578 64.5046V71.0716L121.807 113.439V106.872Z" fill="white"/>
<path fill-rule="evenodd" clip-rule="evenodd" d="M129.539 91.8847C129.539 98.028 133.193 105.125 137.695 107.72C142.196 110.315 145.85 107.402 145.85 101.258C145.85 95.1152 142.196 88.0186 137.695 85.4236C133.193 82.8815 129.539 85.7414 129.539 91.8847Z" fill="#F2994A"/>
<path opacity="0.2" d="M139.601 163.433L53.9656 114.022V158.614L139.601 208.025V163.433Z" fill="url(#paint6_linear)"/>
<path opacity="0.15" d="M75.8909 137.377L105.23 154.324V159.673L75.8909 142.726V137.377Z" fill="white"/>
<path opacity="0.15" d="M75.8909 148.128L130.757 179.797V185.199L75.8909 153.529V148.128Z" fill="white"/>
<path fill-rule="evenodd" clip-rule="evenodd" d="M71.3893 138.966C71.3893 142.62 69.218 144.367 66.517 142.832C63.8161 141.296 61.6448 137.059 61.6448 133.352C61.6448 129.698 63.8161 127.95 66.517 129.486C69.165 131.075 71.3893 135.311 71.3893 138.966Z" fill="#F2994A"/>
<path opacity="0.2" d="M393.912 197.115L308.277 147.704V192.296L393.912 241.76V197.115Z" fill="url(#paint7_linear)"/>
<path opacity="0.15" d="M330.202 171.112L359.542 188.059V193.408L330.202 176.461V171.112Z" fill="white"/>
<path opacity="0.15" d="M330.255 181.863L385.121 213.532V218.934L330.255 187.265V181.863Z" fill="white"/>
<path fill-rule="evenodd" clip-rule="evenodd" d="M325.701 172.701C325.701 176.355 323.529 178.103 320.828 176.567C318.127 175.031 315.956 170.794 315.956 167.087C315.956 163.433 318.127 161.685 320.828 163.221C323.529 164.81 325.701 169.047 325.701 172.701Z" fill="#F2C94C"/>
<defs>
<linearGradient id="paint0_linear" x1="219.68" y1="23.371" x2="93.0672" y2="242.728" gradientUnits="userSpaceOnUse">
<stop stop-color="white"/>
<stop offset="1" stop-color="white" stop-opacity="0"/>
</linearGradient>
<linearGradient id="paint1_linear" x1="238.953" y1="8.91599" x2="112.337" y2="228.268" gradientUnits="userSpaceOnUse">
<stop stop-color="white"/>
<stop offset="1" stop-color="white" stop-opacity="0"/>
</linearGradient>
<linearGradient id="paint2_linear" x1="234.451" y1="85.5674" x2="136.657" y2="262.005" gradientUnits="userSpaceOnUse">
<stop stop-color="white" stop-opacity="0"/>
<stop offset="1" stop-color="white"/>
</linearGradient>
<linearGradient id="paint3_linear" x1="247.593" y1="366.986" x2="180.331" y2="483.518" gradientUnits="userSpaceOnUse">
<stop stop-color="white"/>
<stop offset="1" stop-color="white" stop-opacity="0"/>
</linearGradient>
<linearGradient id="paint4_linear" x1="345.646" y1="191.645" x2="364.134" y2="341.594" gradientUnits="userSpaceOnUse">
<stop stop-color="white"/>
<stop offset="1" stop-color="white" stop-opacity="0"/>
</linearGradient>
<linearGradient id="paint5_linear" x1="116.144" y1="53.7661" x2="54.917" y2="101.705" gradientUnits="userSpaceOnUse">
<stop stop-color="white"/>
<stop offset="1" stop-color="white" stop-opacity="0"/>
</linearGradient>
<linearGradient id="paint6_linear" x1="104.798" y1="144.293" x2="86.3043" y2="176.331" gradientUnits="userSpaceOnUse">
<stop stop-color="white"/>
<stop offset="1" stop-color="white" stop-opacity="0"/>
</linearGradient>
<linearGradient id="paint7_linear" x1="359.109" y1="177.981" x2="340.606" y2="210.038" gradientUnits="userSpaceOnUse">
<stop stop-color="white"/>
<stop offset="1" stop-color="white" stop-opacity="0"/>
</linearGradient>
</defs>
</svg>
