<svg width="227" height="227" viewBox="0 0 227 227" fill="none" xmlns="http://www.w3.org/2000/svg">
<path d="M198.625 35.4688H28.375C22.7309 35.4688 17.3179 37.7109 13.3269 41.7019C9.33588 45.6929 7.09375 51.1059 7.09375 56.75V163.156C7.09747 164.587 7.53345 165.982 8.34447 167.16C9.1555 168.338 10.3037 169.244 11.6384 169.758C12.9731 170.272 14.432 170.37 15.8237 170.04C17.2154 169.71 18.4749 168.967 19.4369 167.909L77.2509 103.498L116.976 160.886C117.525 161.673 118.228 162.34 119.043 162.847C119.857 163.355 120.766 163.691 121.714 163.837C122.662 163.983 123.63 163.935 124.56 163.696C125.489 163.457 126.36 163.032 127.12 162.447L169.682 129.887L207.847 168.689C208.83 169.654 210.072 170.312 211.422 170.583C212.773 170.853 214.172 170.725 215.451 170.214C216.73 169.702 217.832 168.83 218.623 167.702C219.414 166.575 219.86 165.242 219.906 163.866V56.75C219.906 51.1059 217.664 45.6929 213.673 41.7019C209.682 37.7109 204.269 35.4688 198.625 35.4688Z" fill="#56AAFF"/>
<path d="M217.849 158.9L175.286 115.628C174.071 114.399 172.449 113.656 170.725 113.539C169.001 113.421 167.293 113.937 165.923 114.99L118.536 151.381C117.1 152.492 116.145 154.112 115.868 155.907C115.591 157.702 116.013 159.535 117.047 161.028L136.058 188.481C136.71 189.421 137.579 190.189 138.592 190.72C139.605 191.251 140.731 191.529 141.875 191.531H198.625C204.269 191.531 209.682 189.289 213.673 185.298C217.664 181.307 219.906 175.894 219.906 170.25V163.866C219.898 162.005 219.159 160.221 217.849 158.9Z" fill="#0478ED"/>
<path d="M147.692 180.394L83.8484 88.1752C83.2397 87.2893 82.4377 86.5532 81.5029 86.0226C80.5681 85.492 79.525 85.1808 78.4523 85.1125C77.3796 85.0442 76.3054 85.2205 75.3108 85.6282C74.3162 86.0359 73.4273 86.6643 72.7112 87.4659L8.86745 158.403C7.71067 159.715 7.07911 161.407 7.09401 163.156V170.25C7.09401 175.894 9.33613 181.307 13.3271 185.298C17.3181 189.289 22.7311 191.531 28.3753 191.531H141.875C143.169 191.529 144.438 191.173 145.545 190.501C146.651 189.83 147.552 188.869 148.151 187.722C148.75 186.574 149.024 185.285 148.943 183.994C148.863 182.702 148.43 181.457 147.692 180.394Z" fill="#0478ED"/>
<path d="M141.875 99.3125C149.711 99.3125 156.062 92.9605 156.062 85.125C156.062 77.2895 149.711 70.9375 141.875 70.9375C134.039 70.9375 127.688 77.2895 127.688 85.125C127.688 92.9605 134.039 99.3125 141.875 99.3125Z" fill="white"/>
<path d="M187.497 200.131C203.858 200.131 217.121 186.868 217.121 170.507C217.121 154.147 203.858 140.884 187.497 140.884C171.137 140.884 157.874 154.147 157.874 170.507C157.874 186.868 171.137 200.131 187.497 200.131Z" fill="#C2E4F8"/>
<path fill-rule="evenodd" clip-rule="evenodd" d="M187.496 135.949C168.437 135.949 152.934 151.452 152.933 170.512C152.933 189.571 168.437 205.074 187.496 205.074C206.555 205.074 222.059 189.571 222.059 170.512C222.058 151.452 206.555 135.949 187.496 135.949ZM187.496 140.886C203.887 140.886 217.121 154.121 217.121 170.512C217.121 186.902 203.887 200.137 187.496 200.137C171.105 200.137 157.861 186.902 157.861 170.512C157.861 154.121 171.105 140.886 187.496 140.886ZM187.428 150.781C187.104 150.786 186.784 150.855 186.487 150.983C186.189 151.112 185.92 151.298 185.694 151.531C185.468 151.764 185.291 152.039 185.171 152.34C185.052 152.642 184.993 152.964 184.998 153.288L185.027 168.062L170.234 168.091C169.909 168.092 169.588 168.156 169.288 168.281C168.988 168.406 168.716 168.589 168.486 168.819C168.023 169.284 167.764 169.913 167.765 170.569C167.766 171.225 168.028 171.854 168.493 172.317C168.958 172.78 169.588 173.039 170.244 173.038L185.027 173.009L185.056 187.793C185.052 188.12 185.112 188.445 185.234 188.748C185.356 189.052 185.537 189.328 185.767 189.561C185.996 189.794 186.27 189.979 186.572 190.106C186.874 190.232 187.198 190.297 187.525 190.297C187.852 190.297 188.176 190.232 188.478 190.106C188.78 189.979 189.053 189.794 189.283 189.561C189.513 189.328 189.694 189.052 189.816 188.748C189.938 188.445 189.998 188.12 189.994 187.793L189.974 173L204.748 172.971C205.075 172.975 205.4 172.914 205.703 172.791C206.007 172.668 206.283 172.487 206.515 172.257C206.748 172.026 206.932 171.752 207.058 171.45C207.183 171.148 207.248 170.824 207.247 170.497C207.246 170.17 207.181 169.846 207.054 169.545C206.927 169.243 206.742 168.97 206.508 168.74C206.275 168.511 205.998 168.331 205.694 168.209C205.391 168.088 205.066 168.028 204.739 168.033L189.965 168.062L189.945 153.288C189.949 152.957 189.887 152.629 189.761 152.323C189.636 152.017 189.45 151.739 189.216 151.506C188.981 151.273 188.702 151.09 188.395 150.967C188.088 150.844 187.759 150.784 187.428 150.79V150.781Z" fill="#0478ED"/>
</svg>
