<svg width="38" height="38" viewBox="0 0 38 38" fill="none" xmlns="http://www.w3.org/2000/svg">
<path d="M18.9999 2.6207C14.6574 2.62558 10.494 4.35282 7.42339 7.42348C4.35273 10.4941 2.62549 14.6574 2.62061 19C2.62799 23.3418 4.35603 27.5037 7.42615 30.5738C10.4963 33.6439 14.6581 35.3719 18.9999 35.3793C23.344 35.3793 27.5101 33.6536 30.5818 30.5819C33.6536 27.5102 35.3792 23.3441 35.3792 19C35.3792 14.6559 33.6536 10.4898 30.5818 7.41809C27.5101 4.34637 23.344 2.6207 18.9999 2.6207ZM28.9626 28.4513C28.0426 26.596 26.6225 25.0347 24.8624 23.9435C23.1023 22.8523 21.0723 22.2747 19.0014 22.2759C16.9306 22.277 14.9012 22.8568 13.1423 23.9499C11.3834 25.0429 9.96497 26.6058 9.04701 28.4621C6.59762 25.9221 5.23275 22.5286 5.2413 19C5.2413 15.351 6.69086 11.8514 9.2711 9.27119C11.8513 6.69095 15.3509 5.24139 18.9999 5.24139C22.6489 5.24139 26.1485 6.69095 28.7287 9.27119C31.309 11.8514 32.7585 15.351 32.7585 19C32.7667 22.5235 31.4056 25.9123 28.9626 28.4513ZM18.9999 9.17242C17.8337 9.17242 16.6937 9.51825 15.724 10.1662C14.7543 10.8141 13.9985 11.735 13.5522 12.8125C13.1059 13.8899 12.9891 15.0755 13.2167 16.2193C13.4442 17.3632 14.0058 18.4138 14.8304 19.2385C15.6551 20.0631 16.7057 20.6247 17.8496 20.8522C18.9934 21.0797 20.179 20.963 21.2564 20.5167C22.3339 20.0704 23.2548 19.3146 23.9027 18.3449C24.5506 17.3752 24.8965 16.2352 24.8965 15.069C24.8965 14.2946 24.7439 13.5279 24.4476 12.8125C24.1513 12.0971 23.717 11.447 23.1694 10.8995C22.6219 10.3519 21.9718 9.9176 21.2564 9.62127C20.541 9.32494 19.7743 9.17242 18.9999 9.17242Z" fill="#FFF9F9"/>
</svg>
