<svg width="47" height="47" viewBox="0 0 47 47" fill="none" xmlns="http://www.w3.org/2000/svg">
<path d="M40.1179 6.88214C35.8655 2.62976 29.9905 0 23.5 0C17.0095 0 11.1345 2.62976 6.88214 6.88214C2.62976 11.1345 0 17.0095 0 23.5C0 29.9905 2.62976 35.8655 6.88214 40.1179C11.1345 44.3702 17.0095 47 23.5 47C29.9905 47 35.8655 44.3702 40.1179 40.1179C44.3702 35.8655 47 29.9905 47 23.5C47 17.0095 44.3702 11.1345 40.1179 6.88214ZM38.1036 38.1036C34.3548 41.8524 29.2071 44.1464 23.5 44.1464C17.7929 44.1464 12.6452 41.8524 8.89643 38.1036C5.20357 34.3548 2.85357 29.2071 2.85357 23.5C2.85357 17.7929 5.14762 12.6452 8.89643 8.89643C12.6452 5.14762 17.7929 2.85357 23.5 2.85357C29.2071 2.85357 34.3548 5.14762 38.1036 8.89643C41.8524 12.6452 44.1464 17.7929 44.1464 23.5C44.1464 29.2071 41.7964 34.3548 38.1036 38.1036Z" fill="#FCC400"/>
<path d="M35.3059 22.0452H24.9547V11.6941C24.9547 10.9107 24.3393 10.2393 23.5 10.2393C22.7166 10.2393 22.0452 10.8548 22.0452 11.6941V22.1012H11.694C10.9107 22.1012 10.2393 22.7167 10.2393 23.556C10.2393 24.3393 10.8547 25.0107 11.694 25.0107H22.1012V35.4179C22.1012 36.2012 22.7166 36.8726 23.5559 36.8726C24.3393 36.8726 25.0107 36.2571 25.0107 35.4179V24.9548H35.4178C36.2012 24.9548 36.8726 24.3393 36.8726 23.5C36.7607 22.7167 36.1452 22.0452 35.3059 22.0452Z" fill="#FCC400"/>
</svg>
