<svg width="304" height="314" viewBox="0 0 304 314" fill="none" xmlns="http://www.w3.org/2000/svg">
<g clip-path="url(#clip0)">
<path d="M221.415 58.3431C221.378 70.5329 220.592 82.7075 219.063 94.7911C219.01 95.2154 218.951 95.6398 218.897 96.0642H110.198C109.877 95.6449 109.561 95.2206 109.254 94.7911C108.232 93.3698 107.273 91.9076 106.392 90.3942C102.156 83.1036 100.189 74.5501 102.083 68.6297L102.117 68.5377C102.526 67.2413 103.174 66.0424 104.025 65.0099C108.387 59.7951 117.267 60.608 125.344 64.7492C118.075 56.4872 112.267 46.0421 111.781 36.691C111.304 27.5701 115.811 21.0259 120.709 15.4582C120.87 15.2742 121.03 15.0952 121.191 14.9163C121.269 14.8242 121.352 14.7373 121.429 14.6453C125.251 10.4018 129.711 6.21456 136.2 6.67984C143.317 7.1911 151.238 13.403 156.808 20.6629C162.377 27.9178 166.096 36.1747 169.864 44.2322C173.637 52.2846 177.717 60.5415 183.739 67.4078C175.575 56.6866 168.973 44.4725 166.495 32.5703C164.017 20.668 166.082 9.2106 173.277 3.55601C175.461 1.89186 177.994 0.801421 180.662 0.375947C180.974 0.319708 181.29 0.273695 181.611 0.232793C188.295 -0.605655 196.294 1.77681 203.119 7.54387C210.636 13.8938 215.874 23.3419 218.503 32.3249C221.132 41.3077 221.453 49.9686 221.415 58.3431Z" fill="#E5E5E5"/>
<path d="M150.498 96.0633H148.42C147.757 95.6339 147.092 95.2095 146.423 94.7903C146.01 94.5193 145.591 94.2586 145.172 93.9927C138.254 89.6112 131.294 85.4103 124.292 81.3901C117.296 77.3664 110.267 73.5302 103.203 69.8815C103.016 69.7972 102.862 69.6467 102.77 69.4562C102.677 69.2656 102.651 69.0471 102.696 68.8385C102.704 68.8112 102.715 68.7853 102.731 68.7618C102.828 68.5675 103.047 68.4857 103.368 68.6493C104.235 69.0993 105.106 69.5492 105.973 70.0093C113.056 73.7211 120.11 77.6203 127.135 81.707C134.155 85.792 141.136 90.0594 148.079 94.5091C148.225 94.6011 148.371 94.6983 148.517 94.7903C149.179 95.2147 149.836 95.639 150.498 96.0633Z" fill="#053F64"/>
<path d="M177.298 96.0633H176.013C175.721 95.639 175.434 95.2146 175.141 94.7903C168.277 84.8002 161.415 74.8101 154.553 64.82C143.317 48.4646 132.085 32.1093 120.855 15.7539C120.789 15.6659 120.739 15.5652 120.709 15.4574C120.612 15.0944 120.865 14.8797 121.191 14.9155C121.329 14.9353 121.461 14.9856 121.578 15.0632C121.696 15.1408 121.796 15.2438 121.873 15.3654C128.172 24.5375 134.47 33.7061 140.767 42.8714C151.944 59.1449 163.12 75.4168 174.294 91.6869C175.005 92.7197 175.716 93.7575 176.427 94.7903C176.719 95.2146 177.011 95.639 177.298 96.0633Z" fill="#053F64"/>
<path d="M205.89 88.057C205.836 90.3321 205.705 92.5714 205.529 94.7903C205.495 95.2147 205.461 95.639 205.427 96.0634H204.078C204.117 95.639 204.156 95.2147 204.19 94.7903C204.458 91.5847 204.643 88.3433 204.653 85.0149C204.64 75.7875 203.734 66.5852 201.951 57.5498C200.055 47.821 197.356 38.284 193.884 29.0468C190.24 19.3044 185.86 9.88409 180.784 0.876154C180.688 0.72941 180.645 0.551972 180.662 0.375117C180.716 -0.0287818 181.227 -0.151485 181.611 0.231964C181.687 0.307194 181.753 0.393243 181.806 0.487596C182.434 1.60726 183.051 2.73034 183.656 3.85683C188.547 12.916 192.742 22.3703 196.202 32.1297C199.497 41.3983 202.017 50.9507 203.733 60.6787C205.34 69.7036 206.062 78.8775 205.89 88.057Z" fill="#053F64"/>
<path d="M299.75 94.7903H4.24501C3.11946 94.7914 2.0403 95.2614 1.24442 96.0973C0.448547 96.9331 0.000988688 98.0665 0 99.2485V309.542C0.000987401 310.724 0.448547 311.857 1.24442 312.693C2.0403 313.529 3.11946 313.999 4.24501 314H299.75C300.364 314 300.97 313.86 301.528 313.59C302.085 313.32 302.58 312.926 302.978 312.436C303.012 312.397 303.042 312.356 303.07 312.313C303.324 311.987 303.529 311.624 303.679 311.234C303.892 310.698 304.002 310.123 304 309.542V99.2485C303.999 98.0657 303.55 96.9317 302.754 96.0957C301.957 95.2598 300.876 94.7902 299.75 94.7903ZM302.788 309.542C302.788 310.164 302.614 310.772 302.286 311.29C301.995 311.746 301.6 312.119 301.138 312.374C300.709 312.607 300.233 312.728 299.75 312.727H4.24501C3.44093 312.726 2.67004 312.39 2.10147 311.793C1.53289 311.196 1.21304 310.386 1.21206 309.542V99.2485C1.21303 98.4041 1.53289 97.5945 2.10147 96.9974C2.67005 96.4003 3.44092 96.0644 4.24501 96.0633H299.75C300.555 96.0632 301.327 96.3986 301.896 96.9958C302.466 97.593 302.787 98.4033 302.788 99.2485V309.542Z" fill="white"/>
<path d="M303.391 112.659H0.60495V113.933H303.391V112.659Z" fill="white"/>
<path d="M10.9203 108.172C12.931 108.172 14.561 106.461 14.561 104.349C14.561 102.237 12.931 100.525 10.9203 100.525C8.90961 100.525 7.2796 102.237 7.2796 104.349C7.2796 106.461 8.90961 108.172 10.9203 108.172Z" fill="white"/>
<path d="M21.3874 108.172C23.3981 108.172 25.0281 106.461 25.0281 104.349C25.0281 102.237 23.3981 100.525 21.3874 100.525C19.3767 100.525 17.7467 102.237 17.7467 104.349C17.7467 106.461 19.3767 108.172 21.3874 108.172Z" fill="white"/>
<path d="M31.8545 108.172C33.8652 108.172 35.4952 106.461 35.4952 104.349C35.4952 102.237 33.8652 100.525 31.8545 100.525C29.8438 100.525 28.2137 102.237 28.2137 104.349C28.2137 106.461 29.8438 108.172 31.8545 108.172Z" fill="white"/>
<path d="M134.84 221.006C131.199 218.517 129.388 212.732 130.28 207.441C131.172 202.151 134.532 197.594 138.56 195.629C140.519 194.702 142.667 194.3 144.811 194.46C146.955 194.62 149.027 195.337 150.842 196.546C154.535 198.918 159.759 200.217 161.513 204.962C162.861 208.609 161.151 216.015 159.337 219.557C157.769 222.618 154.79 224.019 151.99 224.627C148.893 225.291 145.697 225.248 142.617 224.501C139.537 223.755 136.646 222.323 134.139 220.302L134.84 221.006Z" fill="#2F2E41"/>
<path d="M132.941 249.105L130.03 254.376L129.645 255.072L129.086 256.094H120.503L121.082 255.072L122.582 252.418L126.077 246.222L130.035 247.883L132.941 249.105Z" fill="#FFB8B8"/>
<path d="M119.86 256.094L118.293 255.072L118.098 254.944L127.937 236.114C128.36 235.299 128.933 234.58 129.622 233.999C130.311 233.418 131.104 232.987 131.953 232.729C133.025 232.394 134.161 232.35 135.254 232.602C135.891 232.743 136.505 232.984 137.074 233.317C137.309 233.452 137.535 233.603 137.751 233.767C138.583 234.38 139.267 235.189 139.747 236.129C140.319 237.23 140.601 238.471 140.565 239.724C140.529 240.978 140.176 242.199 139.543 243.261L135.75 249.627L132.508 255.072L131.899 256.094H119.86Z" fill="#2F2E41"/>
<path d="M145.138 227.689C151.742 227.689 157.095 222.067 157.095 215.132C157.095 208.197 151.742 202.575 145.138 202.575C138.535 202.575 133.181 208.197 133.181 215.132C133.181 222.067 138.535 227.689 145.138 227.689Z" fill="#FFB8B8"/>
<path d="M157.142 256.094H130.264L130.385 255.731C130.317 255.511 130.254 255.291 130.196 255.072C130.132 254.842 130.079 254.606 130.03 254.376C129.593 252.236 129.595 250.023 130.035 247.883C131.52 240.225 137.445 234.002 137.445 234.002C137.547 233.921 137.649 233.844 137.751 233.767C138.633 233.09 139.589 232.526 140.599 232.09C145 230.173 149.615 230.945 152.716 231.937C153.796 232.28 154.852 232.702 155.876 233.2C156.236 233.379 156.431 233.491 156.431 233.491L156.737 243.313L157.107 255.072L157.142 256.094Z" fill="white"/>
<path d="M169.575 255.072L167.521 244.1L165.447 233.036C165.36 232.579 165.144 232.16 164.827 231.835C164.51 231.509 164.107 231.292 163.67 231.211L159.327 230.424L155.287 229.693C154.897 229.619 154.495 229.658 154.126 229.807C153.756 229.956 153.432 230.208 153.188 230.536C152.885 230.934 152.718 231.427 152.716 231.937C152.716 232.252 152.778 232.563 152.896 232.852C155.004 238.016 155.043 246.191 154.508 255.072C154.483 255.409 154.464 255.752 154.44 256.094H169.77L169.575 255.072Z" fill="#2F2E41"/>
<path d="M140.599 232.09C140.51 231.718 140.334 231.375 140.087 231.093C139.84 230.81 139.53 230.596 139.185 230.47C138.839 230.344 138.47 230.311 138.109 230.372C137.748 230.434 137.408 230.588 137.118 230.822L135.254 232.602L127.62 239.902C127.382 240.127 127.196 240.405 127.075 240.715C126.213 242.878 124.534 247.147 122.581 252.418C122.265 253.277 121.939 254.162 121.603 255.072C121.486 255.409 121.36 255.752 121.233 256.094H133.813C133.915 255.752 134.017 255.409 134.119 255.072C134.679 253.216 135.225 251.396 135.75 249.627C137.289 244.488 138.676 239.821 139.747 236.129C140.044 235.107 140.315 234.163 140.56 233.297C140.675 232.905 140.688 232.489 140.599 232.09Z" fill="#2F2E41"/>
<path d="M172.399 256.094H173.212L173.1 255.808L172.803 255.072L168.222 243.655L167.521 244.1L161.893 247.674L164.78 255.072L165.179 256.094H169.77H172.399Z" fill="#FFB8B8"/>
<path d="M167.754 234.601C167.135 232.897 165.911 231.511 164.341 230.732C162.77 229.954 160.974 229.843 159.327 230.424C159.117 230.497 158.911 230.582 158.709 230.679C157.556 231.22 156.573 232.094 155.876 233.2C155.591 233.641 155.358 234.117 155.18 234.616C154.864 235.483 154.714 236.406 154.74 237.334C154.766 238.261 154.967 239.174 155.331 240.02L156.738 243.313L161.771 255.072L162.209 256.094H172.399L173.1 255.808L174.921 255.072L175.174 254.969L167.754 234.601Z" fill="#2F2E41"/>
<path d="M154.529 200.71C154.946 200.841 155.392 200.824 155.799 200.662C156.206 200.5 156.551 200.202 156.779 199.813C156.996 199.417 157.124 198.974 157.152 198.518C157.181 198.063 157.11 197.606 156.944 197.183C156.605 196.34 156.07 195.599 155.389 195.029C154.615 194.293 153.672 193.781 152.654 193.542C152.145 193.427 151.618 193.428 151.11 193.545C150.602 193.663 150.123 193.894 149.707 194.222C149.299 194.561 148.996 195.021 148.837 195.542C148.679 196.064 148.672 196.623 148.818 197.148C149.128 198.091 149.966 198.722 150.804 199.193C152.466 200.125 154.298 200.672 156.178 200.797L154.529 200.71Z" fill="#2F2E41"/>
<path d="M156.855 214.757C154.933 215.035 155.18 214.008 154.41 212.137C153.64 210.266 152.609 208.046 150.677 207.856C149.094 207.701 147.789 209.03 146.507 210.017C144.22 211.777 141.139 212.638 138.489 211.582C135.839 210.527 133.997 207.21 135.003 204.427C135.316 203.658 135.776 202.966 136.354 202.391C136.932 201.817 137.617 201.374 138.365 201.089C139.866 200.528 141.46 200.296 143.049 200.405C146.585 200.524 150.052 201.456 153.207 203.136C155.384 204.298 157.503 205.96 158.329 208.373C159.155 210.787 159.699 214.179 157.337 214.831L156.855 214.757Z" fill="#2F2E41"/>
<path d="M153.547 194.071C152.596 192.334 153.381 189.951 154.935 188.791C156.49 187.63 158.576 187.516 160.431 187.982C162.266 188.467 163.947 189.45 165.305 190.833C166.664 192.216 167.652 193.95 168.172 195.861C168.959 198.898 168.491 202.161 169.158 205.23C169.513 206.866 170.183 208.408 171.128 209.762C172.072 211.116 173.271 212.252 174.649 213.101C176.027 213.95 177.556 214.494 179.142 214.699C180.728 214.904 182.338 214.765 183.871 214.292C185.868 213.677 187.897 212.179 188.093 210.003C188.3 212.502 187.758 215.006 186.542 217.165C185.326 219.324 183.498 221.03 181.313 222.043C178.74 223.17 175.87 223.244 173.083 223.169C171.267 223.12 169.409 223.005 167.734 222.267C166.575 221.712 165.533 220.919 164.669 219.935C163.805 218.952 163.137 217.797 162.703 216.539C161.85 214.01 161.62 211.295 162.034 208.647C162.308 206.588 162.853 204.569 163.006 202.496C163.159 200.422 162.869 198.209 161.652 196.568C160.435 194.928 158.11 194.09 156.379 195.101C155.684 195.507 155.123 196.171 154.367 196.433C153.612 196.695 152.541 196.234 152.609 195.402L153.547 194.071Z" fill="#2F2E41"/>
<path d="M235.141 256.094L235.234 255.072L237.979 225.071C238.879 224.331 239.846 223.685 240.866 223.143C246.518 220.152 251.971 221.584 254.921 222.821C255.703 223.142 256.458 223.531 257.18 223.982L258.787 255.072L258.84 256.094H235.141Z" fill="white"/>
<path d="M248 217.086C254.603 217.086 259.957 211.464 259.957 204.529C259.957 197.594 254.603 191.972 248 191.972C241.396 191.972 236.043 197.594 236.043 204.529C236.043 211.464 241.396 217.086 248 217.086Z" fill="#FFB8B8"/>
<path d="M257.701 212.186C258.59 211.202 259.18 209.963 259.396 208.626C259.613 207.289 259.445 205.915 258.916 204.678C258.386 203.441 257.519 202.398 256.423 201.68C255.327 200.963 254.053 200.604 252.762 200.649C251.109 200.707 249.551 201.418 247.973 201.94C245.581 202.794 243.03 203.035 240.532 202.643C238.018 202.233 235.75 200.827 234.195 198.714C232.716 196.579 232.254 193.617 233.299 191.215C234.506 188.442 237.324 186.914 239.976 185.673C241.045 185.111 242.187 184.717 243.365 184.503C243.955 184.4 244.56 184.427 245.14 184.58C245.72 184.734 246.264 185.012 246.737 185.396C247.482 186.069 247.919 187.081 248.729 187.664C249.642 188.32 250.828 188.303 251.928 188.419C254.408 188.679 256.753 189.727 258.652 191.421C260.55 193.115 261.913 195.377 262.558 197.904C263.203 200.432 263.1 203.106 262.263 205.57C261.426 208.035 259.894 210.174 257.871 211.702L257.701 212.186Z" fill="#2F2E41"/>
<path d="M242.648 228.338L240.866 223.143L240.755 222.819C240.702 222.666 240.617 222.527 240.506 222.413C240.394 222.299 240.26 222.214 240.112 222.163C239.964 222.112 239.808 222.096 239.654 222.118C239.5 222.14 239.353 222.199 239.223 222.289L237.2 223.706C237.2 223.706 224.226 223.706 223.185 231.881C223.17 232.009 223.151 232.152 223.136 232.305C223.135 232.312 223.134 232.319 223.131 232.326C223 232.862 220.551 242.801 218.448 255.072C218.39 255.409 218.331 255.752 218.273 256.094H246.465V256.094C247.382 243.768 246.869 232.308 242.648 228.338Z" fill="#2F2E41"/>
<path d="M276.278 255.072C274.74 242.484 272.539 232.305 272.539 232.305C272.52 232.152 272.5 232.009 272.486 231.881C271.449 223.706 258.475 223.706 258.475 223.706L256.453 222.29C256.324 222.2 256.177 222.141 256.022 222.119C255.868 222.097 255.712 222.112 255.564 222.164C255.416 222.215 255.282 222.301 255.17 222.414C255.059 222.528 254.974 222.667 254.921 222.821L253.027 228.338C248.806 232.308 248.293 243.768 249.21 256.094L249.211 256.094H276.4C276.361 255.752 276.317 255.409 276.278 255.072Z" fill="#2F2E41"/>
<path d="M47.9165 226.41L45.0248 255.072L44.9226 256.094H37.0993C37.1918 255.762 37.2843 255.419 37.3817 255.072C39.6017 247.075 42.6249 235.403 42.2985 232.31C41.7874 227.484 45.3657 225.873 45.3657 225.873L45.5896 225.919L47.9165 226.41Z" fill="white"/>
<path d="M60.5336 217.563C67.1372 217.563 72.4906 211.941 72.4906 205.006C72.4906 198.071 67.1372 192.449 60.5336 192.449C53.9299 192.449 48.5765 198.071 48.5765 205.006C48.5765 211.941 53.9299 217.563 60.5336 217.563Z" fill="#A0616A"/>
<path d="M76.0114 250.01C75.4085 251.177 74.9145 252.403 74.5364 253.671C74.3952 254.121 74.259 254.591 74.1323 255.072C74.0398 255.404 73.9571 255.747 73.8744 256.094H42.3375C42.3814 255.757 42.4202 255.414 42.4642 255.072C44.0756 241.702 45.3801 228.133 45.5896 225.919C45.609 225.71 45.6188 225.602 45.6188 225.602C64.5174 215.142 78.3093 228.823 78.3093 228.823C78.3093 228.823 78.3288 228.92 78.358 229.11C78.6599 231.022 80.1982 242.188 76.0114 250.01Z" fill="white"/>
<path d="M74.5364 253.671L72.4334 248.936L72.9445 230.163L78.3581 229.11L78.548 229.074C81.3462 230.782 83.5115 233.435 84.6916 236.6C85.7432 239.36 87.744 247.663 89.4334 255.072C89.5114 255.414 89.5891 255.757 89.6671 256.094H75.6123L75.1595 255.072L74.5364 253.671Z" fill="white"/>
<path d="M93.7711 171.736H24.6317C23.1487 171.737 21.727 172.357 20.6783 173.458C19.6297 174.559 19.0397 176.053 19.0379 177.61V250.22C19.0397 251.777 19.6297 253.27 20.6783 254.372C21.727 255.473 23.1487 256.092 24.6317 256.094H93.7711C95.2543 256.093 96.6765 255.474 97.7253 254.372C98.7741 253.271 99.3637 251.777 99.3647 250.22V177.61C99.3637 176.052 98.7741 174.559 97.7253 173.457C96.6765 172.356 95.2543 171.737 93.7711 171.736ZM98.391 250.22C98.39 251.506 97.9029 252.74 97.0368 253.649C96.1706 254.559 94.9961 255.071 93.7711 255.072H24.6317C23.407 255.07 22.2329 254.558 21.3669 253.648C20.5008 252.739 20.0135 251.506 20.0116 250.22V177.61C20.0135 176.324 20.5008 175.091 21.3669 174.181C22.2329 173.272 23.407 172.76 24.6317 172.758H93.7711C94.9961 172.759 96.1706 173.271 97.0368 174.18C97.9029 175.09 98.39 176.324 98.391 177.61V250.22ZM45.0248 255.072L44.9225 256.094H73.8744C73.9571 255.746 74.0398 255.404 74.1323 255.072H45.0248Z" fill="white"/>
<path d="M186.565 171.736H117.426C115.943 171.737 114.521 172.357 113.473 173.458C112.424 174.559 111.834 176.053 111.832 177.61V250.22C111.834 251.777 112.424 253.27 113.473 254.372C114.521 255.473 115.943 256.092 117.426 256.094H186.565C188.049 256.093 189.471 255.474 190.52 254.372C191.568 253.271 192.158 251.777 192.159 250.22V177.61C192.158 176.052 191.568 174.559 190.52 173.457C189.471 172.356 188.049 171.737 186.565 171.736ZM191.185 250.22C191.184 251.506 190.697 252.74 189.831 253.649C188.965 254.559 187.79 255.071 186.565 255.072H117.426C116.201 255.07 115.027 254.558 114.161 253.648C113.295 252.739 112.808 251.506 112.806 250.22V177.61C112.808 176.324 113.295 175.091 114.161 174.181C115.027 173.272 116.201 172.76 117.426 172.758H186.565C187.79 172.759 188.965 173.271 189.831 174.18C190.697 175.09 191.184 176.324 191.185 177.61V250.22ZM130.196 255.072C130.254 255.291 130.317 255.511 130.385 255.731L130.264 256.094H154.439C154.464 255.752 154.483 255.409 154.508 255.072H130.196Z" fill="white"/>
<path d="M279.365 171.736H210.225C208.742 171.737 207.32 172.356 206.271 173.457C205.222 174.559 204.633 176.052 204.632 177.61V250.22C204.633 251.777 205.222 253.271 206.271 254.373C207.32 255.474 208.742 256.093 210.225 256.094H279.365C280.848 256.092 282.269 255.473 283.318 254.371C284.367 253.27 284.956 251.777 284.958 250.22V177.61C284.956 176.053 284.367 174.56 283.318 173.458C282.269 172.357 280.848 171.737 279.365 171.736ZM283.985 250.22C283.983 251.506 283.495 252.739 282.63 253.648C281.764 254.558 280.589 255.07 279.365 255.072H210.225C209 255.071 207.826 254.559 206.96 253.649C206.093 252.74 205.606 251.506 205.605 250.22V177.61C205.606 176.323 206.093 175.09 206.96 174.18C207.826 173.271 209 172.759 210.225 172.758H279.365C280.589 172.76 281.764 173.272 282.63 174.181C283.495 175.091 283.983 176.324 283.985 177.61V250.22ZM246.538 255.072C246.514 255.409 246.489 255.752 246.465 256.094H267.442C267.481 255.757 267.525 255.414 267.564 255.072H246.538Z" fill="white"/>
<path d="M232.325 285.747H71.6714C70.6385 285.747 69.6479 285.317 68.9175 284.55C68.1871 283.782 67.7768 282.742 67.7768 281.657C67.7768 280.573 68.1871 279.532 68.9175 278.765C69.6479 277.998 70.6385 277.567 71.6714 277.567H232.325C233.358 277.567 234.348 277.998 235.079 278.765C235.809 279.532 236.219 280.573 236.219 281.657C236.219 282.742 235.809 283.782 235.079 284.55C234.348 285.317 233.358 285.747 232.325 285.747Z" fill="white"/>
<path d="M187.293 150.262H116.703C115.67 150.262 114.68 149.832 113.949 149.065C113.219 148.297 112.808 147.257 112.808 146.172C112.808 145.088 113.219 144.047 113.949 143.28C114.68 142.513 115.67 142.082 116.703 142.082H187.293C188.326 142.082 189.317 142.513 190.047 143.28C190.778 144.047 191.188 145.088 191.188 146.172C191.188 147.257 190.778 148.297 190.047 149.065C189.317 149.832 188.326 150.262 187.293 150.262Z" fill="white"/>
<path d="M66.2528 215.947C66.6577 216.366 67.1931 216.618 67.7606 216.656C68.3281 216.694 68.8896 216.516 69.3422 216.154C72.1602 213.961 74.6342 211.23 76.0983 207.899C77.7759 204.083 77.9631 199.399 75.9404 195.772C74.2305 192.705 71.2111 190.727 68.2018 189.102C67.0334 188.409 65.7748 187.9 64.466 187.59C63.1432 187.283 61.7588 187.518 60.5949 188.246C60.0255 188.621 59.5769 189.167 59.3077 189.814C59.0384 190.461 58.961 191.177 59.0855 191.871C57.64 190.139 55.7886 188.834 53.7148 188.085C52.409 187.548 50.979 187.439 49.6131 187.773C47.7035 188.341 46.3094 190.123 45.5469 192.048C44.9302 193.512 44.7173 195.128 44.9323 196.713C45.0454 197.502 45.315 198.257 45.7234 198.929C46.1319 199.601 46.6701 200.176 47.3034 200.616C48.8823 201.642 50.8965 201.568 52.7097 201.149C54.5229 200.73 56.2781 200.001 58.1264 199.817C59.9747 199.632 62.0329 200.116 63.1577 201.668C63.9499 202.76 64.1533 204.187 64.3311 205.548L65.256 212.623C65.3316 213.647 65.5805 214.648 65.991 215.579C66.0621 215.714 66.1502 215.837 66.2528 215.947Z" fill="#2F2E41"/>
</g>
<defs>
<clipPath id="clip0">
<rect width="304" height="314" fill="white"/>
</clipPath>
</defs>
</svg>
