<svg width="431" height="276" viewBox="0 0 431 276" fill="none" xmlns="http://www.w3.org/2000/svg">
<g clip-path="url(#clip0)">
<path d="M64.8883 75.3683C65.6072 67.62 67.5928 60.0424 70.7658 52.9381C71.6501 50.9611 72.6235 49.0275 73.6858 47.1375C73.7391 47.0387 73.7519 46.923 73.7216 46.8149C73.6913 46.7068 73.6202 46.6147 73.5233 46.558C73.4264 46.5013 73.3114 46.4845 73.2023 46.5111C73.0933 46.5378 72.9989 46.6057 72.939 46.7006C69.0756 53.5845 66.369 61.057 64.9275 68.8193C64.5265 70.987 64.2251 73.17 64.0233 75.3683C63.972 75.9228 64.8373 75.9193 64.8883 75.3683Z" fill="#E6E6E6"/>
<path d="M75.7809 48.5258C78.8064 48.5258 81.2591 46.0713 81.2591 43.0434C81.2591 40.0156 78.8064 37.561 75.7809 37.561C72.7553 37.561 70.3026 40.0156 70.3026 43.0434C70.3026 46.0713 72.7553 48.5258 75.7809 48.5258Z" fill="#E6E6E6"/>
<path d="M65.4488 75.5139C65.9152 70.4872 67.2033 65.5713 69.2618 60.9624C69.8355 59.6798 70.467 58.4254 71.1562 57.1993C71.1907 57.1352 71.1991 57.0601 71.1794 56.99C71.1597 56.9198 71.1136 56.8601 71.0507 56.8233C70.9879 56.7866 70.9132 56.7757 70.8425 56.7929C70.7718 56.8102 70.7105 56.8543 70.6716 56.9159C68.1653 61.3817 66.4094 66.2295 65.4742 71.2653C65.2141 72.6716 65.0185 74.0878 64.8877 75.5139C64.8544 75.8736 65.4158 75.8713 65.4488 75.5139Z" fill="#E6E6E6"/>
<path d="M72.5152 58.0999C74.478 58.0999 76.0692 56.5076 76.0692 54.5433C76.0692 52.579 74.478 50.9866 72.5152 50.9866C70.5524 50.9866 68.9612 52.579 68.9612 54.5433C68.9612 56.5076 70.5524 58.0999 72.5152 58.0999Z" fill="#E6E6E6"/>
<path d="M64.7404 75.1781C62.0188 70.9276 60.0132 66.2586 58.8036 61.3575C58.4677 59.9931 58.1947 58.6154 57.9845 57.2244C57.9724 57.1525 57.9328 57.0882 57.8742 57.045C57.8156 57.0018 57.7425 56.9831 57.6703 56.9928C57.5982 57.0025 57.5326 57.0399 57.4874 57.097C57.4423 57.1542 57.4211 57.2266 57.4283 57.2991C58.1967 62.3631 59.7917 67.2663 62.1493 71.8125C62.8084 73.0815 63.5247 74.3185 64.298 75.5235C64.4928 75.8276 64.934 75.4803 64.7404 75.1781Z" fill="#E6E6E6"/>
<path d="M57.4239 57.8503C59.3867 57.8503 60.9779 56.2579 60.9779 54.2936C60.9779 52.3293 59.3867 50.7369 57.4239 50.7369C55.4611 50.7369 53.8699 52.3293 53.8699 54.2936C53.8699 56.2579 55.4611 57.8503 57.4239 57.8503Z" fill="#E6E6E6"/>
<path d="M53.83 78.325V71.3369C53.8307 70.6421 54.1069 69.976 54.5978 69.4847C55.0887 68.9935 55.7543 68.7171 56.4485 68.7163H72.7418C73.436 68.7171 74.1016 68.9935 74.5925 69.4847C75.0834 69.976 75.3595 70.6421 75.3603 71.3369V78.325C75.3595 79.0197 75.0834 79.6858 74.5925 80.1771C74.1016 80.6684 73.436 80.9447 72.7418 80.9455H56.4485C55.7543 80.9447 55.0887 80.6684 54.5978 80.1771C54.1069 79.6858 53.8307 79.0197 53.83 78.325Z" fill="#F2F2F2"/>
<path d="M72.1598 33.7758H65.177C64.4828 33.775 63.8172 33.4987 63.3263 33.0074C62.8354 32.5161 62.5593 31.85 62.5585 31.1553V2.62054C62.5593 1.92577 62.8354 1.25968 63.3263 0.768402C63.8172 0.277126 64.4828 0.000782992 65.177 0H72.1598C72.8541 0.000782992 73.5197 0.277126 74.0106 0.768402C74.5015 1.25968 74.7776 1.92577 74.7784 2.62054V31.1553C74.7776 31.85 74.5015 32.5161 74.0106 33.0074C73.5197 33.4987 72.8541 33.775 72.1598 33.7758Z" fill="#F2F2F2"/>
<path d="M74.4874 5.53226H62.8494V7.86162H74.4874V5.53226Z" fill="#CCCCCC"/>
<path d="M74.4874 23.5848H62.8494V25.9142H74.4874V23.5848Z" fill="#CCCCCC"/>
<path d="M89.6169 33.7758H82.6341C81.9398 33.775 81.2742 33.4987 80.7833 33.0074C80.2924 32.5161 80.0163 31.85 80.0155 31.1553V2.62054C80.0163 1.92577 80.2924 1.25968 80.7833 0.768402C81.2742 0.277126 81.9398 0.000782992 82.6341 0H89.6169C90.3111 0.000782992 90.9767 0.277126 91.4676 0.768402C91.9585 1.25968 92.2346 1.92577 92.2354 2.62054V31.1553C92.2346 31.85 91.9585 32.5161 91.4676 33.0074C90.9767 33.4987 90.3111 33.775 89.6169 33.7758Z" fill="#F2F2F2"/>
<path d="M91.9444 5.53226H80.3064V7.86162H91.9444V5.53226Z" fill="#CCCCCC"/>
<path d="M91.9444 23.5848H80.3064V25.9142H91.9444V23.5848Z" fill="#CCCCCC"/>
<path d="M107.074 33.7758H100.091C99.3968 33.775 98.7313 33.4987 98.2404 33.0074C97.7495 32.5161 97.4733 31.85 97.4725 31.1553V2.62054C97.4733 1.92577 97.7495 1.25968 98.2404 0.768402C98.7313 0.277126 99.3968 0.000782992 100.091 0H107.074C107.768 0.000782992 108.434 0.277126 108.925 0.768402C109.416 1.25968 109.692 1.92577 109.692 2.62054V31.1553C109.692 31.85 109.416 32.5161 108.925 33.0074C108.434 33.4987 107.768 33.775 107.074 33.7758Z" fill="#F2F2F2"/>
<path d="M109.401 5.53226H97.7634V7.86162H109.401V5.53226Z" fill="#CCCCCC"/>
<path d="M109.401 23.5848H97.7634V25.9142H109.401V23.5848Z" fill="#CCCCCC"/>
<path d="M116.384 80.9455H109.402C108.707 80.9447 108.042 80.6684 107.551 80.1771C107.06 79.6858 106.784 79.0197 106.783 78.325V49.7902C106.784 49.0954 107.06 48.4293 107.551 47.9381C108.042 47.4468 108.707 47.1705 109.402 47.1697H116.384C117.079 47.1705 117.744 47.4468 118.235 47.9381C118.726 48.4293 119.002 49.0954 119.003 49.7902V78.325C119.002 79.0197 118.726 79.6858 118.235 80.1771C117.744 80.6684 117.079 80.9447 116.384 80.9455Z" fill="#F2F2F2"/>
<path d="M118.712 52.7019H107.074V55.0313H118.712V52.7019Z" fill="#CCCCCC"/>
<path d="M118.712 70.7545H107.074V73.0839H118.712V70.7545Z" fill="#CCCCCC"/>
<path d="M133.841 80.9455H126.859C126.164 80.9447 125.499 80.6684 125.008 80.1771C124.517 79.6858 124.241 79.0197 124.24 78.325V49.7902C124.241 49.0954 124.517 48.4293 125.008 47.9381C125.499 47.4468 126.164 47.1705 126.859 47.1697H133.841C134.536 47.1705 135.201 47.4468 135.692 47.9381C136.183 48.4293 136.459 49.0954 136.46 49.7902V78.325C136.459 79.0197 136.183 79.6858 135.692 80.1771C135.201 80.6684 134.536 80.9447 133.841 80.9455Z" fill="#F2F2F2"/>
<path d="M136.169 52.7019H124.531V55.0313H136.169V52.7019Z" fill="#CCCCCC"/>
<path d="M136.169 70.7545H124.531V73.0839H136.169V70.7545Z" fill="#CCCCCC"/>
<path d="M151.298 80.9455H144.316C143.621 80.9447 142.956 80.6684 142.465 80.1771C141.974 79.6858 141.698 79.0197 141.697 78.325V49.7902C141.698 49.0954 141.974 48.4293 142.465 47.9381C142.956 47.4468 143.621 47.1705 144.316 47.1697H151.298C151.993 47.1705 152.658 47.4468 153.149 47.9381C153.64 48.4293 153.916 49.0954 153.917 49.7902V78.325C153.916 79.0197 153.64 79.6858 153.149 80.1771C152.658 80.6684 151.993 80.9447 151.298 80.9455Z" fill="#F2F2F2"/>
<path d="M153.626 52.7019H141.988V55.0313H153.626V52.7019Z" fill="#CCCCCC"/>
<path d="M153.626 70.7545H141.988V73.0839H153.626V70.7545Z" fill="#CCCCCC"/>
<path d="M70.4141 128.115H63.4313C62.7371 128.114 62.0715 127.838 61.5806 127.347C61.0897 126.855 60.8135 126.189 60.8127 125.495V96.9599C60.8135 96.2651 61.0897 95.599 61.5806 95.1077C62.0715 94.6165 62.7371 94.3401 63.4313 94.3394H70.4141C71.1084 94.3401 71.774 94.6165 72.2649 95.1077C72.7558 95.599 73.0319 96.2651 73.0327 96.9599V125.495C73.0319 126.189 72.7558 126.855 72.2649 127.347C71.774 127.838 71.1084 128.114 70.4141 128.115Z" fill="#F2F2F2"/>
<path d="M72.7418 99.8716H61.1038V102.201H72.7418V99.8716Z" fill="#CCCCCC"/>
<path d="M72.7418 117.924H61.1038V120.254H72.7418V117.924Z" fill="#CCCCCC"/>
<path d="M87.8711 128.115H80.8883C80.1941 128.114 79.5285 127.838 79.0376 127.347C78.5467 126.855 78.2706 126.189 78.2698 125.495V96.9599C78.2706 96.2651 78.5467 95.599 79.0376 95.1077C79.5285 94.6165 80.1941 94.3401 80.8883 94.3394H87.8711C88.5654 94.3401 89.231 94.6165 89.7219 95.1077C90.2128 95.599 90.4889 96.2651 90.4897 96.9599V125.495C90.4889 126.189 90.2128 126.855 89.7219 127.347C89.231 127.838 88.5654 128.114 87.8711 128.115Z" fill="#F2F2F2"/>
<path d="M90.1988 99.8716H78.5608V102.201H90.1988V99.8716Z" fill="#CCCCCC"/>
<path d="M90.1988 117.924H78.5608V120.254H90.1988V117.924Z" fill="#CCCCCC"/>
<path d="M105.328 128.115H98.3454C97.6511 128.114 96.9855 127.838 96.4946 127.347C96.0037 126.855 95.7276 126.189 95.7268 125.495V96.9599C95.7276 96.2651 96.0037 95.599 96.4946 95.1077C96.9855 94.6165 97.6511 94.3401 98.3454 94.3394H105.328C106.022 94.3401 106.688 94.6165 107.179 95.1077C107.67 95.599 107.946 96.2651 107.947 96.9599V125.495C107.946 126.189 107.67 126.855 107.179 127.347C106.688 127.838 106.022 128.114 105.328 128.115Z" fill="#F2F2F2"/>
<path d="M107.656 99.8716H96.0178V102.201H107.656V99.8716Z" fill="#CCCCCC"/>
<path d="M107.656 117.924H96.0178V120.254H107.656V117.924Z" fill="#CCCCCC"/>
<path d="M124.531 33.7758H117.548C116.854 33.775 116.188 33.4987 115.697 33.0074C115.206 32.5161 114.93 31.85 114.93 31.1553V2.62054C114.93 1.92577 115.206 1.25968 115.697 0.768402C116.188 0.277126 116.854 0.000782992 117.548 0H124.531C125.225 0.000782992 125.891 0.277126 126.382 0.768402C126.873 1.25968 127.149 1.92577 127.149 2.62054V31.1553C127.149 31.85 126.873 32.5161 126.382 33.0074C125.891 33.4987 125.225 33.775 124.531 33.7758Z" fill="#F2F2F2"/>
<path d="M126.859 5.53226H115.221V7.86162H126.859V5.53226Z" fill="#CCCCCC"/>
<path d="M126.859 23.5848H115.221V25.9142H126.859V23.5848Z" fill="#CCCCCC"/>
<path d="M141.988 33.7758H135.005C134.311 33.775 133.645 33.4987 133.154 33.0074C132.664 32.5161 132.387 31.85 132.387 31.1553V2.62054C132.387 1.92577 132.664 1.25968 133.154 0.768402C133.645 0.277126 134.311 0.000782992 135.005 0H141.988C142.682 0.000782992 143.348 0.277126 143.839 0.768402C144.33 1.25968 144.606 1.92577 144.607 2.62054V31.1553C144.606 31.85 144.33 32.5161 143.839 33.0074C143.348 33.4987 142.682 33.775 141.988 33.7758Z" fill="#F2F2F2"/>
<path d="M144.316 5.53226H132.678V7.86162H144.316V5.53226Z" fill="#CCCCCC"/>
<path d="M144.316 23.5848H132.678V25.9142H144.316V23.5848Z" fill="#CCCCCC"/>
<path d="M159.445 33.7758H152.462C151.768 33.775 151.102 33.4987 150.611 33.0074C150.121 32.5161 149.844 31.85 149.844 31.1553V2.62054C149.844 1.92577 150.121 1.25968 150.611 0.768402C151.102 0.277126 151.768 0.000782992 152.462 0H159.445C160.139 0.000782992 160.805 0.277126 161.296 0.768402C161.787 1.25968 162.063 1.92577 162.064 2.62054V31.1553C162.063 31.85 161.787 32.5161 161.296 33.0074C160.805 33.4987 160.139 33.775 159.445 33.7758Z" fill="#F2F2F2"/>
<path d="M161.773 5.53226H150.135V7.86162H161.773V5.53226Z" fill="#CCCCCC"/>
<path d="M161.773 23.5848H150.135V25.9142H161.773V23.5848Z" fill="#CCCCCC"/>
<path d="M176.902 33.7758H169.919C169.225 33.775 168.559 33.4987 168.069 33.0074C167.578 32.5161 167.302 31.85 167.301 31.1553V2.62054C167.302 1.92577 167.578 1.25968 168.069 0.768402C168.559 0.277126 169.225 0.000782992 169.919 0H176.902C177.596 0.000782992 178.262 0.277126 178.753 0.768402C179.244 1.25968 179.52 1.92577 179.521 2.62054V31.1553C179.52 31.85 179.244 32.5161 178.753 33.0074C178.262 33.4987 177.596 33.775 176.902 33.7758Z" fill="#F2F2F2"/>
<path d="M179.23 5.53226H167.592V7.86162H179.23V5.53226Z" fill="#CCCCCC"/>
<path d="M179.23 23.5848H167.592V25.9142H179.23V23.5848Z" fill="#CCCCCC"/>
<path d="M203.053 34.6493H37.2114C37.0571 34.6493 36.9091 34.588 36.8 34.4788C36.6908 34.3696 36.6295 34.2214 36.6295 34.067C36.6295 33.9125 36.6908 33.7644 36.8 33.6552C36.9091 33.546 37.0571 33.4846 37.2114 33.4846H203.053C203.208 33.4846 203.356 33.546 203.465 33.6552C203.574 33.7644 203.635 33.9125 203.635 34.067C203.635 34.2214 203.574 34.3696 203.465 34.4788C203.356 34.588 203.208 34.6493 203.053 34.6493Z" fill="#CCCCCC"/>
<path d="M203.053 81.819H37.2114C37.0571 81.819 36.9091 81.7577 36.8 81.6484C36.6908 81.5392 36.6295 81.3911 36.6295 81.2367C36.6295 81.0822 36.6908 80.9341 36.8 80.8249C36.9091 80.7157 37.0571 80.6543 37.2114 80.6543H203.053C203.208 80.6543 203.356 80.7157 203.465 80.8249C203.574 80.9341 203.635 81.0822 203.635 81.2367C203.635 81.3911 203.574 81.5392 203.465 81.6484C203.356 81.7577 203.208 81.819 203.053 81.819Z" fill="#CCCCCC"/>
<path d="M203.053 128.989H37.2114C37.0571 128.989 36.9091 128.927 36.8 128.818C36.6908 128.709 36.6295 128.561 36.6295 128.406C36.6295 128.252 36.6908 128.104 36.8 127.995C36.9091 127.885 37.0571 127.824 37.2114 127.824H203.053C203.208 127.824 203.356 127.885 203.465 127.995C203.574 128.104 203.635 128.252 203.635 128.406C203.635 128.561 203.574 128.709 203.465 128.818C203.356 128.927 203.208 128.989 203.053 128.989Z" fill="#CCCCCC"/>
<path d="M193.232 220.406C193.232 215.903 176.298 212.253 155.408 212.253C134.519 212.253 117.585 215.903 117.585 220.406C117.585 223.292 124.547 225.825 135.042 227.274V271.943C135.042 272.947 135.44 273.91 136.15 274.62C136.859 275.33 137.821 275.728 138.824 275.728C139.827 275.728 140.789 275.33 141.499 274.62C142.208 273.91 142.607 272.947 142.607 271.943V228.079C146.605 228.389 150.914 228.559 155.408 228.559C159.903 228.559 164.211 228.389 168.21 228.079V271.943C168.21 272.947 168.609 273.91 169.318 274.62C170.027 275.33 170.989 275.728 171.993 275.728C172.996 275.728 173.958 275.33 174.667 274.62C175.376 273.91 175.775 272.947 175.775 271.943V227.274C186.27 225.825 193.232 223.292 193.232 220.406Z" fill="#CCCCCC"/>
<path d="M185.954 268.405H193.088L196.482 240.867H185.953L185.954 268.405Z" fill="#A0616A"/>
<path d="M206.847 275.033L184.426 275.034L184.425 266.365L198.184 266.364C200.481 266.364 202.685 267.278 204.309 268.903C205.934 270.529 206.847 272.734 206.847 275.033L206.847 275.033Z" fill="#2F2E41"/>
<path d="M197.091 264.42L203.897 262.283L198.897 234.991L188.851 238.146L197.091 264.42Z" fill="#A0616A"/>
<path d="M219.008 264.485L197.615 271.203L195.021 262.932L208.149 258.809C210.341 258.121 212.716 258.332 214.753 259.397C216.789 260.461 218.32 262.291 219.008 264.485Z" fill="#2F2E41"/>
<path d="M192.318 251.746L179.267 217.462C176.339 218.151 151.786 223.588 143.562 214.825C140.744 211.822 140.194 207.471 141.929 201.893L146.728 195.857L146.877 195.865C148.692 195.961 191.355 198.354 194.279 211.232C196.745 222.09 201.249 242.333 202.57 248.278C202.704 248.894 202.612 249.538 202.312 250.092C202.011 250.646 201.522 251.074 200.933 251.297L195.684 253.266C195.392 253.376 195.082 253.433 194.769 253.433C194.238 253.433 193.719 253.272 193.282 252.97C192.844 252.669 192.508 252.242 192.318 251.746Z" fill="#2F2E41"/>
<path d="M184.753 255.822L171.703 221.539C168.775 222.227 144.221 227.664 135.998 218.902C133.179 215.899 132.63 211.547 134.364 205.969L139.163 199.934L139.312 199.942C141.127 200.037 183.79 202.43 186.715 215.309C189.181 226.166 193.684 246.409 195.005 252.355C195.139 252.971 195.048 253.614 194.747 254.168C194.446 254.723 193.957 255.15 193.368 255.373L188.119 257.343C187.827 257.453 187.517 257.509 187.205 257.509C186.674 257.509 186.155 257.348 185.717 257.047C185.279 256.745 184.943 256.318 184.753 255.822Z" fill="#2F2E41"/>
<path d="M202.389 173.64C202.197 173.899 202.024 174.171 201.874 174.457L173.175 177.483L169.044 171.814L159.68 176.935L167.795 190.691L202.992 181.71C203.88 182.576 205.011 183.152 206.234 183.359C207.456 183.567 208.713 183.397 209.837 182.873C210.961 182.348 211.899 181.494 212.526 180.423C213.153 179.352 213.439 178.115 213.346 176.878C213.254 175.64 212.787 174.46 212.008 173.494C211.229 172.528 210.175 171.823 208.985 171.471C207.796 171.12 206.528 171.139 205.349 171.527C204.171 171.914 203.139 172.651 202.389 173.64V173.64Z" fill="#A0616A"/>
<path d="M134.179 207.779C133.787 207.496 133.48 207.11 133.293 206.663C133.106 206.216 133.047 205.726 133.121 205.247C134.74 194.565 132.877 179.263 131.029 168.308C130.651 166.085 130.798 163.804 131.459 161.648C132.12 159.492 133.276 157.522 134.835 155.893C136.394 154.265 138.312 153.025 140.436 152.272C142.56 151.52 144.831 151.275 147.066 151.558C149.011 151.815 150.938 152.196 152.834 152.696C155.985 153.49 158.772 155.334 160.737 157.923C162.703 160.513 163.729 163.694 163.647 166.945C163.371 177.517 165.516 190.708 166.451 195.888C166.515 196.244 166.505 196.609 166.421 196.961C166.338 197.313 166.183 197.643 165.966 197.932C165.753 198.219 165.483 198.457 165.173 198.633C164.863 198.808 164.519 198.917 164.165 198.952C153.802 200.01 142.627 205.067 136.888 207.988C136.52 208.178 136.111 208.278 135.696 208.279C135.15 208.277 134.619 208.102 134.179 207.779Z" fill="#015EBB"/>
<path d="M162.152 180.228C161.832 180.102 161.54 179.914 161.292 179.674C161.045 179.434 160.848 179.148 160.712 178.832L154.933 165.471C154.583 164.664 154.396 163.796 154.382 162.916C154.367 162.036 154.526 161.162 154.849 160.344C155.173 159.526 155.654 158.779 156.266 158.147C156.877 157.515 157.607 157.01 158.414 156.66C159.221 156.311 160.089 156.124 160.968 156.11C161.847 156.097 162.72 156.256 163.538 156.581C164.355 156.905 165.101 157.387 165.732 158C166.363 158.612 166.867 159.344 167.216 160.151L172.995 173.512C173.27 174.149 173.281 174.87 173.025 175.516C172.77 176.162 172.269 176.681 171.632 176.957L164.156 180.196C163.841 180.334 163.501 180.407 163.157 180.413C162.813 180.418 162.471 180.355 162.152 180.228H162.152Z" fill="#015EBB"/>
<path d="M175.04 172.476C174.847 172.734 174.675 173.007 174.525 173.292L145.826 176.318L141.694 170.649L132.331 175.771L140.445 189.526L175.643 180.545C176.531 181.412 177.662 181.987 178.884 182.195C180.107 182.402 181.364 182.233 182.488 181.708C183.612 181.184 184.55 180.329 185.177 179.258C185.803 178.187 186.09 176.951 185.997 175.713C185.905 174.475 185.438 173.295 184.659 172.329C183.88 171.364 182.825 170.658 181.636 170.307C180.446 169.955 179.178 169.975 178 170.362C176.822 170.75 175.789 171.487 175.04 172.476V172.476Z" fill="#A0616A"/>
<path d="M134.803 180.81C134.482 180.684 134.19 180.496 133.943 180.256C133.696 180.017 133.499 179.73 133.363 179.414L127.584 166.054C127.234 165.247 127.047 164.378 127.032 163.498C127.018 162.619 127.177 161.745 127.5 160.926C127.823 160.108 128.304 159.362 128.916 158.73C129.528 158.098 130.258 157.592 131.065 157.243C131.872 156.893 132.74 156.706 133.619 156.693C134.498 156.679 135.371 156.839 136.188 157.163C137.006 157.487 137.751 157.969 138.382 158.582C139.014 159.195 139.518 159.926 139.866 160.734L145.646 174.094C145.92 174.732 145.931 175.453 145.676 176.099C145.42 176.745 144.919 177.263 144.283 177.54L136.807 180.778C136.491 180.916 136.152 180.99 135.808 180.995C135.464 181.001 135.122 180.938 134.803 180.81H134.803Z" fill="#015EBB"/>
<path d="M146.003 147.013C153.896 147.013 160.295 140.61 160.295 132.71C160.295 124.811 153.896 118.407 146.003 118.407C138.109 118.407 131.711 124.811 131.711 132.71C131.711 140.61 138.109 147.013 146.003 147.013Z" fill="#A0616A"/>
<path d="M135.784 142.527C135.723 142.347 135.703 142.156 135.727 141.968C135.751 141.78 135.818 141.599 135.922 141.441C136.026 141.282 136.165 141.15 136.329 141.054C136.492 140.957 136.675 140.9 136.864 140.885C137.251 140.906 137.63 141.006 137.978 141.177C138.326 141.349 138.635 141.589 138.887 141.884C139.404 142.481 140.007 142.998 140.674 143.42C141.366 143.768 142.303 143.719 142.697 143.054C143.067 142.429 142.814 141.593 142.59 140.868C142.02 139.023 141.701 137.109 141.641 135.178C141.577 133.024 141.881 130.775 143.073 129.094C144.611 126.925 147.362 126.101 149.966 126.161C152.569 126.221 155.13 127.025 157.709 127.534C158.599 127.709 159.646 127.799 160.241 127.108C160.874 126.374 160.642 125.186 160.372 124.194C159.674 121.622 158.932 118.962 157.309 116.885C155.553 114.726 153.045 113.313 150.29 112.931C147.646 112.603 144.961 112.908 142.457 113.821C138.377 115.107 134.787 117.61 132.167 120.994C129.466 124.593 128.299 129.115 128.921 133.573C129.529 137.455 131.584 140.963 134.674 143.388L135.784 142.527Z" fill="#2F2E41"/>
<path d="M81.2136 176.96C81.9325 169.212 83.9181 161.634 87.0911 154.53C87.9755 152.553 88.9488 150.619 90.0112 148.729C90.0644 148.63 90.0773 148.515 90.0469 148.406C90.0166 148.298 89.9455 148.206 89.8486 148.15C89.7518 148.093 89.6367 148.076 89.5277 148.103C89.4186 148.129 89.3242 148.197 89.2643 148.292C85.4009 155.176 82.6943 162.649 81.2528 170.411C80.8518 172.579 80.5504 174.762 80.3486 176.96C80.2973 177.514 81.1627 177.511 81.2136 176.96Z" fill="#3F3D56"/>
<path d="M92.1062 150.117C95.1317 150.117 97.5844 147.663 97.5844 144.635C97.5844 141.607 95.1317 139.153 92.1062 139.153C89.0806 139.153 86.6279 141.607 86.6279 144.635C86.6279 147.663 89.0806 150.117 92.1062 150.117Z" fill="#015EBB"/>
<path d="M81.774 177.105C82.2404 172.079 83.5285 167.163 85.587 162.554C86.1607 161.271 86.7922 160.017 87.4814 158.791C87.516 158.727 87.5243 158.652 87.5046 158.582C87.4849 158.511 87.4388 158.452 87.3759 158.415C87.3131 158.378 87.2384 158.367 87.1677 158.384C87.097 158.402 87.0357 158.446 86.9968 158.507C84.4905 162.973 82.7346 167.821 81.7994 172.857C81.5393 174.263 81.3437 175.679 81.2128 177.105C81.1796 177.465 81.741 177.463 81.774 177.105Z" fill="#3F3D56"/>
<path d="M88.8406 159.692C90.8034 159.692 92.3946 158.099 92.3946 156.135C92.3946 154.171 90.8034 152.578 88.8406 152.578C86.8778 152.578 85.2866 154.171 85.2866 156.135C85.2866 158.099 86.8778 159.692 88.8406 159.692Z" fill="#015EBB"/>
<path d="M81.0657 176.77C78.3441 172.519 76.3385 167.85 75.1289 162.949C74.793 161.585 74.52 160.207 74.3098 158.816C74.2977 158.744 74.2581 158.68 74.1995 158.637C74.1409 158.593 74.0678 158.575 73.9956 158.584C73.9235 158.594 73.8579 158.631 73.8127 158.689C73.7676 158.746 73.7464 158.818 73.7536 158.891C74.5221 163.955 76.117 168.858 78.4746 173.404C79.1337 174.673 79.85 175.91 80.6233 177.115C80.8181 177.419 81.2593 177.072 81.0657 176.77Z" fill="#3F3D56"/>
<path d="M73.7492 159.442C75.712 159.442 77.3032 157.849 77.3032 155.885C77.3032 153.921 75.712 152.328 73.7492 152.328C71.7864 152.328 70.1952 153.921 70.1952 155.885C70.1952 157.849 71.7864 159.442 73.7492 159.442Z" fill="#015EBB"/>
<path d="M70.1553 179.917V172.928C70.1561 172.234 70.4322 171.568 70.9231 171.076C71.414 170.585 72.0796 170.309 72.7738 170.308H89.0671C89.7613 170.309 90.4269 170.585 90.9178 171.076C91.4087 171.568 91.6848 172.234 91.6856 172.928V179.917C91.6848 180.611 91.4087 181.277 90.9178 181.769C90.4269 182.26 89.7613 182.536 89.0671 182.537H72.7738C72.0796 182.536 71.414 182.26 70.9231 181.769C70.4322 181.277 70.1561 180.611 70.1553 179.917Z" fill="#CCCCCC"/>
<path d="M216.217 177.895H170.247C169.122 177.895 168.21 178.808 168.21 179.933C168.21 181.059 169.122 181.971 170.247 181.971H216.217C217.342 181.971 218.254 181.059 218.254 179.933C218.254 178.808 217.342 177.895 216.217 177.895Z" fill="#CCCCCC"/>
<path d="M247.058 181.971H195.269C194.266 181.97 193.304 181.571 192.595 180.862C191.886 180.152 191.487 179.19 191.486 178.186V149.651C191.487 148.648 191.886 147.686 192.595 146.976C193.304 146.267 194.266 145.867 195.269 145.866H247.058C248.061 145.867 249.022 146.267 249.731 146.976C250.44 147.686 250.839 148.648 250.84 149.651V178.186C250.839 179.19 250.44 180.152 249.731 180.862C249.022 181.571 248.061 181.97 247.058 181.971Z" fill="#CCCCCC"/>
<path d="M221.163 167.413C223.091 167.413 224.655 165.849 224.655 163.919C224.655 161.989 223.091 160.425 221.163 160.425C219.235 160.425 217.672 161.989 217.672 163.919C217.672 165.849 219.235 167.413 221.163 167.413Z" fill="white"/>
<path d="M378.859 220.406C378.859 215.903 361.924 212.253 341.035 212.253C320.146 212.253 303.211 215.903 303.211 220.406C303.211 223.292 310.174 225.825 320.668 227.274V271.943C320.668 272.947 321.067 273.91 321.776 274.62C322.486 275.33 323.448 275.728 324.451 275.728C325.454 275.728 326.416 275.33 327.125 274.62C327.835 273.91 328.233 272.947 328.233 271.943V228.079C332.232 228.389 336.541 228.559 341.035 228.559C345.529 228.559 349.838 228.389 353.837 228.079V271.943C353.837 272.947 354.235 273.91 354.945 274.62C355.654 275.33 356.616 275.728 357.619 275.728C358.622 275.728 359.584 275.33 360.294 274.62C361.003 273.91 361.402 272.947 361.402 271.943V227.274C371.897 225.825 378.859 223.292 378.859 220.406Z" fill="#CCCCCC"/>
<path d="M345.217 145.783C354.216 145.783 361.511 138.483 361.511 129.478C361.511 120.472 354.216 113.172 345.217 113.172C336.219 113.172 328.924 120.472 328.924 129.478C328.924 138.483 336.219 145.783 345.217 145.783Z" fill="#2F2E41"/>
<path d="M304.67 268.987H297.536L294.143 241.449H304.671L304.67 268.987Z" fill="#FFB8B8"/>
<path d="M292.44 266.947H306.199V275.616H283.778C283.778 274.478 284.002 273.35 284.437 272.299C284.872 271.247 285.51 270.291 286.315 269.486C287.119 268.681 288.074 268.042 289.125 267.607C290.176 267.171 291.303 266.947 292.44 266.947Z" fill="#2F2E41"/>
<path d="M293.534 265.003L286.727 262.865L291.727 235.574L301.773 238.728L293.534 265.003Z" fill="#FFB8B8"/>
<path d="M282.476 259.392L295.603 263.514L293.009 271.786L271.617 265.067C271.957 263.981 272.508 262.973 273.238 262.1C273.968 261.227 274.863 260.506 275.872 259.979C276.88 259.452 277.982 259.129 279.115 259.028C280.248 258.927 281.39 259.051 282.476 259.392Z" fill="#2F2E41"/>
<path d="M295.855 254.015C295.542 254.015 295.232 253.959 294.94 253.849L289.692 251.879C289.103 251.656 288.613 251.228 288.313 250.674C288.012 250.12 287.92 249.477 288.054 248.861C289.376 242.915 293.879 222.672 296.345 211.815C299.269 198.936 341.933 196.543 343.747 196.448L343.896 196.44L348.696 202.475C350.43 208.053 349.88 212.404 347.062 215.408C338.838 224.17 314.285 218.733 311.357 218.045L298.307 252.328C298.116 252.824 297.78 253.251 297.343 253.553C296.905 253.854 296.386 254.015 295.855 254.015Z" fill="#2F2E41"/>
<path d="M303.42 258.092C303.107 258.092 302.797 258.035 302.505 257.925L297.256 255.956C296.667 255.732 296.178 255.305 295.877 254.751C295.577 254.197 295.485 253.553 295.619 252.937C296.94 246.991 301.444 226.749 303.909 215.891C306.834 203.013 349.497 200.62 351.312 200.524L351.461 200.516L356.26 206.552C357.995 212.13 357.445 216.481 354.627 219.484C346.403 228.246 321.85 222.809 318.922 222.121L305.871 256.404C305.681 256.901 305.345 257.328 304.907 257.629C304.469 257.93 303.951 258.092 303.42 258.092Z" fill="#2F2E41"/>
<path d="M288.235 174.223C288.428 174.481 288.6 174.754 288.75 175.039L317.449 178.065L321.581 172.396L330.944 177.518L322.829 191.273L287.632 182.292C286.744 183.159 285.613 183.734 284.391 183.942C283.168 184.149 281.911 183.98 280.787 183.455C279.663 182.931 278.725 182.076 278.098 181.005C277.471 179.934 277.185 178.698 277.278 177.46C277.37 176.222 277.837 175.042 278.616 174.076C279.395 173.111 280.45 172.405 281.639 172.054C282.828 171.702 284.097 171.722 285.275 172.109C286.453 172.497 287.486 173.234 288.235 174.223Z" fill="#FFB8B8"/>
<path d="M354.929 208.862C354.514 208.86 354.105 208.76 353.736 208.57C347.997 205.65 336.822 200.592 326.46 199.534C326.105 199.499 325.761 199.39 325.451 199.215C325.141 199.039 324.871 198.801 324.658 198.515C324.441 198.226 324.286 197.895 324.203 197.543C324.12 197.191 324.109 196.826 324.173 196.47C325.108 191.29 327.253 178.099 326.977 167.527C326.896 164.277 327.922 161.095 329.887 158.505C331.852 155.916 334.639 154.073 337.79 153.279C339.687 152.778 341.613 152.398 343.558 152.141C345.794 151.857 348.064 152.102 350.188 152.855C352.312 153.607 354.23 154.848 355.789 156.476C357.348 158.104 358.504 160.075 359.165 162.23C359.826 164.386 359.973 166.667 359.595 168.89C357.747 179.846 355.884 195.147 357.503 205.829C357.578 206.308 357.518 206.798 357.331 207.245C357.144 207.692 356.838 208.078 356.445 208.362C356.005 208.685 355.474 208.86 354.929 208.862Z" fill="#015EBB"/>
<path d="M327.508 180.996C327.15 180.995 326.797 180.921 326.468 180.778L318.992 177.54C318.356 177.263 317.855 176.745 317.599 176.099C317.344 175.453 317.354 174.732 317.629 174.094L323.409 160.734C323.757 159.926 324.261 159.195 324.893 158.582C325.524 157.969 326.269 157.487 327.087 157.163C327.904 156.839 328.777 156.679 329.656 156.693C330.535 156.706 331.403 156.893 332.21 157.243C333.017 157.592 333.747 158.098 334.359 158.73C334.971 159.362 335.452 160.108 335.775 160.926C336.098 161.745 336.257 162.619 336.243 163.498C336.228 164.378 336.041 165.247 335.691 166.054L329.912 179.414C329.709 179.883 329.373 180.283 328.946 180.564C328.519 180.845 328.019 180.995 327.508 180.996Z" fill="#015EBB"/>
<path d="M344.622 147.596C352.515 147.596 358.914 141.192 358.914 133.293C358.914 125.393 352.515 118.99 344.622 118.99C336.728 118.99 330.33 125.393 330.33 133.293C330.33 141.192 336.728 147.596 344.622 147.596Z" fill="#FFB8B8"/>
<path d="M330.072 126.266C336.842 130.401 344.474 132.918 352.374 133.62L350.023 130.801C351.735 131.434 353.536 131.792 355.36 131.861C357.181 131.833 359.09 131.131 360.124 129.63C360.585 128.884 360.859 128.037 360.922 127.162C360.985 126.287 360.836 125.409 360.488 124.604C359.771 122.999 358.656 121.604 357.248 120.551C354.753 118.576 351.809 117.249 348.677 116.689C345.546 116.129 342.324 116.353 339.3 117.341C337.226 117.961 335.368 119.154 333.939 120.782C332.584 122.455 329.976 123.945 330.67 125.984L330.072 126.266Z" fill="#2F2E41"/>
<path d="M347.025 114.723C342.517 110.148 337.062 106.618 331.044 104.381C327.181 102.949 322.976 102.064 318.938 102.877C314.899 103.691 311.08 106.487 309.953 110.452C309.031 113.695 309.983 117.186 311.413 120.239C312.842 123.291 314.751 126.122 315.908 129.288C317.087 132.519 317.442 135.994 316.94 139.397C316.437 142.8 315.094 146.023 313.031 148.774C310.968 151.526 308.251 153.718 305.127 155.152C302.002 156.586 298.57 157.216 295.14 156.986C299.108 157.518 302.766 159.385 306.645 160.378C310.523 161.371 315.101 161.304 317.984 158.523C321.034 155.581 321.095 150.797 320.947 146.56L320.29 127.666C320.178 124.454 320.082 121.14 321.24 118.142C322.397 115.144 325.148 112.519 328.359 112.546C330.793 112.567 332.947 114.042 334.899 115.497C336.851 116.953 338.917 118.505 341.341 118.721C343.765 118.938 346.533 117.143 346.352 114.714" fill="#2F2E41"/>
<path d="M280.591 163.689L313.499 164.466L318.267 199.672L287.876 200.355L280.591 163.689Z" fill="#E6E6E6"/>
<path d="M315.584 173.058C315.777 173.316 315.949 173.589 316.099 173.874L344.799 176.9L348.93 171.232L358.293 176.353L350.179 190.109L314.981 181.128C314.093 181.994 312.963 182.569 311.74 182.777C310.517 182.985 309.26 182.815 308.136 182.291C307.013 181.766 306.075 180.911 305.448 179.84C304.821 178.769 304.535 177.533 304.627 176.295C304.72 175.058 305.187 173.877 305.966 172.912C306.745 171.946 307.799 171.241 308.989 170.889C310.178 170.538 311.446 170.557 312.624 170.944C313.803 171.332 314.835 172.069 315.584 173.058V173.058Z" fill="#FFB8B8"/>
<path d="M354.857 181.578C354.5 181.577 354.146 181.504 353.818 181.361L346.342 178.122C345.705 177.845 345.204 177.327 344.948 176.681C344.693 176.035 344.704 175.314 344.979 174.676L350.758 161.316C351.107 160.508 351.611 159.777 352.242 159.164C352.873 158.552 353.618 158.069 354.436 157.745C355.253 157.421 356.126 157.261 357.006 157.275C357.885 157.289 358.753 157.476 359.559 157.825C360.366 158.175 361.096 158.68 361.708 159.312C362.32 159.944 362.801 160.69 363.124 161.509C363.448 162.327 363.607 163.201 363.592 164.081C363.578 164.961 363.39 165.829 363.04 166.636L357.261 179.996C357.058 180.466 356.722 180.865 356.295 181.146C355.868 181.427 355.368 181.577 354.857 181.578Z" fill="#015EBB"/>
<path d="M287.209 181.389H55.6123C54.6092 181.389 53.6471 181.788 52.9378 182.498C52.2285 183.208 51.83 184.17 51.83 185.174C51.83 186.178 52.2285 187.141 52.9378 187.851C53.6471 188.561 54.6092 188.96 55.6123 188.96H62.3042V271.361C62.3042 272.365 62.7027 273.328 63.412 274.037C64.1213 274.747 65.0834 275.146 66.0865 275.146C67.0897 275.146 68.0517 274.747 68.7611 274.037C69.4704 273.328 69.8689 272.365 69.8689 271.361V196.233L112.273 273.147C112.775 274.015 113.601 274.647 114.569 274.906C115.537 275.164 116.568 275.028 117.436 274.526C118.303 274.025 118.937 273.2 119.197 272.232C119.457 271.263 119.323 270.232 118.824 269.362L74.4971 188.96H277.026V189.009L232.726 269.362C232.225 270.232 232.089 271.265 232.348 272.234C232.608 273.204 233.242 274.031 234.111 274.533C234.979 275.035 236.012 275.171 236.981 274.911C237.95 274.651 238.776 274.017 239.277 273.147L277.026 204.677V271.361C277.026 272.365 277.424 273.328 278.134 274.037C278.843 274.747 279.805 275.146 280.808 275.146C281.811 275.146 282.773 274.747 283.483 274.037C284.192 273.328 284.59 272.365 284.59 271.361V190.955L285.691 188.96H287.209C288.212 188.96 289.174 188.561 289.884 187.851C290.593 187.141 290.991 186.178 290.991 185.174C290.991 184.17 290.593 183.208 289.884 182.498C289.174 181.788 288.212 181.389 287.209 181.389Z" fill="#3F3D56"/>
<path d="M430.307 276H0.692932C0.509522 275.999 0.333809 275.926 0.204306 275.796C0.0748026 275.666 0.0020752 275.49 0.0020752 275.307C0.0020752 275.123 0.0748026 274.947 0.204306 274.817C0.333809 274.687 0.509522 274.614 0.692932 274.613H430.307C430.491 274.613 430.667 274.686 430.797 274.816C430.927 274.946 431 275.123 431 275.307C431 275.49 430.927 275.667 430.797 275.797C430.667 275.927 430.491 276 430.307 276Z" fill="#3F3D56"/>
</g>
<defs>
<clipPath id="clip0">
<rect width="431" height="276" fill="white"/>
</clipPath>
</defs>
</svg>
