<svg width="337" height="282" viewBox="0 0 337 282" fill="none" xmlns="http://www.w3.org/2000/svg">
<g clip-path="url(#clip0)">
<path d="M230.226 -2.6248e-05L0 136.75L6.92389 148.462L237.15 11.7126L230.226 -2.6248e-05Z" fill="#053F64"/>
<path d="M280.266 11.4648L50.0391 148.215L56.963 159.927L287.189 23.1775L280.266 11.4648Z" fill="#053F64"/>
<path d="M324.586 24.0046L94.3595 160.754L101.283 172.467L331.51 35.7173L324.586 24.0046Z" fill="#053F64"/>
<path d="M149.959 160.304C189.768 160.304 222.04 127.955 222.04 88.05C222.04 48.1453 189.768 15.7962 149.959 15.7962C110.149 15.7962 77.8774 48.1453 77.8774 88.05C77.8774 127.955 110.149 160.304 149.959 160.304Z" fill="white"/>
<path d="M77.3413 88.05C77.3413 47.9128 109.917 15.2588 149.959 15.2588C190 15.2588 222.576 47.9128 222.576 88.05C222.576 128.187 190 160.841 149.959 160.841C109.917 160.841 77.3413 128.187 77.3413 88.05ZM78.4136 88.05C78.4136 127.594 110.509 159.766 149.959 159.766C189.409 159.766 221.504 127.594 221.504 88.05C221.504 48.5056 189.409 16.3337 149.959 16.3337C110.509 16.3337 78.4136 48.5055 78.4136 88.05H78.4136Z" fill="#3F3D56"/>
<path d="M137.109 88.3641C137.109 85.8167 137.863 83.3265 139.275 81.2084C140.687 79.0902 142.693 77.4394 145.041 76.4645C147.389 75.4897 149.973 75.2346 152.465 75.7316C154.958 76.2285 157.247 77.4552 159.044 79.2565C160.841 81.0578 162.065 83.3528 162.561 85.8513C163.057 88.3498 162.802 90.9396 161.83 93.2931C160.857 95.6466 159.21 97.6582 157.097 99.0735C154.984 100.489 152.5 101.244 149.959 101.244C146.551 101.244 143.282 99.8871 140.873 97.4716C138.463 95.0562 137.109 91.7801 137.109 88.3641V88.3641ZM149.959 76.1124C146.718 76.116 143.611 77.408 141.32 79.7049C139.029 82.0017 137.74 85.1159 137.736 88.3641C137.736 90.7873 138.453 93.156 139.796 95.1708C141.139 97.1856 143.048 98.7559 145.281 99.6832C147.515 100.611 149.972 100.853 152.343 100.38C154.714 99.9077 156.892 98.7408 158.601 97.0274C160.311 95.314 161.475 93.1309 161.946 90.7543C162.418 88.3777 162.176 85.9143 161.251 83.6756C160.326 81.4369 158.759 79.5234 156.749 78.1772C154.739 76.8309 152.376 76.1124 149.959 76.1124Z" fill="#3F3D56"/>
<path d="M125.514 88.3641C125.514 83.5178 126.947 78.7803 129.633 74.7507C132.319 70.7212 136.137 67.5805 140.604 65.7259C145.071 63.8713 149.986 63.3861 154.728 64.3315C159.469 65.277 163.825 67.6107 167.244 71.0376C170.662 74.4645 172.991 78.8306 173.934 83.5838C174.877 88.337 174.393 93.2638 172.543 97.7412C170.693 102.219 167.559 106.046 163.539 108.738C159.52 111.43 154.793 112.868 149.959 112.868C146.748 112.868 143.57 112.234 140.604 111.002C137.638 109.771 134.943 107.966 132.673 105.691C130.403 103.415 128.603 100.714 127.374 97.7412C126.146 94.7683 125.514 91.582 125.514 88.3641V88.3641ZM149.959 64.489C145.248 64.489 140.643 65.8892 136.726 68.5127C132.809 71.1361 129.756 74.8649 127.953 79.2275C126.151 83.5901 125.679 88.3906 126.598 93.0219C127.517 97.6533 129.786 101.907 133.117 105.246C136.448 108.585 140.692 110.859 145.312 111.781C149.932 112.702 154.721 112.229 159.073 110.422C163.426 108.615 167.145 105.555 169.763 101.628C172.38 97.7022 173.777 93.0862 173.777 88.3641C173.77 82.0342 171.258 75.9656 166.793 71.4897C162.327 67.0138 156.273 64.4961 149.959 64.489Z" fill="#FCC400"/>
<path d="M102.322 88.3641C102.322 78.92 105.116 69.688 110.35 61.8355C115.585 53.983 123.025 47.8627 131.729 44.2486C140.433 40.6345 150.011 39.6889 159.252 41.5313C168.492 43.3738 176.98 47.9216 183.643 54.5996C190.305 61.2776 194.841 69.7858 196.68 79.0485C198.518 88.3111 197.574 97.9121 193.969 106.637C190.363 115.363 184.258 122.82 176.424 128.067C168.59 133.314 159.38 136.114 149.959 136.114C137.329 136.1 125.221 131.065 116.29 122.113C107.36 113.161 102.337 101.024 102.322 88.3641ZM149.959 41.2421C140.661 41.2421 131.572 44.0058 123.842 49.1836C116.111 54.3614 110.086 61.7209 106.527 70.3313C102.969 78.9417 102.039 88.4164 103.852 97.5572C105.666 106.698 110.143 115.094 116.718 121.684C123.292 128.275 131.669 132.762 140.787 134.581C149.906 136.399 159.358 135.466 167.948 131.899C176.538 128.333 183.88 122.293 189.046 114.544C194.211 106.795 196.968 97.684 196.968 88.3641C196.954 75.8709 191.997 63.8935 183.184 55.0594C174.371 46.2254 162.422 41.2563 149.959 41.2421Z" fill="#FCC400"/>
<path d="M149.959 94.0188C153.247 94.0188 155.913 91.3464 155.913 88.05C155.913 84.7535 153.247 82.0812 149.959 82.0812C146.67 82.0812 144.004 84.7535 144.004 88.05C144.004 91.3464 146.67 94.0188 149.959 94.0188Z" fill="#FCC400"/>
<path d="M134.602 111.297C137.891 111.297 140.557 108.625 140.557 105.328C140.557 102.032 137.891 99.3593 134.602 99.3593C131.314 99.3593 128.648 102.032 128.648 105.328C128.648 108.625 131.314 111.297 134.602 111.297Z" fill="#FCC400"/>
<path d="M194.513 108.784C197.801 108.784 200.467 106.111 200.467 102.815C200.467 99.5184 197.801 96.8461 194.513 96.8461C191.224 96.8461 188.558 99.5184 188.558 102.815C188.558 106.111 191.224 108.784 194.513 108.784Z" fill="#FCC400"/>
<path d="M149.959 90.8773C151.516 90.8773 152.779 89.6114 152.779 88.05C152.779 86.4885 151.516 85.2227 149.959 85.2227C148.401 85.2227 147.138 86.4885 147.138 88.05C147.138 89.6114 148.401 90.8773 149.959 90.8773Z" fill="#2E3A41"/>
<path d="M194.512 105.642C196.07 105.642 197.333 104.376 197.333 102.815C197.333 101.253 196.07 99.9875 194.512 99.9875C192.955 99.9875 191.692 101.253 191.692 102.815C191.692 104.376 192.955 105.642 194.512 105.642Z" fill="#2E3A41"/>
<path d="M134.602 108.47C136.16 108.47 137.423 107.204 137.423 105.642C137.423 104.081 136.16 102.815 134.602 102.815C133.044 102.815 131.782 104.081 131.782 105.642C131.782 107.204 133.044 108.47 134.602 108.47Z" fill="#2E3A41"/>
<path d="M18.3321 59.1485C19.8898 59.1485 21.1526 57.8826 21.1526 56.3212C21.1526 54.7597 19.8898 53.4938 18.3321 53.4938C16.7743 53.4938 15.5115 54.7597 15.5115 56.3212C15.5115 57.8826 16.7743 59.1485 18.3321 59.1485Z" fill="#FCC400"/>
<path d="M149.802 56.4784H26.01V55.8501H150.429V88.2068H149.802V56.4784Z" fill="#2E3A41"/>
<path d="M10.1837 56.3212C10.1837 54.7057 10.6616 53.1266 11.557 51.7834C12.4523 50.4402 13.7249 49.3933 15.2138 48.7751C16.7027 48.1569 18.3411 47.9951 19.9217 48.3103C21.5023 48.6254 22.9542 49.4033 24.0938 50.5456C25.2333 51.6879 26.0094 53.1433 26.3238 54.7277C26.6382 56.3121 26.4768 57.9544 25.8601 59.4468C25.2434 60.9393 24.199 62.2149 22.859 63.1124C21.519 64.0099 19.9436 64.489 18.332 64.489C17.262 64.489 16.2024 64.2777 15.2138 63.8672C14.2252 63.4568 13.3269 62.8551 12.5703 62.0967C11.8137 61.3382 11.2135 60.4378 10.804 59.4469C10.3945 58.4559 10.1837 57.3938 10.1837 56.3212ZM18.332 48.7816C16.8444 48.7816 15.3902 49.2238 14.1533 50.0523C12.9164 50.8807 11.9523 52.0582 11.3831 53.4359C10.8138 54.8136 10.6648 56.3295 10.955 57.792C11.2453 59.2546 11.9616 60.598 13.0135 61.6524C14.0654 62.7068 15.4056 63.4249 16.8646 63.7158C18.3237 64.0067 19.836 63.8574 21.2104 63.2868C22.5848 62.7161 23.7595 61.7498 24.5859 60.5099C25.4124 59.27 25.8535 57.8123 25.8535 56.3212C25.8513 54.3223 25.0581 52.4059 23.648 50.9924C22.238 49.579 20.3262 48.7839 18.332 48.7816Z" fill="#2E3A41"/>
<path d="M37.1358 140.512C38.6936 140.512 39.9564 139.247 39.9564 137.685C39.9564 136.124 38.6936 134.858 37.1358 134.858C35.5781 134.858 34.3153 136.124 34.3153 137.685C34.3153 139.247 35.5781 140.512 37.1358 140.512Z" fill="#FCC400"/>
<path d="M28.9875 137.685C28.9875 136.07 29.4654 134.491 30.3608 133.147C31.2561 131.804 32.5287 130.757 34.0176 130.139C35.5065 129.521 37.1449 129.359 38.7255 129.674C40.3061 129.989 41.758 130.767 42.8976 131.91C44.0371 133.052 44.8132 134.507 45.1276 136.092C45.442 137.676 45.2806 139.318 44.6639 140.811C44.0472 142.303 43.0028 143.579 41.6628 144.476C40.3228 145.374 38.7474 145.853 37.1358 145.853C34.9748 145.853 32.9022 144.992 31.3741 143.461C29.846 141.929 28.9876 139.851 28.9875 137.685ZM37.1358 130.146C35.6482 130.146 34.194 130.588 32.9571 131.416C31.7202 132.245 30.7562 133.422 30.1869 134.8C29.6176 136.178 29.4686 137.694 29.7589 139.156C30.0491 140.619 30.7654 141.962 31.8173 143.016C32.8692 144.071 34.2094 144.789 35.6685 145.08C37.1275 145.371 38.6398 145.221 40.0142 144.651C41.3886 144.08 42.5633 143.114 43.3897 141.874C44.2162 140.634 44.6574 139.176 44.6574 137.685C44.6551 135.686 43.8619 133.77 42.4518 132.356C41.0418 130.943 39.13 130.148 37.1358 130.146Z" fill="#2E3A41"/>
<path d="M281.95 72.3426C283.508 72.3426 284.771 71.0768 284.771 69.5153C284.771 67.9538 283.508 66.688 281.95 66.688C280.392 66.688 279.13 67.9538 279.13 69.5153C279.13 71.0768 280.392 72.3426 281.95 72.3426Z" fill="#FCC400"/>
<path d="M273.802 69.5153C273.802 67.8999 274.28 66.3207 275.175 64.9775C276.07 63.6343 277.343 62.5874 278.832 61.9692C280.321 61.351 281.959 61.1893 283.54 61.5044C285.12 61.8196 286.572 62.5975 287.712 63.7398C288.851 64.8821 289.627 66.3374 289.942 67.9218C290.256 69.5062 290.095 71.1485 289.478 72.641C288.861 74.1335 287.817 75.4091 286.477 76.3066C285.137 77.2041 283.562 77.6831 281.95 77.6831C280.88 77.6831 279.821 77.4719 278.832 77.0614C277.843 76.6509 276.945 76.0493 276.188 75.2908C275.432 74.5324 274.832 73.632 274.422 72.641C274.013 71.65 273.802 70.5879 273.802 69.5153ZM281.95 61.9758C279.956 61.9781 278.044 62.7732 276.634 64.1866C275.224 65.6 274.431 67.5164 274.429 69.5153C274.429 71.0065 274.87 72.4642 275.696 73.704C276.523 74.9439 277.697 75.9103 279.072 76.4809C280.446 77.0516 281.959 77.2009 283.418 76.91C284.877 76.619 286.217 75.901 287.269 74.8465C288.321 73.7921 289.037 72.4487 289.327 70.9862C289.617 69.5237 289.468 68.0077 288.899 66.63C288.33 65.2524 287.366 64.0749 286.129 63.2464C284.892 62.418 283.438 61.9758 281.95 61.9758V61.9758Z" fill="#2E3A41"/>
<path d="M194.199 70.4626L274.11 69.2013L274.12 69.8291L194.826 71.0811V102.815H194.199V70.4626Z" fill="#2E3A41"/>
<path d="M44.971 137.371H134.289V105.642H134.915V137.999H44.971V137.371Z" fill="#2E3A41"/>
<path d="M35.5689 71.0861H1.09525V73.2851H35.5689V71.0861Z" fill="#FCC400"/>
<path d="M35.5689 77.369H1.09525V79.568H35.5689V77.369Z" fill="#FCC400"/>
<path d="M35.5689 83.6519H1.09525V85.8509H35.5689V83.6519Z" fill="#FCC400"/>
<path d="M54.3727 152.45H19.899V154.649H54.3727V152.45Z" fill="#FCC400"/>
<path d="M54.3727 158.733H19.899V160.932H54.3727V158.733Z" fill="#FCC400"/>
<path d="M54.3727 165.016H19.899V167.215H54.3727V165.016Z" fill="#FCC400"/>
<path d="M299.187 84.5944H264.713V86.7934H299.187V84.5944Z" fill="#FCC400"/>
<path d="M299.187 90.8773H264.713V93.0763H299.187V90.8773Z" fill="#FCC400"/>
<path d="M299.187 97.1602H264.713V99.3592H299.187V97.1602Z" fill="#FCC400"/>
<path d="M315.598 271.953L310.696 273.709L301.604 255.589L308.84 252.997L315.598 271.953Z" fill="#FFB8B8"/>
<path d="M302.739 281.932L302.667 281.731C302.086 280.095 302.176 278.295 302.918 276.726C303.659 275.156 304.991 273.945 306.622 273.359L316.277 269.9L318.547 276.269L302.739 281.932Z" fill="#2E3A41"/>
<path d="M283.718 276.814L278.512 276.813L276.035 256.683L283.719 256.684L283.718 276.814Z" fill="#FFB8B8"/>
<path d="M285.045 281.872L268.258 281.872V281.659C268.258 280.799 268.427 279.947 268.755 279.152C269.084 278.358 269.565 277.636 270.172 277.028C270.779 276.419 271.499 275.937 272.292 275.608C273.085 275.279 273.934 275.109 274.792 275.109H274.793L285.046 275.11L285.045 281.872Z" fill="#2E3A41"/>
<path d="M295.583 148.21L293.319 143.726C293.319 143.726 284.884 145.844 284.117 150.744L295.583 148.21Z" fill="#FCC400"/>
<path d="M304.926 199.49L298.768 233.934L315.118 262.917L305.35 266.748L288.788 238.653L286.665 230.991L285.391 271.005L276.582 270.737L272.543 233.373L279.021 198.639L304.926 199.49Z" fill="#2E3A41"/>
<path d="M275.516 205.704C275.325 204.851 274.777 178.812 274.777 178.812C274.777 178.812 283.833 149.011 283.916 148.766L283.948 148.67L290.824 146.086C290.92 146.042 293.211 145.019 295.086 145.872C295.567 146.106 295.99 146.443 296.328 146.859C296.665 147.274 296.908 147.759 297.04 148.278C297.819 148.861 303.439 155.171 303.439 163.731L303.652 183.929L308.363 205.826L308.155 205.871C308.026 205.898 302.283 207.633 293.237 207.633C288.211 207.633 275.516 205.704 275.516 205.704Z" fill="#3F3D56"/>
<path d="M286.286 142.314C291.419 142.314 295.579 138.143 295.579 132.998C295.579 127.854 291.419 123.683 286.286 123.683C281.154 123.683 276.993 127.854 276.993 132.998C276.993 138.143 281.154 142.314 286.286 142.314Z" fill="#FFB8B8"/>
<path opacity="0.2" d="M299.525 174.037L283.268 196.775L280.867 186.157L299.525 174.037Z" fill="#C20A0A"/>
<path d="M270.671 197.266C271.253 197.242 271.823 197.091 272.342 196.823C272.86 196.555 273.313 196.177 273.669 195.714C274.025 195.251 274.276 194.716 274.404 194.146C274.531 193.576 274.532 192.984 274.407 192.414L286.488 184.986L279.817 181.858L269.368 189.391C268.425 189.665 267.616 190.276 267.093 191.109C266.57 191.941 266.369 192.937 266.53 193.908C266.69 194.879 267.201 195.757 267.964 196.375C268.727 196.994 269.69 197.311 270.671 197.266Z" fill="#FFB8B8"/>
<path d="M279.021 182.037L274.884 184.943L278.393 191.189L283.268 187.145L279.021 182.037Z" fill="#FCC400"/>
<path d="M276.855 182.22L286.587 170.913L282.858 155.316C282.473 153.705 282.686 152.007 283.458 150.541C284.229 149.075 285.507 147.941 287.051 147.35C288.596 146.759 290.303 146.752 291.853 147.33C293.402 147.908 294.689 149.031 295.473 150.491L295.558 150.649L298.994 173.809L281.729 191.548L276.855 182.22Z" fill="#3F3D56"/>
<path d="M294.202 141.086L286.489 141.364C286.018 141.381 284.742 136.294 284.575 135.239C284.443 134.552 284.066 133.937 283.515 133.508C282.963 133.08 282.275 132.867 281.579 132.91C281.001 132.964 279.545 131.883 278.043 130.603C275.191 128.172 275.339 123.607 278.472 121.553C278.558 121.496 278.642 121.445 278.724 121.399C280.701 120.29 283.013 119.917 285.278 119.889C287.332 119.863 289.443 120.122 291.252 121.097C294.495 122.843 296.221 126.66 296.372 130.347C296.524 134.034 295.345 137.639 294.007 141.077" fill="#2E3A41"/>
<path d="M336.575 282H242.724C242.611 282 242.503 281.955 242.424 281.875C242.344 281.795 242.299 281.687 242.299 281.574C242.299 281.461 242.344 281.353 242.424 281.273C242.503 281.193 242.611 281.149 242.724 281.149H336.575C336.688 281.149 336.796 281.193 336.876 281.273C336.955 281.353 337 281.461 337 281.574C337 281.687 336.955 281.795 336.876 281.875C336.796 281.955 336.688 282 336.575 282Z" fill="#3F3D56"/>
</g>
<defs>
<clipPath id="clip0">
<rect width="337" height="282" fill="white"/>
</clipPath>
</defs>
</svg>
