<svg width="391" height="354" viewBox="0 0 391 354" fill="none" xmlns="http://www.w3.org/2000/svg">
<g clip-path="url(#clip0)">
<path d="M170.892 292.776H7.74708C5.69313 292.773 3.72398 291.956 2.27162 290.503C0.819264 289.049 0.00231157 287.079 0 285.023V63.3892C0.00231157 61.3338 0.819264 59.3632 2.27162 57.9098C3.72398 56.4564 5.69313 55.6389 7.74708 55.6366H170.892C172.946 55.6389 174.915 56.4564 176.367 57.9098C177.819 59.3632 178.636 61.3338 178.639 63.3892V285.023C178.636 287.079 177.819 289.049 176.367 290.503C174.915 291.956 172.946 292.773 170.892 292.776Z" fill="white"/>
<path d="M81.9648 113.317C81.9649 119.718 79.9413 125.955 76.1839 131.136C72.4264 136.316 67.1277 140.174 61.0461 142.157C60.8642 142.215 60.6825 142.273 60.4978 142.328C59.71 142.571 58.9112 142.777 58.0985 142.954C56.6279 143.273 55.1352 143.48 53.6333 143.574C52.9805 143.618 52.324 143.64 51.6637 143.64C48.2524 143.644 44.865 143.069 41.645 141.942C41.5514 141.909 41.4578 141.876 41.3669 141.843C36.1498 139.957 31.55 136.675 28.0686 132.354C24.5872 128.032 22.3579 122.837 21.6235 117.335C20.8891 111.833 21.6779 106.235 23.9038 101.151C26.1297 96.0665 29.7075 91.6911 34.2471 88.5014C38.7867 85.3117 44.1142 83.4301 49.6488 83.0616C55.1835 82.693 60.713 83.8517 65.635 86.4114C70.5569 88.9711 74.6824 92.8336 77.5618 97.5779C80.4413 102.322 81.9643 107.767 81.9648 113.317V113.317Z" fill="white"/>
<path d="M50.9378 133.408C59.0799 133.408 65.6804 126.802 65.6804 118.654C65.6804 110.506 59.0799 103.901 50.9378 103.901C42.7956 103.901 36.1951 110.506 36.1951 118.654C36.1951 126.802 42.7956 133.408 50.9378 133.408Z" fill="#015E98"/>
<path d="M51.7984 126.603L51.8138 126.052C50.7889 126.023 49.8852 125.959 49.2063 125.463C49.0138 125.314 48.8556 125.126 48.7424 124.91C48.6292 124.695 48.5636 124.457 48.5503 124.214C48.5384 124.066 48.5608 123.917 48.6159 123.778C48.671 123.64 48.7572 123.516 48.8678 123.417C49.1244 123.261 49.4181 123.177 49.7181 123.175C50.018 123.172 50.3132 123.25 50.5724 123.401L51.0282 123.611L50.1541 117.218L49.6083 117.293L50.3518 122.731C50.0475 122.618 49.7197 122.583 49.3984 122.629C49.0771 122.675 48.7724 122.801 48.5122 122.995C48.3372 123.148 48.1999 123.34 48.111 123.555C48.0221 123.769 47.984 124.002 47.9998 124.234C48.0159 124.56 48.1031 124.879 48.2554 125.169C48.4077 125.458 48.6213 125.71 48.8813 125.908C49.7537 126.546 50.8874 126.578 51.7984 126.603Z" fill="#2F2E41"/>
<path d="M46.9089 117.762H43.9418V118.313H46.9089V117.762Z" fill="#2F2E41"/>
<path d="M56.2747 117.762H53.3076V118.313H56.2747V117.762Z" fill="#2F2E41"/>
<path d="M55.1263 139.279C55.1654 139.098 55.1857 138.913 55.1869 138.728C55.1858 138.034 54.9098 137.368 54.4193 136.877C53.9287 136.387 53.2637 136.11 52.57 136.109H48.7135C48.0197 136.11 47.3544 136.386 46.8638 136.877C46.3731 137.368 46.0972 138.034 46.0966 138.728C46.0965 138.914 46.1168 139.1 46.1571 139.282C44.7013 139.741 43.3252 140.423 42.0776 141.303C41.8351 141.471 41.5955 141.653 41.3669 141.843C41.4578 141.876 41.5514 141.909 41.645 141.942C44.865 143.069 48.2524 143.644 51.6637 143.64C52.3248 143.64 52.9813 143.618 53.6332 143.574C55.1352 143.48 56.6279 143.273 58.0985 142.954C58.9112 142.777 59.71 142.571 60.4978 142.328C58.9392 140.948 57.1095 139.91 55.1263 139.279Z" fill="#2F2E41"/>
<path d="M54.6304 143.224C54.273 143.25 53.9289 143.371 53.6332 143.574C55.1352 143.48 56.6279 143.273 58.0985 142.954L54.6304 143.224Z" fill="#2F2E41"/>
<path d="M64.3084 115.15L38.6974 105.774C38.4229 105.673 38.1996 105.468 38.0766 105.203C37.9535 104.937 37.9408 104.634 38.0412 104.359L38.1278 103.949C40.128 98.478 46.7575 95.0346 52.225 97.0362L60.1061 99.9214C65.5736 101.923 67.9499 108.402 65.9497 113.873L65.7217 114.493C65.6213 114.768 65.416 114.991 65.151 115.114C64.8859 115.237 64.5829 115.25 64.3084 115.15Z" fill="#2F2E41"/>
<path d="M65.688 115.67C29.9913 116.988 26.8721 112.5 37.7487 105.442L40.0561 101.193L66.5007 110.841L65.688 115.67Z" fill="#2F2E41"/>
<path d="M58.6886 99.2485C58.8856 98.5924 58.0415 97.7585 56.8031 97.386C55.5647 97.0135 54.401 97.2434 54.2039 97.8995C54.0068 98.5556 54.851 99.3894 56.0894 99.7619C57.3278 100.134 58.4915 99.9046 58.6886 99.2485Z" fill="#2F2E41"/>
<path d="M51.6637 144.467C48.1593 144.471 44.6795 143.881 41.3718 142.723L41.0843 142.62C34.1558 140.114 28.3399 135.231 24.671 128.838C21.0021 122.445 19.7179 114.957 21.0469 107.705C22.3759 100.454 26.2318 93.9093 31.929 89.2353C37.6262 84.5613 44.7954 82.0609 52.1615 82.1788C59.5276 82.2967 66.6132 85.0252 72.1581 89.8792C77.703 94.7331 81.3479 101.398 82.4444 108.688C83.541 115.978 82.0182 123.421 78.1469 129.694C74.2755 135.966 68.3066 140.661 61.3015 142.944C61.1058 143.006 60.9215 143.065 60.7343 143.12C59.9519 143.361 59.1218 143.578 58.2737 143.762C56.762 144.09 55.2278 144.303 53.684 144.399C53.0208 144.444 52.3394 144.467 51.6637 144.467ZM51.6637 83.8216C44.7278 83.8226 38.0144 86.2709 32.7042 90.7359C27.394 95.201 23.8271 101.397 22.6308 108.234C21.4345 115.07 22.6855 122.11 26.1637 128.115C29.642 134.12 35.1246 138.706 41.6475 141.065L41.9204 141.162C45.0518 142.259 48.3461 142.817 51.6637 142.813C52.3024 142.813 52.9463 142.792 53.5775 142.749C55.0394 142.658 56.4923 142.456 57.9238 142.145C58.726 141.971 59.5103 141.767 60.2548 141.538C60.4391 141.483 60.6141 141.427 60.7892 141.371C67.461 139.196 73.139 134.712 76.8022 128.723C80.4655 122.734 81.8739 115.633 80.7742 108.698C79.6745 101.763 76.1389 95.4481 70.8029 90.8882C65.4669 86.3283 58.6805 83.8226 51.6637 83.8216Z" fill="#CCCCCC"/>
<path d="M170.892 292.776H7.74708C5.69313 292.773 3.72398 291.956 2.27162 290.503C0.819264 289.049 0.00231157 287.079 0 285.023V63.3892C0.00231157 61.3338 0.819264 59.3632 2.27162 57.9098C3.72398 56.4564 5.69313 55.6389 7.74708 55.6366H170.892C172.946 55.6389 174.915 56.4564 176.367 57.9098C177.819 59.3632 178.636 61.3338 178.639 63.3892V285.023C178.636 287.079 177.819 289.049 176.367 290.503C174.915 291.956 172.946 292.773 170.892 292.776ZM7.74708 56.5487C5.93478 56.5507 4.19731 57.2721 2.91582 58.5545C1.63433 59.8369 0.913477 61.5756 0.911422 63.3892V285.023C0.913475 286.837 1.63431 288.575 2.9158 289.858C4.19729 291.14 5.93478 291.862 7.74708 291.864H170.892C172.704 291.862 174.441 291.14 175.723 289.858C177.004 288.575 177.725 286.837 177.727 285.023V63.3892C177.725 61.5756 177.004 59.8369 175.723 58.5545C174.441 57.2721 172.704 56.5507 170.892 56.5487H7.74708Z" fill="#CCCCCC"/>
<path d="M139.309 113.199H93.1445C92.1766 113.198 91.2489 112.813 90.5649 112.127C89.881 111.442 89.4969 110.513 89.4969 109.545C89.4969 108.576 89.881 107.647 90.5649 106.962C91.2489 106.277 92.1766 105.891 93.1445 105.89H139.309C139.789 105.889 140.264 105.983 140.708 106.167C141.151 106.35 141.554 106.619 141.894 106.959C142.234 107.298 142.503 107.701 142.687 108.145C142.871 108.589 142.965 109.064 142.965 109.545C142.965 110.025 142.871 110.501 142.687 110.944C142.503 111.388 142.234 111.791 141.894 112.131C141.554 112.47 141.151 112.739 140.708 112.923C140.264 113.106 139.789 113.2 139.309 113.199Z" fill="#E6E6E6"/>
<path d="M154.374 125.534H93.1445C92.1766 125.533 91.2489 125.147 90.5649 124.462C89.881 123.777 89.4969 122.848 89.4969 121.879C89.4969 120.911 89.881 119.982 90.5649 119.297C91.2489 118.611 92.1766 118.226 93.1445 118.225H154.374C155.342 118.226 156.269 118.611 156.953 119.297C157.637 119.982 158.021 120.911 158.021 121.879C158.021 122.848 157.637 123.777 156.953 124.462C156.269 125.147 155.342 125.533 154.374 125.534Z" fill="#E6E6E6"/>
<path d="M139.242 172.843H24.2649C23.785 172.844 23.3096 172.749 22.8659 172.566C22.4223 172.383 22.0192 172.114 21.6796 171.774C21.34 171.435 21.0705 171.032 20.8867 170.588C20.7029 170.144 20.6083 169.669 20.6083 169.188C20.6083 168.708 20.7029 168.232 20.8867 167.789C21.0705 167.345 21.34 166.942 21.6796 166.602C22.0192 166.263 22.4223 165.994 22.8659 165.81C23.3096 165.627 23.785 165.533 24.2649 165.533H139.242C140.209 165.535 141.137 165.92 141.821 166.605C142.505 167.291 142.889 168.22 142.889 169.188C142.889 170.157 142.505 171.086 141.821 171.771C141.137 172.456 140.209 172.842 139.242 172.843Z" fill="#E6E6E6"/>
<path d="M154.307 185.178H24.2649C23.785 185.178 23.3096 185.084 22.8659 184.901C22.4223 184.717 22.0192 184.448 21.6796 184.109C21.34 183.769 21.0705 183.366 20.8867 182.923C20.7029 182.479 20.6083 182.003 20.6083 181.523C20.6083 181.043 20.7029 180.567 20.8867 180.123C21.0705 179.68 21.34 179.276 21.6796 178.937C22.0192 178.598 22.4223 178.328 22.8659 178.145C23.3096 177.962 23.785 177.868 24.2649 177.868H154.307C154.786 177.868 155.262 177.962 155.705 178.145C156.149 178.328 156.552 178.598 156.892 178.937C157.232 179.276 157.501 179.68 157.685 180.123C157.869 180.567 157.963 181.043 157.963 181.523C157.963 182.003 157.869 182.479 157.685 182.923C157.501 183.366 157.232 183.769 156.892 184.109C156.552 184.448 156.149 184.717 155.705 184.901C155.262 185.084 154.786 185.178 154.307 185.178Z" fill="#E6E6E6"/>
<path d="M139.242 213.528H24.2649C23.2963 213.528 22.3674 213.142 21.6825 212.457C20.9976 211.772 20.6128 210.842 20.6128 209.873C20.6128 208.904 20.9976 207.974 21.6825 207.289C22.3674 206.603 23.2963 206.218 24.2649 206.218H139.242C140.21 206.218 141.139 206.603 141.824 207.289C142.509 207.974 142.894 208.904 142.894 209.873C142.894 210.842 142.509 211.772 141.824 212.457C141.139 213.142 140.21 213.528 139.242 213.528Z" fill="#E6E6E6"/>
<path d="M154.307 225.862H24.2649C23.2963 225.862 22.3674 225.477 21.6825 224.792C20.9976 224.106 20.6128 223.177 20.6128 222.208C20.6128 221.238 20.9976 220.309 21.6825 219.623C22.3674 218.938 23.2963 218.553 24.2649 218.553H154.307C155.275 218.553 156.204 218.938 156.889 219.623C157.574 220.309 157.959 221.238 157.959 222.208C157.959 223.177 157.574 224.106 156.889 224.792C156.204 225.477 155.275 225.862 154.307 225.862Z" fill="#E6E6E6"/>
<path d="M139.242 254.212H24.2649C23.2963 254.212 22.3674 253.827 21.6825 253.142C20.9976 252.456 20.6128 251.527 20.6128 250.557C20.6128 249.588 20.9976 248.659 21.6825 247.973C22.3674 247.288 23.2963 246.903 24.2649 246.903H139.242C140.21 246.903 141.139 247.288 141.824 247.973C142.509 248.659 142.894 249.588 142.894 250.557C142.894 251.527 142.509 252.456 141.824 253.142C141.139 253.827 140.21 254.212 139.242 254.212Z" fill="#E6E6E6"/>
<path d="M154.307 266.547H24.2649C23.2963 266.547 22.3674 266.162 21.6825 265.476C20.9976 264.791 20.6128 263.861 20.6128 262.892C20.6128 261.923 20.9976 260.993 21.6825 260.308C22.3674 259.623 23.2963 259.237 24.2649 259.237H154.307C155.275 259.237 156.204 259.623 156.889 260.308C157.574 260.993 157.959 261.923 157.959 262.892C157.959 263.861 157.574 264.791 156.889 265.476C156.204 266.162 155.275 266.547 154.307 266.547Z" fill="#E6E6E6"/>
<path d="M383.253 237.139L220.108 237.139C218.054 237.137 216.085 236.32 214.633 234.866C213.181 233.413 212.364 231.442 212.361 229.387L212.361 7.75277C212.363 5.69735 213.18 3.72679 214.633 2.27339C216.085 0.819985 218.054 0.00244303 220.108 0.000128312L383.253 0C385.307 0.00231174 387.276 0.819842 388.728 2.27324C390.181 3.72664 390.997 5.69721 391 7.75262L391 229.387C390.998 231.442 390.181 233.413 388.728 234.866C387.276 236.319 385.307 237.137 383.253 237.139Z" fill="white"/>
<path d="M383.253 237.139L220.108 237.139C218.054 237.137 216.085 236.32 214.633 234.866C213.181 233.413 212.364 231.442 212.361 229.387L212.361 7.75277C212.363 5.69735 213.18 3.72679 214.633 2.27339C216.085 0.819985 218.054 0.00244303 220.108 0.000128312L383.253 0C385.307 0.00231174 387.276 0.819842 388.728 2.27324C390.181 3.72664 390.997 5.69721 391 7.75262L391 229.387C390.998 231.442 390.181 233.413 388.728 234.866C387.276 236.319 385.307 237.137 383.253 237.139ZM220.108 0.912203C218.296 0.914259 216.558 1.63562 215.277 2.91803C213.995 4.20044 213.275 5.93917 213.273 7.75277L213.273 229.387C213.275 231.2 213.996 232.939 215.277 234.222C216.559 235.504 218.296 236.225 220.108 236.227L383.253 236.227C385.065 236.225 386.803 235.504 388.084 234.221C389.366 232.939 390.087 231.2 390.089 229.387L390.088 7.75263C390.086 5.93903 389.365 4.2003 388.084 2.9179C386.802 1.63549 385.065 0.914128 383.253 0.912074L220.108 0.912203Z" fill="#CCCCCC"/>
<path d="M294.403 57.3788C294.403 63.3761 292.625 69.2387 289.296 74.2253C285.966 79.2118 281.234 83.0984 275.697 85.3934C270.16 87.6885 264.068 88.289 258.19 87.119C252.312 85.949 246.913 83.061 242.675 78.8203C238.438 74.5796 235.552 69.1766 234.383 63.2945C233.213 57.4125 233.813 51.3156 236.107 45.7748C238.4 40.234 242.284 35.4983 247.267 32.1664C252.25 28.8344 258.108 27.056 264.101 27.056C272.137 27.0586 279.843 30.2541 285.525 35.9402C291.207 41.6262 294.4 49.3375 294.403 57.3788Z" fill="white"/>
<path d="M278.106 62.5673C277.775 81.9603 248.949 81.9573 248.621 62.5667C248.952 43.1743 277.778 43.1773 278.106 62.5673Z" fill="#015E98"/>
<path d="M262.778 68.5867L262.763 68.0353C266.56 68.5427 267.378 63.8333 263.548 65.5939L264.423 59.2012L264.968 59.2761L264.225 64.7139C268.257 64.1133 266.765 69.1376 262.778 68.5867Z" fill="#2F2E41"/>
<path d="M270.635 59.745H267.668V60.2964H270.635V59.745Z" fill="#2F2E41"/>
<path d="M261.269 59.745H258.302V60.2964H261.269V59.745Z" fill="#2F2E41"/>
<path d="M268.143 83.1945C268.721 79.2884 264.151 80.0603 261.732 80.0217C261.343 80.0229 260.958 80.1111 260.606 80.28C260.255 80.4488 259.945 80.694 259.7 80.9977C259.455 81.3014 259.281 81.656 259.191 82.0355C259.1 82.4151 259.095 82.8101 259.176 83.1918C257.304 83.7708 255.571 84.7278 254.083 86.0035C260.353 88.1916 267.167 88.2671 273.484 86.2185C271.944 84.8346 270.121 83.8027 268.143 83.1945Z" fill="#2F2E41"/>
<path d="M256.432 55.5894C259.165 54.0093 262.478 55.2215 265.3 55.8843C270.655 57.5315 278.163 55.4689 278.815 49.0858C279.492 43.1495 271.377 39.8409 268.784 45.7493L269.539 45.6505C261.127 33.1404 246.495 33.6149 246.591 50.8141C246.56 51.3454 247.386 51.3436 247.417 50.8138C247.108 40.6785 253.81 33.7504 263.285 40.2637C265.402 41.9215 267.267 43.8764 268.825 46.0679C269.812 47.1746 270.026 42.4087 274.749 43.657C279.947 45.6721 278.251 53.12 273.605 54.7551C267.865 57.6898 261.648 51.9997 256.015 54.875C255.925 54.9323 255.86 55.0226 255.834 55.1269C255.809 55.2311 255.825 55.3412 255.879 55.4339C255.933 55.5265 256.021 55.5945 256.124 55.6236C256.227 55.6526 256.338 55.6403 256.432 55.5894Z" fill="#2F2E41"/>
<path d="M264.102 88.5286C256.277 88.522 248.742 85.5639 242.999 80.2443C237.257 74.9246 233.73 67.6344 233.121 59.8276C232.512 52.0207 234.866 44.271 239.713 38.124C244.561 31.977 251.546 27.8845 259.275 26.6627C267.004 25.4409 274.909 27.1795 281.414 31.5319C287.919 35.8843 292.546 42.5306 294.371 50.1451C296.196 57.7597 295.086 65.783 291.262 72.6149C287.438 79.4467 281.181 84.585 273.739 87.005C270.627 88.0179 267.374 88.5322 264.102 88.5286ZM264.101 27.883C258.271 27.8822 252.571 29.6117 247.722 32.8529C242.874 36.0941 239.095 40.7013 236.863 46.0919C234.631 51.4825 234.047 57.4143 235.185 63.1371C236.322 68.86 239.13 74.1167 243.253 78.2426C247.376 82.3685 252.629 85.1782 258.347 86.3163C264.066 87.4545 269.994 86.8699 275.38 84.6366C280.767 82.4033 285.371 78.6216 288.61 73.7697C291.849 68.9178 293.577 63.2137 293.576 57.3788C293.567 49.5587 290.459 42.0615 284.933 36.5319C279.408 31.0022 271.916 27.8918 264.101 27.883Z" fill="#CCCCCC"/>
<path d="M351.67 57.5628L305.506 57.5629C304.537 57.5629 303.608 57.1778 302.923 56.4924C302.238 55.8071 301.854 54.8774 301.854 53.9082C301.854 52.9389 302.238 52.0093 302.923 51.3239C303.608 50.6385 304.537 50.2534 305.506 50.2534L351.67 50.2534C352.639 50.2534 353.568 50.6384 354.252 51.3238C354.937 52.0092 355.322 52.9388 355.322 53.9081C355.322 54.8774 354.937 55.807 354.252 56.4924C353.568 57.1778 352.639 57.5628 351.67 57.5628Z" fill="#E6E6E6"/>
<path d="M366.735 69.8975L305.506 69.8976C305.026 69.8982 304.55 69.8041 304.107 69.6207C303.663 69.4373 303.26 69.1682 302.92 68.8287C302.581 68.4893 302.311 68.0862 302.128 67.6425C301.944 67.1988 301.849 66.7232 301.849 66.2429C301.849 65.7625 301.944 65.2869 302.128 64.8432C302.311 64.3995 302.581 63.9964 302.92 63.657C303.26 63.3175 303.663 63.0484 304.107 62.865C304.55 62.6816 305.026 62.5875 305.506 62.5881L366.735 62.5881C367.704 62.5881 368.633 62.9731 369.317 63.6585C370.002 64.3439 370.387 65.2735 370.387 66.2428C370.387 67.2121 370.002 68.1417 369.317 68.8271C368.633 69.5125 367.704 69.8975 366.735 69.8975Z" fill="#E6E6E6"/>
<path d="M351.603 117.206L236.626 117.206C235.658 117.205 234.731 116.82 234.047 116.134C233.363 115.449 232.979 114.52 232.979 113.552C232.979 112.583 233.363 111.654 234.047 110.969C234.731 110.284 235.658 109.898 236.626 109.897L351.603 109.897C352.571 109.897 353.5 110.282 354.185 110.967C354.87 111.653 355.255 112.582 355.255 113.552C355.255 114.521 354.87 115.45 354.185 116.136C353.5 116.821 352.571 117.206 351.603 117.206Z" fill="#E6E6E6"/>
<path d="M366.668 129.541L236.626 129.541C236.146 129.542 235.671 129.448 235.227 129.264C234.784 129.081 234.38 128.812 234.041 128.472C233.701 128.133 233.432 127.73 233.248 127.286C233.064 126.842 232.97 126.367 232.97 125.886C232.97 125.406 233.064 124.93 233.248 124.487C233.432 124.043 233.701 123.64 234.041 123.301C234.38 122.961 234.784 122.692 235.227 122.509C235.671 122.325 236.146 122.231 236.626 122.232L366.668 122.232C367.636 122.232 368.565 122.617 369.25 123.302C369.935 123.987 370.32 124.917 370.32 125.886C370.32 126.856 369.935 127.785 369.25 128.471C368.565 129.156 367.636 129.541 366.668 129.541Z" fill="#E6E6E6"/>
<path d="M351.603 157.891L236.626 157.891C235.658 157.89 234.731 157.504 234.047 156.819C233.363 156.134 232.979 155.205 232.979 154.236C232.979 153.268 233.363 152.339 234.047 151.654C234.731 150.968 235.658 150.583 236.626 150.582L351.603 150.582C352.571 150.582 353.5 150.967 354.185 151.652C354.87 152.337 355.255 153.267 355.255 154.236C355.255 155.206 354.87 156.135 354.185 156.821C353.5 157.506 352.571 157.891 351.603 157.891Z" fill="#E6E6E6"/>
<path d="M366.668 170.226L236.626 170.226C236.146 170.226 235.671 170.132 235.227 169.949C234.784 169.766 234.38 169.496 234.041 169.157C233.701 168.818 233.432 168.414 233.248 167.971C233.064 167.527 232.97 167.051 232.97 166.571C232.97 166.091 233.064 165.615 233.248 165.171C233.432 164.728 233.701 164.325 234.041 163.985C234.38 163.646 234.784 163.377 235.227 163.193C235.671 163.01 236.146 162.916 236.626 162.916L366.668 162.916C367.636 162.916 368.565 163.301 369.25 163.987C369.935 164.672 370.32 165.602 370.32 166.571C370.32 167.54 369.935 168.47 369.25 169.155C368.565 169.841 367.636 170.226 366.668 170.226Z" fill="#E6E6E6"/>
<path d="M351.603 198.576L236.626 198.576C235.658 198.576 234.729 198.191 234.044 197.505C233.359 196.82 232.974 195.89 232.974 194.921C232.974 193.952 233.359 193.022 234.044 192.337C234.729 191.651 235.658 191.266 236.626 191.266L351.603 191.266C352.571 191.266 353.5 191.651 354.185 192.337C354.87 193.022 355.255 193.952 355.255 194.921C355.255 195.89 354.87 196.82 354.185 197.505C353.5 198.191 352.571 198.576 351.603 198.576Z" fill="#E6E6E6"/>
<path d="M366.668 210.91L236.626 210.91C235.658 210.91 234.729 210.525 234.044 209.84C233.359 209.155 232.974 208.225 232.974 207.256C232.974 206.286 233.359 205.357 234.044 204.671C234.729 203.986 235.658 203.601 236.626 203.601L366.668 203.601C367.636 203.601 368.565 203.986 369.25 204.671C369.935 205.357 370.32 206.286 370.32 207.256C370.32 208.225 369.935 209.154 369.25 209.84C368.565 210.525 367.636 210.91 366.668 210.91Z" fill="#E6E6E6"/>
<path d="M284.819 332.451H121.675C119.621 332.449 117.652 331.631 116.199 330.178C114.747 328.724 113.93 326.754 113.928 324.698V103.064C113.93 101.009 114.747 99.0385 116.199 97.5851C117.652 96.1317 119.621 95.3141 121.675 95.3118H284.819C286.873 95.3141 288.842 96.1317 290.295 97.5851C291.747 99.0385 292.564 101.009 292.566 103.064V324.698C292.564 326.754 291.747 328.724 290.295 330.178C288.842 331.631 286.873 332.449 284.819 332.451Z" fill="white"/>
<path d="M135.281 152.369C135.276 156.36 136.061 160.313 137.59 163.999C139.119 167.685 141.362 171.032 144.19 173.846C144.427 174.08 144.669 174.315 144.914 174.544C146.391 175.924 148.002 177.153 149.724 178.213C150.055 178.417 150.385 178.612 150.724 178.802C152.465 179.784 154.3 180.591 156.2 181.209C156.528 181.317 156.861 181.419 157.195 181.512C163.236 183.246 169.666 183.065 175.601 180.994C175.717 180.953 175.833 180.911 175.946 180.87C181.155 178.973 185.745 175.683 189.216 171.357C192.687 167.03 194.905 161.834 195.629 156.334C196.353 150.834 195.556 145.24 193.324 140.162C191.092 135.084 187.51 130.715 182.97 127.533C178.429 124.35 173.102 122.475 167.57 122.112C162.038 121.748 156.513 122.91 151.595 125.472C146.677 128.033 142.556 131.895 139.68 136.637C136.803 141.38 135.282 146.821 135.281 152.369Z" fill="white"/>
<path d="M159.184 167.232C159.198 169.581 158.333 171.85 156.758 173.593C155.2 175.304 152.881 176.439 150.54 175.969C148.385 175.537 146.634 173.652 146.852 171.371C146.888 170.877 147.032 170.397 147.272 169.965C147.513 169.532 147.845 169.157 148.246 168.866C148.646 168.574 149.105 168.374 149.591 168.279C150.076 168.183 150.577 168.195 151.057 168.313C153.105 168.845 153.921 171.797 152.215 173.183C151.805 173.516 151.217 172.934 151.63 172.599C151.885 172.366 152.077 172.072 152.189 171.745C152.302 171.419 152.33 171.069 152.272 170.728C152.214 170.388 152.072 170.067 151.858 169.796C151.644 169.524 151.366 169.311 151.048 169.175C150.674 169.055 150.277 169.022 149.887 169.078C149.498 169.135 149.126 169.279 148.801 169.5C148.475 169.721 148.204 170.013 148.009 170.355C147.813 170.696 147.697 171.078 147.67 171.47C147.535 173.393 149.007 174.841 150.812 175.182C152.764 175.55 154.7 174.55 156.023 173.17C157.539 171.567 158.376 169.439 158.357 167.232C158.361 167.124 158.406 167.023 158.483 166.948C158.56 166.874 158.663 166.832 158.77 166.832C158.878 166.832 158.981 166.874 159.058 166.948C159.135 167.023 159.18 167.124 159.184 167.232V167.232Z" fill="#2F2E41"/>
<path d="M167.253 172.489C175.395 172.489 181.996 165.884 181.996 157.736C181.996 149.588 175.395 142.983 167.253 142.983C159.111 142.983 152.51 149.588 152.51 157.736C152.51 165.884 159.111 172.489 167.253 172.489Z" fill="#015E98"/>
<path d="M166.499 164.031L166.483 163.479C167.508 163.451 168.412 163.387 169.091 162.89C169.283 162.741 169.442 162.553 169.555 162.338C169.668 162.122 169.734 161.885 169.747 161.642C169.759 161.493 169.736 161.344 169.681 161.206C169.626 161.067 169.54 160.944 169.429 160.844C169.173 160.688 168.879 160.605 168.579 160.602C168.279 160.6 167.984 160.678 167.725 160.829L167.269 161.038L168.143 154.645L168.689 154.72L167.945 160.158C168.25 160.045 168.578 160.01 168.899 160.056C169.22 160.103 169.525 160.229 169.785 160.423C169.96 160.576 170.097 160.767 170.186 160.982C170.275 161.197 170.313 161.429 170.297 161.661C170.281 161.988 170.194 162.307 170.042 162.596C169.89 162.885 169.676 163.138 169.416 163.335C168.543 163.973 167.41 164.005 166.499 164.031Z" fill="#2F2E41"/>
<path d="M174.355 155.189H171.388V155.74H174.355V155.189Z" fill="#2F2E41"/>
<path d="M164.99 155.189H162.022V155.74H164.99V155.189Z" fill="#2F2E41"/>
<path d="M157.195 181.512C163.236 183.246 169.666 183.065 175.601 180.994C175.717 180.953 175.833 180.911 175.946 180.87C174.547 179.79 172.965 178.972 171.276 178.455C171.396 178.031 171.394 177.582 171.271 177.16C171.104 176.624 170.768 176.156 170.314 175.826C169.86 175.496 169.311 175.322 168.75 175.329H165.158C164.598 175.322 164.051 175.495 163.597 175.825C163.144 176.154 162.809 176.621 162.643 177.157C162.52 177.581 162.518 178.03 162.638 178.455C161.15 178.911 159.744 179.6 158.473 180.498C158.217 180.677 157.969 180.864 157.729 181.06C157.547 181.206 157.368 181.358 157.195 181.512Z" fill="#2F2E41"/>
<path d="M178.802 156.171C178.802 158.657 180.025 160.719 181.615 161.077C181.777 161.114 181.942 161.132 182.108 161.133C183.929 161.133 185.413 158.908 185.413 156.171C185.454 154.76 185.005 153.378 184.141 152.262C183.872 151.936 183.541 151.667 183.168 151.471C182.841 151.3 182.477 151.21 182.108 151.209C181.6 151.215 181.108 151.381 180.7 151.683C179.579 152.477 178.802 154.189 178.802 156.171Z" fill="#3F3D56"/>
<path d="M149.327 156.171C149.327 158.31 150.231 160.135 151.498 160.832C151.845 161.027 152.235 161.13 152.633 161.133C152.721 161.133 152.81 161.127 152.897 161.116C154.594 160.915 155.939 158.776 155.939 156.171C155.939 154.084 155.076 152.295 153.859 151.564C153.491 151.336 153.066 151.213 152.633 151.209C152.264 151.21 151.9 151.3 151.572 151.471C151.198 151.668 150.867 151.938 150.597 152.265C149.736 153.381 149.287 154.761 149.327 156.171Z" fill="#3F3D56"/>
<path d="M151.704 160.356C151.77 160.356 151.834 160.341 151.893 160.311C151.951 160.281 152.002 160.237 152.04 160.184C152.078 160.131 152.103 160.069 152.113 160.004C152.123 159.939 152.117 159.873 152.096 159.811C151.306 157.461 151.069 154.96 151.402 152.503C151.735 150.046 152.629 147.699 154.016 145.645C155.403 143.59 157.245 141.883 159.398 140.656C161.551 139.43 163.958 138.717 166.431 138.572C168.904 138.428 171.378 138.856 173.659 139.824C175.94 140.792 177.967 142.273 179.584 144.152C181.2 146.031 182.361 148.258 182.977 150.659C183.594 153.061 183.648 155.572 183.137 157.998C183.115 158.105 183.136 158.217 183.196 158.309C183.256 158.401 183.349 158.465 183.456 158.487C183.563 158.51 183.675 158.489 183.767 158.429C183.859 158.37 183.923 158.276 183.946 158.169C184.484 155.618 184.426 152.978 183.779 150.453C183.131 147.928 181.91 145.586 180.211 143.61C178.512 141.634 176.38 140.077 173.982 139.06C171.584 138.042 168.983 137.592 166.382 137.744C163.782 137.896 161.251 138.646 158.988 139.936C156.724 141.225 154.788 143.02 153.33 145.181C151.872 147.341 150.932 149.809 150.582 152.392C150.232 154.975 150.482 157.604 151.313 160.075C151.34 160.157 151.393 160.228 151.463 160.279C151.534 160.329 151.618 160.356 151.704 160.356Z" fill="#3F3D56"/>
<path d="M174.659 148.177C174.903 148.577 175.005 149.048 174.947 149.513C174.889 149.978 174.675 150.409 174.34 150.737C173.539 151.631 172.263 151.688 171.155 151.522C169.911 151.335 168.592 150.752 167.333 151.145C166.26 151.48 165.495 152.454 164.38 152.699C163.392 152.916 162.209 152.628 161.863 151.574C161.696 151.067 162.494 150.85 162.66 151.354C162.884 152.036 163.852 152.023 164.406 151.834C165.295 151.531 165.98 150.794 166.854 150.442C167.896 150.12 169.011 150.123 170.05 150.451C171.039 150.674 172.176 151.004 173.161 150.588C173.89 150.28 174.469 149.31 173.945 148.594C173.631 148.165 174.347 147.752 174.659 148.177V148.177Z" fill="#2F2E41"/>
<path d="M165.583 183.519C162.668 183.521 159.767 183.113 156.966 182.307C156.636 182.214 156.29 182.109 155.943 181.995C153.991 181.359 152.107 180.531 150.319 179.523C149.983 179.335 149.646 179.136 149.29 178.917C147.522 177.828 145.867 176.566 144.35 175.148C144.1 174.914 143.852 174.674 143.609 174.435C138.838 169.674 135.739 163.493 134.778 156.819C133.818 150.146 135.047 143.341 138.281 137.426C141.515 131.511 146.58 126.806 152.714 124.018C158.849 121.23 165.722 120.509 172.3 121.964C178.879 123.419 184.809 126.97 189.198 132.085C193.588 137.201 196.2 143.603 196.643 150.331C197.085 157.059 195.335 163.749 191.654 169.396C187.972 175.043 182.559 179.342 176.228 181.647C176.114 181.689 175.997 181.731 175.879 181.773C172.57 182.932 169.089 183.523 165.583 183.519ZM165.583 122.873C159.749 122.874 154.047 124.606 149.198 127.852C144.348 131.097 140.571 135.709 138.343 141.104C136.114 146.499 135.536 152.435 136.681 158.159C137.826 163.883 140.642 169.139 144.773 173.26C145.002 173.486 145.239 173.715 145.478 173.939C146.915 175.282 148.482 176.477 150.157 177.508C150.494 177.716 150.812 177.904 151.128 178.081C152.822 179.036 154.607 179.82 156.455 180.422C156.783 180.53 157.106 180.628 157.418 180.716C163.297 182.404 169.553 182.229 175.328 180.214L175.662 180.093C182.174 177.721 187.643 173.129 191.108 167.123C194.573 161.117 195.813 154.082 194.61 147.252C193.407 140.422 189.838 134.235 184.529 129.777C179.221 125.319 172.513 122.874 165.583 122.873L165.583 122.873Z" fill="#CCCCCC"/>
<path d="M284.819 332.451H121.675C119.621 332.449 117.652 331.631 116.199 330.178C114.747 328.724 113.93 326.754 113.928 324.698V103.064C113.93 101.009 114.747 99.0385 116.199 97.5851C117.652 96.1317 119.621 95.3141 121.675 95.3118H284.819C286.873 95.3141 288.842 96.1317 290.295 97.5851C291.747 99.0385 292.564 101.009 292.566 103.064V324.698C292.564 326.754 291.747 328.724 290.295 330.178C288.842 331.631 286.873 332.449 284.819 332.451ZM121.675 96.2239C119.862 96.2259 118.125 96.9473 116.844 98.2297C115.562 99.5121 114.841 101.251 114.839 103.064V324.698C114.841 326.512 115.562 328.251 116.844 329.533C118.125 330.816 119.862 331.537 121.675 331.539H284.819C286.632 331.537 288.369 330.816 289.651 329.533C290.932 328.251 291.653 326.512 291.655 324.698V103.064C291.653 101.251 290.932 99.5121 289.651 98.2297C288.369 96.9473 286.632 96.2259 284.819 96.2239H121.675Z" fill="#3F3D56"/>
<path d="M253.236 152.875H207.072C206.104 152.875 205.175 152.49 204.49 151.804C203.805 151.119 203.42 150.189 203.42 149.22C203.42 148.251 203.805 147.321 204.49 146.636C205.175 145.95 206.104 145.565 207.072 145.565H253.236C254.205 145.565 255.134 145.95 255.819 146.636C256.504 147.321 256.889 148.251 256.889 149.22C256.889 150.189 256.504 151.119 255.819 151.804C255.134 152.49 254.205 152.875 253.236 152.875Z" fill="#015E98"/>
<path d="M268.301 165.209H207.072C206.104 165.209 205.175 164.824 204.49 164.139C203.805 163.454 203.42 162.524 203.42 161.555C203.42 160.585 203.805 159.656 204.49 158.97C205.175 158.285 206.104 157.9 207.072 157.9H268.301C269.27 157.9 270.199 158.285 270.884 158.97C271.569 159.656 271.954 160.585 271.954 161.555C271.954 162.524 271.569 163.454 270.884 164.139C270.199 164.824 269.27 165.209 268.301 165.209Z" fill="#015E98"/>
<path d="M253.169 212.518H138.193C137.224 212.518 136.295 212.133 135.61 211.448C134.925 210.762 134.541 209.833 134.541 208.863C134.541 207.894 134.925 206.964 135.61 206.279C136.295 205.594 137.224 205.209 138.193 205.209H253.169C254.138 205.209 255.067 205.594 255.752 206.279C256.437 206.964 256.821 207.894 256.821 208.863C256.821 209.833 256.437 210.762 255.752 211.448C255.067 212.133 254.138 212.518 253.169 212.518Z" fill="#CCCCCC"/>
<path d="M268.234 224.853H138.193C137.224 224.853 136.295 224.468 135.61 223.782C134.925 223.097 134.541 222.167 134.541 221.198C134.541 220.229 134.925 219.299 135.61 218.614C136.295 217.928 137.224 217.543 138.193 217.543H268.234C269.203 217.543 270.132 217.928 270.817 218.614C271.502 219.299 271.886 220.229 271.886 221.198C271.886 222.167 271.502 223.097 270.817 223.782C270.132 224.468 269.203 224.853 268.234 224.853Z" fill="#CCCCCC"/>
<path d="M253.169 253.203H138.193C137.225 253.202 136.297 252.816 135.613 252.131C134.929 251.445 134.545 250.517 134.545 249.548C134.545 248.58 134.929 247.651 135.613 246.965C136.297 246.28 137.225 245.894 138.193 245.893H253.169C254.138 245.893 255.067 246.278 255.752 246.964C256.437 247.649 256.821 248.579 256.821 249.548C256.821 250.517 256.437 251.447 255.752 252.132C255.067 252.818 254.138 253.203 253.169 253.203Z" fill="#CCCCCC"/>
<path d="M268.234 265.538H138.193C137.225 265.536 136.297 265.151 135.613 264.465C134.929 263.78 134.545 262.851 134.545 261.883C134.545 260.914 134.929 259.985 135.613 259.3C136.297 258.615 137.225 258.229 138.193 258.228H268.234C269.203 258.228 270.132 258.613 270.817 259.298C271.502 259.984 271.886 260.913 271.886 261.883C271.886 262.852 271.502 263.782 270.817 264.467C270.132 265.152 269.203 265.538 268.234 265.538Z" fill="#CCCCCC"/>
<path d="M253.169 293.887H138.193C137.224 293.887 136.295 293.502 135.61 292.817C134.925 292.132 134.541 291.202 134.541 290.233C134.541 289.263 134.925 288.334 135.61 287.648C136.295 286.963 137.224 286.578 138.193 286.578H253.169C254.138 286.578 255.067 286.963 255.752 287.648C256.437 288.334 256.821 289.263 256.821 290.233C256.821 291.202 256.437 292.132 255.752 292.817C255.067 293.502 254.138 293.887 253.169 293.887Z" fill="#CCCCCC"/>
<path d="M268.234 306.222H138.193C137.224 306.222 136.295 305.837 135.61 305.152C134.925 304.466 134.541 303.537 134.541 302.567C134.541 301.598 134.925 300.669 135.61 299.983C136.295 299.298 137.224 298.913 138.193 298.913H268.234C269.203 298.913 270.132 299.298 270.817 299.983C271.502 300.669 271.886 301.598 271.886 302.567C271.886 303.537 271.502 304.466 270.817 305.152C270.132 305.837 269.203 306.222 268.234 306.222Z" fill="#CCCCCC"/>
<path d="M282.926 281.983C278.198 281.978 273.514 282.905 269.144 284.713C264.774 286.52 260.802 289.171 257.457 292.515C254.111 295.86 251.457 299.831 249.646 304.202C247.835 308.574 246.903 313.259 246.903 317.991C246.903 322.723 247.835 327.409 249.646 331.781C251.457 336.152 254.111 340.123 257.457 343.467C260.802 346.812 264.773 349.463 269.144 351.27C273.514 353.078 278.197 354.005 282.926 354H282.926C292.458 353.983 301.594 350.182 308.329 343.431C315.063 336.68 318.845 327.531 318.845 317.992C318.845 308.453 315.063 299.303 308.329 292.552C301.594 285.801 292.458 282 282.926 281.983Z" fill="#015E98"/>
<path d="M279.512 332.946C278.565 332.948 277.643 332.641 276.885 332.072L276.838 332.037L266.943 324.462C266.018 323.752 265.413 322.703 265.261 321.546C265.109 320.39 265.422 319.22 266.131 318.295C266.84 317.369 267.888 316.763 269.043 316.61C270.199 316.456 271.368 316.769 272.293 317.477L278.703 322.396L293.848 302.623C294.2 302.164 294.638 301.779 295.137 301.49C295.637 301.201 296.189 301.014 296.761 300.938C297.333 300.862 297.915 300.9 298.473 301.05C299.03 301.199 299.553 301.457 300.011 301.808L300.011 301.808L300.013 301.809L299.919 301.94L300.015 301.809C300.939 302.52 301.544 303.568 301.696 304.725C301.849 305.881 301.536 307.051 300.828 307.977L283.013 331.225C282.601 331.76 282.071 332.194 281.465 332.491C280.858 332.789 280.191 332.943 279.516 332.941L279.512 332.946Z" fill="white"/>
</g>
<defs>
<clipPath id="clip0">
<rect width="391" height="354" fill="white"/>
</clipPath>
</defs>
</svg>
