<svg width="193" height="162" viewBox="0 0 193 162" fill="none" xmlns="http://www.w3.org/2000/svg">
<g clip-path="url(#clip0)">
<path d="M181.441 51.5309C181.441 58.2355 179.862 63.7544 177.123 68.4822C176.218 70.0395 175.192 71.5216 174.053 72.9145C163.982 85.3001 145.257 92.0792 128.334 103.06C78.3799 135.472 72.9689 83.5349 75.2251 51.5309C76.1352 38.6172 81.1367 26.7882 89.0826 17.7311C90.7513 15.8262 92.5539 14.0443 94.4765 12.399C103.497 4.6744 115.152 0 128.334 0C150.951 0 170.265 13.7163 177.923 33.0449C180.251 38.9268 181.445 45.2002 181.441 51.5309Z" fill="white"/>
<path d="M139.649 11.6135L89.0825 17.731C90.7513 15.8262 92.5539 14.0442 94.4765 12.3989L139.649 11.6135Z" fill="#D0CDE1"/>
<path d="M177.123 68.4822C176.218 70.0395 175.192 71.5216 174.053 72.9145L130.738 67.6758L177.123 68.4822Z" fill="#D0CDE1"/>
<path d="M179.69 38.3598L106.281 28.7861L177.923 33.0449C178.611 34.7817 179.201 36.5561 179.69 38.3598Z" fill="#D0CDE1"/>
<path d="M80.2047 13.7262C80.2047 13.8578 80.2009 13.9874 80.1896 14.1151C80.1322 14.9068 79.8998 15.6756 79.5096 16.3656C79.1193 17.0556 78.5808 17.6493 77.9335 18.1036C77.2861 18.5579 76.5461 18.8613 75.7674 18.9917C74.9887 19.1221 74.1909 19.0762 73.4321 18.8573C72.6732 18.6385 71.9725 18.2522 71.3809 17.7266C70.7893 17.201 70.3218 16.5494 70.0123 15.8191C69.7028 15.0889 69.5593 14.2985 69.592 13.5054C69.6248 12.7123 69.8331 11.9365 70.2017 11.2346C70.3159 11.0147 70.4464 10.8037 70.5923 10.6036C71.2272 9.71825 72.1168 9.04996 73.1412 8.68887C74.1656 8.32778 75.2755 8.29126 76.3211 8.58425C77.3668 8.87724 78.298 9.48563 78.989 10.3274C79.6801 11.1691 80.0978 12.2037 80.1858 13.2916C80.199 13.4346 80.2047 13.5794 80.2047 13.7262Z" fill="white"/>
<path d="M80.2047 13.7262C80.2047 13.8577 80.2009 13.9874 80.1895 14.1151L72.2418 13.1543L80.1858 13.2916C80.199 13.4345 80.2047 13.5794 80.2047 13.7262Z" fill="#D0CDE1"/>
<path d="M78.3088 16.4161L70.9563 17.3064C70.7476 17.0724 70.5598 16.8204 70.3951 16.5533L78.3088 16.4161Z" fill="#D0CDE1"/>
<path d="M76.2232 10.5063L70.2017 11.2346C70.3158 11.0146 70.4464 10.8037 70.5922 10.6036L76.2232 10.5063Z" fill="#D0CDE1"/>
<path d="M152.958 109.831C152.897 109.947 152.833 110.06 152.764 110.167C152.344 110.839 151.78 111.409 151.114 111.835C150.447 112.26 149.695 112.531 148.911 112.627C148.128 112.723 147.333 112.642 146.584 112.39C145.835 112.138 145.152 111.722 144.584 111.171C144.015 110.62 143.577 109.948 143.299 109.205C143.021 108.462 142.912 107.666 142.979 106.875C143.046 106.084 143.288 105.318 143.687 104.633C144.086 103.948 144.631 103.361 145.284 102.915C145.487 102.774 145.701 102.65 145.923 102.542C146.897 102.059 147.994 101.888 149.067 102.052C150.141 102.216 151.138 102.707 151.925 103.458C152.712 104.21 153.251 105.186 153.469 106.255C153.687 107.325 153.574 108.435 153.144 109.438C153.089 109.57 153.027 109.701 152.958 109.831Z" fill="white"/>
<path d="M152.958 109.831C152.897 109.947 152.833 110.06 152.764 110.167L146.191 105.572L153.144 109.438C153.089 109.57 153.027 109.701 152.958 109.831Z" fill="#D0CDE1"/>
<path d="M150.03 111.313L143.12 108.634C143.045 108.329 142.996 108.018 142.975 107.704L150.03 111.313Z" fill="#D0CDE1"/>
<path d="M150.943 105.11L145.284 102.915C145.487 102.774 145.701 102.65 145.923 102.542L150.943 105.11Z" fill="#D0CDE1"/>
<path d="M190.557 17.8154C190.649 17.9096 190.736 18.0051 190.816 18.1045C191.325 18.7116 191.693 19.4251 191.892 20.193C192.092 20.961 192.119 21.764 191.971 22.5437C191.823 23.3234 191.504 24.0601 191.037 24.7002C190.57 25.3402 189.967 25.8674 189.272 26.2435C188.576 26.6195 187.806 26.8349 187.018 26.874C186.23 26.913 185.442 26.7748 184.714 26.4692C183.985 26.1637 183.333 25.6986 182.806 25.1078C182.279 24.517 181.889 23.8154 181.666 23.0541C181.595 22.8165 181.542 22.5739 181.507 22.3282C181.347 21.2487 181.52 20.1457 182.003 19.168C182.485 18.1904 183.254 17.3851 184.206 16.8607C185.158 16.3363 186.248 16.1182 187.327 16.2356C188.406 16.3531 189.423 16.8005 190.242 17.5176C190.351 17.6106 190.455 17.7103 190.557 17.8154Z" fill="white"/>
<path d="M190.557 17.8154C190.649 17.9096 190.736 18.0051 190.816 18.1045L184.459 22.9963L190.242 17.5176C190.351 17.6106 190.455 17.7104 190.557 17.8154Z" fill="#D0CDE1"/>
<path d="M191.068 21.0721L186.422 26.8712C186.11 26.8502 185.801 26.8017 185.498 26.7261L191.068 21.0721Z" fill="#D0CDE1"/>
<path d="M185.471 18.3055L181.666 23.0541C181.595 22.8166 181.542 22.5739 181.507 22.3282L185.471 18.3055Z" fill="#D0CDE1"/>
<path d="M90.9637 116.184C90.9637 116.184 102.613 116.672 102.613 119.6C102.613 122.529 89.5074 119.6 89.5074 119.6L90.9637 116.184Z" fill="#A0616A"/>
<path d="M73.489 161.086L51.6458 159.622L50.675 147.909L45.8209 158.158L24.4631 155.23C24.9485 136.683 32.715 118.624 33.2004 116.184C33.6858 113.743 34.8459 103.66 34.8459 103.66C36.9671 99.1354 48.0829 98.7108 56.7959 99.1207C60.4074 99.2867 63.611 99.599 65.5866 99.8236C66.8923 99.97 67.6642 100.077 67.6642 100.077C71.1445 103.684 73.3871 108.599 74.7657 114.09C79.7362 133.872 73.489 161.086 73.489 161.086Z" fill="#2F2E41"/>
<path d="M49.2187 47.8536C55.9208 47.8536 61.3539 42.3906 61.3539 35.6518C61.3539 28.9129 55.9208 23.45 49.2187 23.45C42.5167 23.45 37.0836 28.9129 37.0836 35.6518C37.0836 42.3906 42.5167 47.8536 49.2187 47.8536Z" fill="#A0616A"/>
<path d="M40.9668 38.5802C40.9668 38.5802 37.569 53.7104 32.2295 58.1031C26.8901 62.4958 53.102 58.1031 53.102 58.1031C53.102 58.1031 47.2771 48.3417 51.6458 43.949C56.0144 39.5563 40.9668 38.5802 40.9668 38.5802Z" fill="#A0616A"/>
<path d="M65.7225 101.054L57.6696 101.952L35.142 104.47C35.142 104.47 35.0352 104.182 34.8459 103.66C33.2101 99.1744 25.332 77.3478 24.4631 70.793C23.4923 63.4719 33.6858 54.6866 33.6858 54.6866C33.6858 54.6866 43.3939 52.7343 46.3063 52.7343C49.2187 52.7343 60.8685 57.127 60.8685 57.127L65.2129 96.4217L65.5866 99.8236L65.7225 101.054Z" fill="#D0CDE1"/>
<path opacity="0.15" d="M74.7657 114.09L58.4415 104.47C58.4415 104.47 58.1551 103.533 57.6697 101.952C57.427 101.161 57.1309 100.204 56.796 99.1208C54.9126 93.0394 51.7526 83.0046 49.2188 75.6738C45.3356 64.4481 64.2664 95.6847 64.2664 95.6847L65.2129 96.4217L65.5867 99.8236C66.8924 99.97 67.6642 100.077 67.6642 100.077C71.1445 103.684 73.3872 108.599 74.7657 114.09Z" fill="black"/>
<path d="M53.102 58.1031C53.102 58.1031 48.248 64.4481 52.1312 75.6737C56.0145 86.8994 61.3539 104.47 61.3539 104.47L89.5075 121.064L93.3907 116.184L67.1788 95.6847C67.1788 95.6847 66.208 58.5912 61.3539 57.127C56.4999 55.6628 53.102 58.1031 53.102 58.1031Z" fill="#D0CDE1"/>
<path d="M29.0744 100.81C29.0744 100.81 35.8701 114.964 38.7825 113.499C41.695 112.035 31.5015 97.393 31.5015 97.393L29.0744 100.81Z" fill="#A0616A"/>
<path d="M28.3463 62.0078L2.61983 83.483C2.61983 83.483 -7.08828 90.316 10.8717 95.1967C28.8317 100.077 30.2879 103.006 30.2879 103.006C30.2879 103.006 32.2296 96.6609 34.6566 97.6371L13.7842 87.3875L30.7733 77.138L28.3463 62.0078Z" fill="#D0CDE1"/>
<path d="M18.0066 45.6666C19.3568 44.9943 22.3384 43.6374 24.8781 42.0026C24.7 36.6843 25.3514 31.8564 27.2579 29.2973C28.3281 26.854 30.5755 24.4079 32.3355 22.4815C36.6579 17.7507 46.2157 15.1101 47.9108 17.4737C60.7322 17.7283 62.082 27.8335 62.082 27.8335C62.0153 32.0603 57.6463 32.194 53.8191 32.04C54.1619 34.9255 53.2485 37.9238 50.6037 39.2535C45.5461 41.7962 44.0288 45.1017 46.5576 47.3902C49.0864 49.6786 53.6383 55.7811 47.5692 57.3067C41.5 58.8323 40.7413 61.8836 42.5115 63.155C44.2817 64.4263 38.4654 60.8665 38.4654 60.8665C38.4654 60.8665 37.4539 66.969 32.1434 65.4434C31.6675 65.3067 31.1918 64.9563 30.7242 64.4324C29.29 66.017 28.0104 66.9539 27.0461 66.959C21.5232 66.9885 22.1855 60.8377 22.1855 60.8377C22.1855 60.8377 15.6301 62.6889 17.6756 61.9445C19.7211 61.2002 19.8088 58.0562 14.3734 54.9417C8.93815 51.8273 14.9578 47.1848 18.0066 45.6666Z" fill="#2F2E41"/>
<path d="M85.7694 61.61L85.6813 61.5983L85.8961 62.4192C86.0991 63.5646 86.394 64.6915 86.7777 65.7891L93.0773 89.8679C93.2783 90.6364 93.6981 91.3292 94.2852 91.8612C94.8722 92.3932 95.601 92.7413 96.382 92.8628L109.229 94.8612C110.06 94.9904 110.91 94.8571 111.662 94.4797C112.414 94.1023 113.031 93.4994 113.428 92.7543L125.636 69.8253C126.018 69.1901 126.366 68.5354 126.681 67.864L127.095 67.0855L127.031 67.0769C128.325 63.9986 128.894 60.6613 128.695 57.3252C128.496 53.9891 127.533 50.7444 125.882 47.8439C124.23 44.9434 121.935 42.4656 119.175 40.6035C116.415 38.7415 113.264 37.5455 109.969 37.1089C106.674 36.6723 103.323 37.0068 100.177 38.0864C97.0314 39.1659 94.1761 40.9613 91.834 43.3327C89.4918 45.704 87.7259 48.5872 86.6739 51.7575C85.622 54.9278 85.3124 58.2996 85.7694 61.61H85.7694Z" fill="#3F3D56"/>
<path d="M110.017 96.4344C109.791 96.4343 109.565 96.4169 109.342 96.382L95.913 94.2931C95.0601 94.1605 94.2642 93.7804 93.6231 93.1995C92.9821 92.6185 92.5237 91.8619 92.3042 91.0226L85.7195 65.8537C85.3171 64.7015 85.0078 63.5185 84.7947 62.3163L84.6282 61.2152C84.1801 57.6975 84.5514 54.1233 85.7127 50.7747C86.874 47.4261 88.7935 44.3948 91.3197 41.9199C93.8458 39.4451 96.9096 37.5946 100.269 36.5145C103.628 35.4343 107.191 35.1541 110.677 35.696L110.619 36.0728C107.171 35.5386 103.647 35.8219 100.328 36.9002C97.0085 37.9784 93.9857 39.8218 91.5006 42.2832C89.0155 44.7446 87.1369 47.7559 86.0146 51.0768C84.8923 54.3978 84.5574 57.9365 85.0367 61.4107L85.1647 62.2343C85.3762 63.4264 85.6829 64.5995 86.0818 65.742L92.671 90.9256C92.8716 91.6931 93.2908 92.385 93.877 92.9163C94.4632 93.4475 95.191 93.7951 95.971 93.9162L109.399 96.0052C110.229 96.1334 111.077 95.9999 111.828 95.6231C112.579 95.2464 113.195 94.6448 113.592 93.9014L113.927 94.0812C113.547 94.7919 112.983 95.386 112.295 95.8004C111.607 96.2147 110.82 96.4338 110.017 96.4344Z" fill="#D0CDE1"/>
<path d="M113.424 67.083L105.253 89.5153L105.713 89.6848L113.884 67.2526L113.424 67.083Z" fill="#D0CDE1"/>
<path d="M100.083 65.0074L99.5926 65.0291L100.636 88.8954L101.125 88.8737L100.083 65.0074Z" fill="#D0CDE1"/>
<path d="M108.882 107.845L91.6751 105.168C91.5471 105.148 91.4325 105.077 91.3563 104.972C91.28 104.866 91.2483 104.735 91.2682 104.606C91.288 104.477 91.3577 104.362 91.462 104.284C91.5663 104.207 91.6969 104.174 91.825 104.194L109.032 106.87C109.096 106.88 109.157 106.902 109.213 106.935C109.268 106.969 109.317 107.013 109.355 107.066C109.393 107.118 109.421 107.177 109.436 107.24C109.452 107.304 109.455 107.369 109.445 107.433C109.435 107.498 109.412 107.559 109.379 107.615C109.345 107.67 109.301 107.719 109.249 107.757C109.196 107.795 109.137 107.823 109.074 107.838C109.011 107.853 108.946 107.855 108.882 107.845Z" fill="#3F3D56"/>
<path d="M109.323 104.171L92.1163 101.494C92.0523 101.485 91.9909 101.462 91.9355 101.429C91.8801 101.395 91.8319 101.351 91.7935 101.299C91.7552 101.246 91.7275 101.187 91.7121 101.124C91.6967 101.061 91.6939 100.995 91.7037 100.931C91.7136 100.867 91.736 100.805 91.7697 100.75C91.8034 100.694 91.8476 100.646 91.8999 100.608C91.9522 100.569 92.0114 100.542 92.0743 100.527C92.1372 100.512 92.2024 100.509 92.2662 100.519L109.473 103.196C109.537 103.206 109.599 103.228 109.654 103.261C109.709 103.295 109.758 103.339 109.796 103.391C109.834 103.444 109.862 103.503 109.878 103.566C109.893 103.629 109.896 103.695 109.886 103.759C109.876 103.824 109.854 103.885 109.82 103.941C109.786 103.996 109.742 104.044 109.69 104.083C109.637 104.121 109.578 104.148 109.515 104.164C109.452 104.179 109.387 104.181 109.323 104.171Z" fill="#3F3D56"/>
<path d="M109.765 100.497L92.5574 97.8201C92.4295 97.7994 92.3149 97.7287 92.2386 97.6233C92.1624 97.5179 92.1307 97.3865 92.1505 97.2578C92.1703 97.129 92.24 97.0133 92.3444 96.9361C92.4487 96.8588 92.5792 96.8262 92.7074 96.8453L109.914 99.522C110.042 99.5426 110.157 99.6134 110.233 99.7187C110.31 99.8241 110.341 99.9555 110.321 100.084C110.302 100.213 110.232 100.329 110.128 100.406C110.023 100.483 109.893 100.516 109.764 100.497H109.765Z" fill="#3F3D56"/>
<path d="M99.7437 109.983C103.157 110.514 106.218 109.032 106.581 106.672L94.221 104.75C93.858 107.109 96.3306 109.452 99.7437 109.983Z" fill="#3F3D56"/>
<path d="M105.929 62.357C105.195 62.2429 104.587 61.6594 104.254 61.2683C104.145 61.1401 104.039 61.0071 103.932 60.8738C103.544 60.3884 103.178 59.93 102.668 59.6909C101.543 59.1629 100.216 59.9004 99.0682 60.6917L98.7908 60.285C100.053 59.4147 101.525 58.6108 102.876 59.2439C103.489 59.5315 103.909 60.0569 104.315 60.5648C104.418 60.6942 104.521 60.8232 104.627 60.9476C104.973 61.3541 105.664 62.013 106.404 61.861C106.715 61.7696 107.005 61.6153 107.256 61.4073C107.447 61.2642 107.648 61.1362 107.859 61.0247C108.286 60.8187 108.765 60.7443 109.234 60.811C109.703 60.8777 110.142 61.0824 110.496 61.3994C110.622 61.5195 110.741 61.6465 110.854 61.7798C111.074 62.0327 111.283 62.2714 111.554 62.3582C111.955 62.487 112.378 62.2566 112.827 62.0132C113.29 61.762 113.769 61.5022 114.312 61.5663C114.329 61.5684 114.347 61.5708 114.365 61.5735C115.331 61.7238 115.776 62.7981 116.028 63.5999L115.56 63.7484C115.218 62.6585 114.801 62.1165 114.254 62.0561C113.865 62.0101 113.474 62.2224 113.06 62.4471C112.541 62.729 112.004 63.0203 111.405 62.8281C111.004 62.6998 110.74 62.3975 110.485 62.1052C110.384 61.9855 110.277 61.8714 110.165 61.7633C109.883 61.5152 109.536 61.3551 109.165 61.3024C108.794 61.2497 108.416 61.3067 108.077 61.4666C107.889 61.567 107.709 61.6818 107.539 61.8099C107.235 62.0595 106.881 62.2416 106.502 62.3442C106.313 62.3829 106.119 62.3872 105.929 62.357Z" fill="#D0CDE1"/>
</g>
<defs>
<clipPath id="clip0">
<rect width="192.065" height="161.087" fill="white"/>
</clipPath>
</defs>
</svg>
