<svg xmlns="http://www.w3.org/2000/svg" enable-background="new 0 0 64 64" viewBox="0 0 64 64"><g transform="translate(179 382)"><path fill="#134563" d="M-168.2-328l3.7-14.9l22.7-22.7l11.2,11.2l-22.7,22.7L-168.2-328L-168.2-328z M-161.9-341.5     l-2.4,9.6l9.6-2.4l20.2-20.2l-7.2-7.2L-161.9-341.5L-161.9-341.5z"/><path fill="#134563" d="M-155.7-332.6c-1-3.9-4-6.9-7.9-7.9l0.7-2.8c4.9,1.2,8.7,5,9.9,9.9L-155.7-332.6"/><polyline fill="#134563" points="-156 -338.1 -158 -340.2 -138.1 -360.1 -136.1 -358.1 -156 -338.1"/><path fill="#134563" d="M-166.2-330l4.4-1.1c-.4-1.6-1.7-2.9-3.3-3.3L-166.2-330M-129.5-355.5l-11.2-11.2 4.5-4.5.7.1c5.4.7 9.7 5 10.4 10.4l.1.7L-129.5-355.5-129.5-355.5zM-136.6-366.7l7.2 7.2 1.4-1.4c-.8-3.6-3.6-6.4-7.2-7.2L-136.6-366.7-136.6-366.7z"/></g></svg>