<svg width="714" height="387" viewBox="0 0 714 387" fill="none" xmlns="http://www.w3.org/2000/svg">
<g clip-path="url(#clip0)">
<path d="M359.291 387C552.898 387 709.847 376.643 709.847 363.868C709.847 351.092 552.898 340.735 359.291 340.735C165.684 340.735 8.73462 351.092 8.73462 363.868C8.73462 376.643 165.684 387 359.291 387Z" fill="#F2F2F2"/>
<path d="M345.855 110.629C288.74 110.629 247.732 147.154 247.732 232.378C247.732 328.966 288.74 354.533 345.855 354.533C402.97 354.533 446.421 326.531 446.421 232.378C446.421 131.732 402.97 110.629 345.855 110.629ZM346.231 322.473C306.671 322.473 286.004 299.34 286.004 232.441C286.004 173.412 307.517 142.284 347.077 142.284C386.636 142.284 408.149 162.731 408.149 232.441C408.149 297.653 385.79 322.473 346.231 322.473Z" fill="#FCFCFC"/>
<path d="M213.531 287.165H189.917V217.851C189.917 214.17 188.449 210.639 185.838 208.036C183.226 205.433 179.684 203.97 175.99 203.97H170.457C168.628 203.97 166.817 204.329 165.127 205.027C163.438 205.724 161.902 206.747 160.609 208.036C159.316 209.325 158.29 210.855 157.59 212.539C156.89 214.223 156.53 216.028 156.53 217.851V287.165H89.9211C88.5509 287.165 87.2038 286.812 86.0107 286.141C84.8177 285.469 83.819 284.501 83.1117 283.331C82.4045 282.161 82.0125 280.829 81.9739 279.464C81.9354 278.099 82.2515 276.746 82.8917 275.539L153.39 142.54C154.269 140.882 154.802 139.063 154.956 137.194C155.11 135.325 154.883 133.445 154.288 131.665C153.693 129.886 152.743 128.246 151.494 126.843C150.245 125.44 148.725 124.304 147.023 123.503L142.862 121.544C139.63 120.023 135.936 119.799 132.543 120.917C129.15 122.035 126.318 124.411 124.633 127.552L38.6511 287.877C37.1869 290.607 36.4209 293.655 36.4209 296.751C36.4209 299.223 36.9093 301.67 37.8584 303.954C38.8074 306.238 40.1984 308.313 41.9519 310.061C43.7055 311.808 45.7872 313.195 48.0784 314.141C50.3695 315.087 52.8251 315.574 55.305 315.574H156.53V359.403C156.53 361.588 156.962 363.752 157.801 365.771C158.64 367.79 159.869 369.624 161.42 371.169C162.97 372.714 164.81 373.94 166.835 374.776C168.86 375.612 171.031 376.042 173.223 376.042C175.416 376.042 177.586 375.612 179.612 374.776C181.637 373.94 183.477 372.714 185.027 371.169C186.577 369.624 187.807 367.79 188.646 365.771C189.485 363.752 189.917 361.588 189.917 359.403V315.574H213.531C217.311 315.574 220.935 314.077 223.608 311.413C226.28 308.75 227.782 305.137 227.782 301.37C227.782 297.602 226.28 293.99 223.608 291.326C220.935 288.662 217.311 287.165 213.531 287.165Z" fill="#FCC400"/>
<path d="M650.811 287.165H627.196V217.851C627.196 214.17 625.729 210.639 623.117 208.036C620.505 205.433 616.963 203.97 613.27 203.97H607.736C605.907 203.97 604.096 204.329 602.407 205.027C600.717 205.724 599.182 206.747 597.889 208.036C596.595 209.325 595.57 210.855 594.87 212.539C594.17 214.223 593.81 216.028 593.81 217.851V287.165H527.2C525.83 287.165 524.483 286.812 523.29 286.141C522.097 285.469 521.098 284.501 520.391 283.331C519.684 282.161 519.292 280.829 519.253 279.464C519.215 278.099 519.531 276.746 520.171 275.539L590.669 142.54C591.548 140.882 592.081 139.063 592.235 137.194C592.39 135.325 592.163 133.445 591.568 131.665C590.973 129.886 590.022 128.246 588.773 126.843C587.525 125.44 586.004 124.304 584.303 123.503L580.141 121.544C576.909 120.023 573.215 119.799 569.822 120.917C566.429 122.035 563.597 124.411 561.912 127.552L475.93 287.877C474.466 290.607 473.7 293.655 473.7 296.751C473.7 301.743 475.69 306.531 479.231 310.061C482.773 313.59 487.576 315.574 492.584 315.574H593.81V359.403C593.81 363.816 595.568 368.049 598.699 371.169C601.83 374.289 606.075 376.042 610.503 376.042C614.93 376.042 619.176 374.289 622.307 371.169C625.437 368.049 627.196 363.816 627.196 359.403V315.574H650.811C654.59 315.574 658.215 314.077 660.887 311.413C663.56 308.75 665.061 305.137 665.061 301.37C665.061 297.602 663.56 293.99 660.887 291.326C658.215 288.662 654.59 287.165 650.811 287.165Z" fill="#FCC400"/>
<path d="M220.046 279.049H196.431V209.735C196.431 207.912 196.071 206.107 195.371 204.423C194.671 202.738 193.645 201.208 192.352 199.919C191.059 198.63 189.524 197.608 187.834 196.91C186.144 196.212 184.333 195.853 182.505 195.853H176.971C173.278 195.853 169.735 197.316 167.124 199.919C164.512 202.522 163.045 206.053 163.045 209.735V279.049H96.4356C95.0653 279.049 93.7182 278.696 92.5252 278.024C91.3321 277.352 90.3334 276.384 89.6261 275.215C88.9189 274.045 88.5269 272.713 88.4884 271.347C88.4498 269.982 88.7659 268.63 89.4061 267.422L159.904 134.424C160.783 132.765 161.316 130.947 161.47 129.078C161.625 127.209 161.398 125.328 160.803 123.549C160.208 121.77 159.257 120.129 158.008 118.726C156.76 117.323 155.239 116.187 153.538 115.387L149.376 113.428C146.144 111.907 142.45 111.682 139.057 112.8C135.664 113.919 132.832 116.294 131.147 119.436L45.1655 279.76C43.7013 282.491 42.9353 285.538 42.9353 288.634C42.9353 293.626 44.9249 298.414 48.4663 301.944C52.0078 305.474 56.811 307.457 61.8194 307.457H163.045V351.287C163.045 353.472 163.476 355.636 164.315 357.654C165.154 359.673 166.384 361.507 167.934 363.052C169.484 364.597 171.324 365.823 173.35 366.659C175.375 367.495 177.546 367.926 179.738 367.926C184.165 367.926 188.411 366.173 191.542 363.052C194.672 359.932 196.431 355.7 196.431 351.287V307.457H220.046C221.917 307.457 223.77 307.09 225.499 306.376C227.228 305.662 228.799 304.616 230.122 303.297C231.445 301.978 232.495 300.412 233.211 298.689C233.927 296.965 234.296 295.118 234.296 293.253C234.296 291.388 233.927 289.541 233.211 287.817C232.495 286.094 231.445 284.528 230.122 283.209C228.799 281.89 227.228 280.844 225.499 280.13C223.77 279.416 221.917 279.049 220.046 279.049Z" stroke="#3F3D56" stroke-miterlimit="10"/>
<path d="M663.025 279.049H639.411V209.735C639.411 206.053 637.943 202.522 635.332 199.919C632.72 197.316 629.178 195.853 625.484 195.853H619.951C618.122 195.853 616.311 196.212 614.621 196.91C612.932 197.608 611.396 198.63 610.103 199.919C608.81 201.208 607.784 202.738 607.084 204.423C606.384 206.107 606.024 207.912 606.024 209.735V279.049H539.415C538.045 279.049 536.698 278.696 535.505 278.024C534.312 277.352 533.313 276.384 532.606 275.215C531.898 274.045 531.506 272.713 531.468 271.347C531.429 269.982 531.745 268.63 532.386 267.422L602.884 134.424C603.763 132.765 604.296 130.947 604.45 129.078C604.604 127.209 604.377 125.328 603.782 123.549C603.187 121.77 602.237 120.129 600.988 118.726C599.739 117.323 598.218 116.187 596.517 115.387L592.355 113.428C589.124 111.907 585.43 111.682 582.037 112.8C578.644 113.919 575.812 116.294 574.127 119.436L488.145 279.76C486.681 282.491 485.915 285.538 485.915 288.634C485.915 293.626 487.904 298.414 491.446 301.944C494.987 305.474 499.791 307.457 504.799 307.457H606.024V351.287C606.024 355.7 607.783 359.932 610.913 363.052C614.044 366.173 618.29 367.926 622.717 367.926C627.145 367.926 631.391 366.173 634.521 363.052C637.652 359.932 639.41 355.7 639.41 351.287V307.457H663.025C664.897 307.457 666.75 307.09 668.478 306.376C670.207 305.662 671.778 304.616 673.102 303.297C674.425 301.978 675.475 300.412 676.191 298.689C676.907 296.965 677.275 295.118 677.275 293.253C677.275 289.486 675.774 285.873 673.102 283.209C670.429 280.545 666.805 279.049 663.025 279.049Z" stroke="#3F3D56" stroke-miterlimit="10"/>
<path d="M358.884 103.324C301.769 103.324 260.761 139.849 260.761 225.073C260.761 321.661 301.769 347.229 358.884 347.229C415.999 347.229 459.45 319.226 459.45 225.073C459.45 124.427 415.999 103.324 358.884 103.324ZM359.259 315.168C319.7 315.168 299.033 292.035 299.033 225.136C299.033 166.107 320.546 134.979 360.105 134.979C399.665 134.979 421.178 155.426 421.178 225.136C421.178 290.348 398.819 315.168 359.259 315.168V315.168Z" stroke="#3F3D56" stroke-miterlimit="10"/>
<path d="M313.102 20.6351C317.838 20.6351 321.676 16.809 321.676 12.0893C321.676 7.36951 317.838 3.5434 313.102 3.5434C308.367 3.5434 304.529 7.36951 304.529 12.0893C304.529 16.809 308.367 20.6351 313.102 20.6351Z" fill="#2F2E41"/>
<path d="M334.014 62.1138C347.295 62.1138 358.062 48.2091 358.062 31.0569C358.062 13.9046 347.295 0 334.014 0C320.732 0 309.966 13.9046 309.966 31.0569C309.966 48.2091 320.732 62.1138 334.014 62.1138Z" fill="#2F2E41"/>
<path opacity="0.1" d="M334.014 52.7342C321.967 52.7342 311.989 41.294 310.239 26.3671C310.056 27.9238 309.965 29.4897 309.966 31.0569C309.966 48.2091 320.732 62.1138 334.014 62.1138C347.295 62.1138 358.062 48.2092 358.062 31.0569C358.062 29.4897 357.971 27.9238 357.789 26.3671C356.038 41.294 346.061 52.7342 334.014 52.7342Z" fill="black"/>
<path d="M382.949 122.008C382.432 124.124 380.206 125.818 377.739 127.002C372.555 129.49 366.159 130.233 359.956 130.482C358.373 130.578 356.786 130.549 355.208 130.394C352.15 130.1 349.282 128.785 347.067 126.664C346.909 126.561 346.779 126.42 346.69 126.254C346.602 126.088 346.557 125.902 346.56 125.714C346.563 125.526 346.613 125.342 346.707 125.179C346.801 125.015 346.934 124.878 347.096 124.78C350.398 121.164 355.909 118.947 361.461 117.351C365.671 116.14 373.012 113.005 377.603 113.428C382.051 113.838 383.601 119.337 382.949 122.008Z" fill="#3F3D56"/>
<path opacity="0.1" d="M382.949 122.008C382.432 124.124 380.206 125.818 377.739 127.002C372.555 129.49 366.159 130.233 359.956 130.482C358.373 130.578 356.786 130.549 355.208 130.394C352.15 130.1 349.282 128.785 347.067 126.664C346.909 126.561 346.779 126.42 346.69 126.254C346.602 126.088 346.557 125.902 346.56 125.714C346.563 125.526 346.613 125.342 346.707 125.179C346.801 125.015 346.934 124.878 347.096 124.78C350.398 121.164 355.909 118.947 361.461 117.351C365.671 116.14 373.012 113.005 377.603 113.428C382.051 113.838 383.601 119.337 382.949 122.008Z" fill="black"/>
<path d="M317.025 106.198C315.443 109.29 315.156 112.882 316.229 116.184C317.32 119.461 319.362 122.342 322.096 124.462C328.805 129.822 338.038 130.56 346.635 130.485C354.17 130.42 361.694 129.906 369.167 128.946C371.671 128.725 374.132 128.155 376.478 127.254C379.284 126.044 381.75 123.824 382.749 120.944C383.748 118.064 383.039 114.537 380.666 112.615C378.582 110.926 375.707 110.693 373.025 110.533L357.682 109.614C359.198 108.085 361.217 107.22 363.062 106.108C365.512 104.633 367.139 102.157 368.919 99.9247C371.663 96.6561 374.648 93.5967 377.85 90.7721C378.349 93.6274 380.162 95.972 382.294 97.9421C384.427 99.9121 386.885 101.498 389.102 103.374C394.471 107.917 398.337 114.083 403.983 118.278C407.867 117.261 411.498 115.454 414.648 112.971L412.454 109.009C412.271 108.601 411.986 108.247 411.627 107.98C411.006 107.599 410.205 107.796 409.483 107.688C407.556 107.4 406.714 105.181 405.957 103.391C403.881 98.4744 399.904 94.6601 396.509 90.5373C394.002 87.494 391.779 84.2297 389.866 80.7848C388.725 78.7302 387.681 76.591 386.133 74.821C384.585 73.0509 382.415 71.6593 380.06 71.6543C377.978 71.6499 376.058 72.7033 374.269 73.7628C368.818 76.9901 363.573 80.5517 358.565 84.4269C355.944 86.455 353.339 88.5977 350.265 89.8414C348.971 90.3649 347.606 90.7227 346.364 91.3598C344.189 92.4756 342.538 94.3634 340.761 96.0391C334.423 102.016 325.745 105.889 317.025 106.198Z" fill="#3F3D56"/>
<path d="M349.107 63.6562C349.036 65.4832 348.646 67.2839 347.955 68.9776C347.605 69.8223 347.084 70.586 346.424 71.2211C345.765 71.8562 344.981 72.3491 344.122 72.669C342.902 72.9947 341.624 73.0361 340.385 72.7898C339.306 72.6774 338.265 72.3241 337.341 71.756C335.902 70.7701 335.185 69.0109 334.923 67.2892C334.662 65.5696 334.779 63.8125 334.612 62.0804C334.449 60.6814 334.182 59.2964 333.813 57.9367C333.7 57.4844 333.585 57.0342 333.472 56.584C333.361 56.1338 333.253 55.6835 333.152 55.2333C333.06 54.8102 332.974 54.385 332.901 53.9577C332.841 53.5971 332.786 53.2344 332.747 52.8697C332.71 51.7883 332.529 50.7166 332.209 49.6827C331.909 49.0122 331.533 48.3779 331.088 47.7922C330.898 47.5212 330.714 47.2503 330.545 46.9689C330.055 46.2376 329.827 45.3628 329.898 44.4864C329.919 44.3509 329.951 44.2176 329.997 44.0883C330.013 44.0383 330.032 43.9883 330.053 43.9403C330.241 43.8894 330.414 43.7935 330.557 43.6609C330.699 43.5283 330.807 43.363 330.871 43.1795C330.943 42.7851 330.909 42.3789 330.773 42.0018C330.616 41.4749 330.402 40.9668 330.135 40.4865C329.959 40.1697 329.363 39.5986 329.359 39.2359C329.351 38.5063 330.781 37.9185 331.36 37.6309C333.128 36.7484 335.1 36.3499 337.073 36.4762C338.338 36.5616 339.71 36.9493 340.408 38.0061C341.036 38.9586 340.952 40.1926 341.22 41.2994C341.248 41.4603 341.316 41.6115 341.418 41.7392C341.555 41.8631 341.727 41.9418 341.91 41.9643C342.22 42.0257 342.537 42.0384 342.851 42.0018H342.853C342.936 41.9952 343.018 41.9834 343.1 41.9664C343.588 41.8765 344.05 41.6777 344.451 41.3848C344.71 41.316 344.971 41.2598 345.235 41.216C345.245 41.2149 345.256 41.2128 345.266 41.2097C346.314 44.5051 346.45 48.0381 347.307 51.3939C347.732 53.0635 348.34 54.7122 348.426 56.4297C348.432 56.5047 348.434 56.5819 348.436 56.659C348.449 57.2113 348.405 57.7678 348.428 58.3181C348.436 58.5659 348.464 58.8127 348.512 59.056C348.605 59.4473 348.722 59.8329 348.861 60.2107L348.867 60.2295C348.907 60.3504 348.944 60.4734 348.976 60.5963C348.999 60.686 349.02 60.7735 349.036 60.8631L349.039 60.8694C349.193 61.7904 349.217 62.7287 349.107 63.6562V63.6562Z" fill="#FBBEBE"/>
<path d="M334.432 42.104C341.246 42.104 346.77 36.5981 346.77 29.8063C346.77 23.0144 341.246 17.5086 334.432 17.5086C327.618 17.5086 322.094 23.0144 322.094 29.8063C322.094 36.5981 327.618 42.104 334.432 42.104Z" fill="#FBBEBE"/>
<path d="M412.762 96.81C412.404 93.4548 411.208 90.2427 409.282 87.4679C409.602 89.3646 409.922 91.2607 410.244 93.1561C409.844 93.2713 409.42 93.2678 409.022 93.146C408.625 93.0242 408.272 92.7893 408.006 92.4703C407.487 91.8238 407.089 91.0886 406.833 90.3005C405.431 86.8322 403.599 83.5529 401.377 80.5395C393.523 79.8871 385.759 76.6418 378.852 72.8586C371.943 69.0776 365.477 64.5442 358.66 60.6026C357.478 59.8906 356.247 59.2637 354.975 58.7267C352.842 57.8742 350.448 57.4323 348.426 56.4297C348.29 56.363 348.154 56.2922 348.02 56.2192C347.563 55.9716 347.131 55.682 346.728 55.3542C346.51 55.178 346.303 54.9887 346.109 54.7873C345.1 53.6173 344.3 52.2834 343.744 50.8437C342.659 48.4508 342.272 45.564 341.188 43.1712C341.686 42.7074 342.246 42.314 342.851 42.0019H342.853C342.941 41.956 343.029 41.9122 343.119 41.8705C343.547 41.6693 343.993 41.5068 344.451 41.3849C344.71 41.3161 344.971 41.2598 345.235 41.216C345.245 41.215 345.256 41.2129 345.266 41.2098C346.488 41.0114 347.74 41.11 348.915 41.4974C350.634 42.0769 352.083 43.2337 353.528 44.328C355.876 45.9764 358.127 47.7566 360.272 49.6598C361.464 50.7978 362.551 52.0484 363.833 53.0823C364.899 53.9017 366.022 54.6436 367.194 55.3021C374.13 59.4208 381.067 63.5388 388.005 67.6561C390.353 69.0505 392.703 70.4449 395 71.9207C398.488 74.1634 401.85 76.5938 405.211 79.0221C407.191 80.4519 409.17 81.8825 411.149 83.3137C411.799 83.7266 412.369 84.2518 412.833 84.8645C413.243 85.5602 413.497 86.3359 413.579 87.1385C414.076 90.3815 413.796 93.6956 412.762 96.81V96.81Z" fill="#FBBEBE"/>
<path d="M352.167 72.9045C351.334 76.6251 347.562 78.8741 345.59 82.1424C343.139 86.1985 344.139 90.9133 345.059 95.5594C343.378 97.0038 341.696 98.4483 340.013 99.8927C339.085 100.687 338.156 101.485 337.157 102.188C335.699 103.161 334.176 104.033 332.598 104.797C331.109 105.56 329.62 106.324 328.131 107.088C326.747 107.864 325.281 108.483 323.759 108.935C320.825 109.685 317.709 109.16 314.807 108.291C314.464 108.201 314.135 108.067 313.828 107.892C313.647 107.785 313.489 107.642 313.364 107.474C313.077 106.962 312.974 106.369 313.069 105.791C313.364 100.922 314.558 96.1555 315.748 91.424C316.384 88.5854 317.239 85.8001 318.305 83.0928C319.351 80.7731 320.553 78.5266 321.904 76.3687C323.394 73.6537 325.16 71.0981 327.174 68.742C328.154 67.8352 328.979 66.7749 329.616 65.603C330.358 63.9147 330.072 61.9783 330.222 60.1399C330.338 58.7587 330.705 57.4101 331.308 56.1609V56.1588C331.63 55.4859 332.018 54.8464 332.466 54.2495C332.669 54.7206 332.872 55.1909 333.075 55.6606C333.209 55.9691 333.341 56.2769 333.472 56.584C333.643 56.9801 333.814 57.3747 333.982 57.7679C334.469 58.8977 334.956 60.0267 335.442 61.155C335.967 62.5762 336.715 63.9052 337.658 65.0924C338.09 65.7003 338.672 66.1863 339.348 66.5031C340.024 66.8198 340.77 66.9564 341.515 66.8995C342.26 66.8425 342.977 66.5941 343.597 66.1784C344.216 65.7626 344.717 65.1938 345.051 64.5275C345.753 63.2837 346.263 61.9406 346.56 60.5443C346.973 58.8441 347.03 57.0774 346.728 55.3543C346.224 52.036 344.808 48.6468 343.779 45.564C343.36 44.5362 343.118 43.4454 343.062 42.3374C343.064 42.2129 343.077 42.0888 343.1 41.9664C343.106 41.9352 343.112 41.9018 343.118 41.8706C343.547 41.6694 343.993 41.5068 344.45 41.3849C344.71 41.3161 344.971 41.2598 345.235 41.2161C346.14 46.1018 347.047 50.9875 347.955 55.8733C347.976 55.9879 347.999 56.1025 348.02 56.2193C348.15 56.9196 348.281 57.6199 348.428 58.3182C348.56 58.9518 348.702 59.5834 348.861 60.2108L348.867 60.2296C348.921 60.4422 348.978 60.6527 349.036 60.8632L349.038 60.8695C349.199 61.4447 349.379 62.0158 349.582 62.5786C350.812 65.9699 352.955 69.384 352.167 72.9045Z" fill="white"/>
<path d="M402.238 125.19C402.199 125.907 402.338 126.622 402.643 127.273C403.415 128.679 405.268 128.999 406.871 129.13C416.236 129.898 425.659 129.612 434.959 128.277C435.464 128.243 435.954 128.092 436.389 127.835C437.711 126.911 436.896 124.659 435.452 123.938C434.008 123.217 432.295 123.391 430.711 123.078C429.137 122.684 427.638 122.036 426.273 121.16C423.06 119.32 419.893 117.402 416.774 115.405C414.917 114.216 412.725 112.947 410.634 113.652C404.968 115.563 402.201 119.099 402.238 125.19Z" fill="#3F3D56"/>
<path d="M333.2 54.9728V54.9749C333.186 55.0624 333.171 55.1479 333.152 55.2333C333.129 55.3751 333.102 55.5189 333.075 55.6606C332.816 56.9842 332.498 58.3015 332.132 59.6104C331.128 63.2268 329.783 66.7848 328.449 70.2907C324.869 79.6911 321.289 89.0923 317.707 98.4941C316.804 100.862 315.903 103.232 314.876 105.552C314.533 106.325 314.179 107.105 313.828 107.892C312.569 110.713 311.361 113.624 310.959 116.626C310.585 118.601 310.542 120.625 310.832 122.614C311.233 124.582 312.431 126.504 314.307 127.231C315.223 127.588 316.534 128.065 316.283 129.013C316.147 129.534 315.553 129.789 315.02 129.876C314.316 129.988 313.596 129.944 312.91 129.747C312.225 129.551 311.592 129.206 311.055 128.738C310.054 127.852 309.284 126.474 307.952 126.327C307.03 126.226 306.181 126.777 305.336 127.162C301.89 128.732 297.875 127.633 294.255 126.518C294.54 125.057 296.012 124.094 297.473 123.802C298.935 123.508 300.447 123.717 301.938 123.677C302.415 123.703 302.889 123.581 303.295 123.329C303.659 122.996 303.914 122.562 304.027 122.083C304.987 119.246 305.702 116.333 306.162 113.374C306.643 110.283 306.844 107.144 307.53 104.091C308.063 101.708 308.887 99.4008 309.594 97.0622C310.96 92.247 312.083 87.3662 312.956 82.4383C313.398 80.391 313.714 78.3188 313.903 76.2332C314.023 74.5032 313.966 72.7648 314.133 71.0411C314.414 68.7984 314.884 66.5833 315.537 64.4191C316.176 62.0575 316.816 59.6973 317.454 57.3385C318.401 53.8472 319.418 50.2204 321.818 47.5066C322.652 46.5512 323.674 45.7767 324.82 45.231C325.967 44.6853 327.213 44.3801 328.483 44.3342C328.959 44.3337 329.433 44.3847 329.898 44.4864C329.976 44.5051 330.053 44.5239 330.131 44.5447C330.637 44.6768 331.123 44.8774 331.576 45.1409C332.316 44.6719 332.692 44.8366 333.184 45.5598C333.614 46.3253 333.818 47.1972 333.769 48.0736C333.811 50.3865 333.62 52.6977 333.2 54.9728Z" fill="#FBBEBE"/>
<path d="M334.014 57.7366L333.982 57.7679L333.813 57.9367L332.132 59.6105L331.308 56.1609L328.483 44.3342C328.959 44.3336 329.433 44.3847 329.898 44.4864C329.918 44.3509 329.951 44.2176 329.997 44.0883L330.13 44.5447L331.088 47.7922L332.901 53.9577L333.2 54.9728V54.9748L334.014 57.7366Z" fill="white"/>
<path d="M344.683 20.0066C344.681 21.1017 344.463 22.1858 344.041 23.1969C343.619 24.208 343.002 25.1263 342.223 25.8993C341.942 26.1806 341.639 26.4411 341.32 26.6785C339.876 27.7628 338.119 28.3497 336.312 28.3505H326.279C324.063 28.3471 321.938 27.4669 320.371 25.9033C318.805 24.3396 317.925 22.2203 317.925 20.0107C317.925 17.801 318.805 15.6817 320.371 14.118C321.938 12.5544 324.063 11.6742 326.279 11.6708H336.312C338.529 11.6766 340.653 12.5564 342.222 14.1182C343.79 15.68 344.675 17.7968 344.683 20.0066V20.0066Z" fill="#2F2E41"/>
<path d="M354.089 20.6351C358.824 20.6351 362.662 16.809 362.662 12.0893C362.662 7.36951 358.824 3.5434 354.089 3.5434C349.353 3.5434 345.515 7.36951 345.515 12.0893C345.515 16.809 349.353 20.6351 354.089 20.6351Z" fill="#2F2E41"/>
<path opacity="0.1" d="M353.879 3.5434C353.774 3.5434 353.67 3.54756 353.566 3.5513C355.784 3.63167 357.884 4.56638 359.424 6.15878C360.965 7.75117 361.826 9.8771 361.826 12.0893C361.826 14.3014 360.965 16.4273 359.424 18.0197C357.884 19.6121 355.784 20.5468 353.566 20.6272C353.67 20.631 353.774 20.6351 353.879 20.6351C356.153 20.6351 358.334 19.7347 359.942 18.1321C361.55 16.5294 362.453 14.3558 362.453 12.0893C362.453 9.82276 361.55 7.64908 359.942 6.04642C358.334 4.44376 356.153 3.5434 353.879 3.5434V3.5434Z" fill="black"/>
<path opacity="0.1" d="M313.102 3.5434C313.208 3.5434 313.312 3.54756 313.416 3.5513C311.198 3.63167 309.098 4.56638 307.558 6.15878C306.017 7.75117 305.156 9.8771 305.156 12.0893C305.156 14.3014 306.017 16.4273 307.558 18.0197C309.098 19.6121 311.198 20.5468 313.416 20.6272C313.312 20.631 313.208 20.6351 313.102 20.6351C310.83 20.6331 308.651 19.7319 307.045 18.1294C305.439 16.527 304.536 14.3545 304.536 12.0893C304.536 9.82406 305.439 7.65152 307.045 6.04908C308.651 4.44664 310.83 3.54539 313.102 3.5434Z" fill="black"/>
<path opacity="0.1" d="M341.319 26.6785C339.876 27.7628 338.119 28.3497 336.312 28.3505H326.279C324.472 28.3497 322.714 27.7628 321.271 26.6785H341.319Z" fill="black"/>
<path d="M406.104 88.6012C406.104 88.6012 408.266 94.809 410.244 93.1561L408.667 85.0417L406.104 88.6012Z" fill="#FBBEBE"/>
<path d="M669.123 277.914C671.137 278.643 673.292 278.896 675.42 278.654C677.549 278.411 679.591 277.679 681.387 276.516C683.183 275.352 684.683 273.789 685.77 271.948C686.856 270.108 687.499 268.042 687.647 265.912C687.795 263.782 687.445 261.647 686.625 259.674C685.804 257.702 684.535 255.947 682.918 254.547C681.3 253.147 679.379 252.141 677.305 251.608C675.23 251.074 673.06 251.028 670.965 251.473L671.312 258.569L667.943 252.488C664.638 254.036 662.084 256.829 660.843 260.253C660.403 261.453 660.135 262.708 660.048 263.982C659.835 266.972 660.606 269.95 662.244 272.464C663.882 274.978 666.297 276.891 669.123 277.914V277.914Z" fill="#57B894"/>
<path d="M685.789 360.214C684.6 354.179 689.752 348.829 694.841 345.351C699.93 341.874 705.876 338.457 707.612 332.556C710.108 324.074 702.674 316.307 696.889 309.609C692.597 304.638 688.911 299.177 685.908 293.342C684.705 291.002 683.598 288.556 683.282 285.945C682.825 282.186 684.037 278.445 685.258 274.858C689.325 262.912 693.673 251.066 698.302 239.32" stroke="#3F3D56" stroke-miterlimit="10"/>
<path d="M669.693 276.087C671.706 276.816 673.862 277.07 675.99 276.827C678.118 276.584 680.161 275.853 681.957 274.689C683.753 273.525 685.253 271.962 686.339 270.122C687.425 268.281 688.068 266.215 688.217 264.085C688.365 261.955 688.015 259.82 687.194 257.847C686.373 255.875 685.104 254.12 683.487 252.72C681.87 251.32 679.948 250.314 677.874 249.781C675.8 249.247 673.63 249.201 671.535 249.646L671.881 256.742L668.513 250.661C665.207 252.209 662.654 255.002 661.413 258.426C660.972 259.626 660.704 260.881 660.617 262.156C660.405 265.145 661.176 268.123 662.813 270.637C664.451 273.151 666.866 275.064 669.693 276.087V276.087Z" stroke="#3F3D56" stroke-miterlimit="10"/>
<path d="M684.098 236.87C684.889 234.697 686.214 232.757 687.954 231.229C689.694 229.702 691.791 228.635 694.053 228.127L695.192 234.873L697.304 227.788C700.235 227.832 703.077 228.803 705.419 230.561C707.761 232.319 709.481 234.773 710.332 237.57C711.184 240.366 711.121 243.36 710.154 246.119C709.187 248.877 707.365 251.258 704.952 252.918C702.539 254.577 699.659 255.43 696.728 255.351C693.798 255.273 690.968 254.269 688.647 252.483C686.327 250.697 684.635 248.222 683.818 245.416C683 242.609 683.098 239.617 684.098 236.87H684.098Z" fill="#57B894"/>
<path d="M684.858 234.434C685.648 232.261 686.974 230.321 688.713 228.794C690.453 227.266 692.551 226.199 694.813 225.692L695.952 232.437L698.063 225.353C700.994 225.396 703.836 226.367 706.178 228.125C708.52 229.883 710.241 232.337 711.092 235.134C711.943 237.93 711.88 240.924 710.913 243.683C709.946 246.441 708.125 248.822 705.711 250.482C703.298 252.142 700.418 252.994 697.488 252.916C694.557 252.837 691.727 251.833 689.406 250.047C687.086 248.261 685.395 245.786 684.577 242.98C683.759 240.174 683.858 237.181 684.858 234.434H684.858Z" stroke="#3F3D56" stroke-miterlimit="10"/>
<path d="M694.461 309.745C697.654 310.9 701.161 310.843 704.314 309.585C707.467 308.328 710.046 305.958 711.559 302.927C713.072 299.896 713.413 296.416 712.517 293.151C711.621 289.886 709.551 287.063 706.702 285.221L705.079 290.666L703.929 283.84C703.918 283.835 703.906 283.831 703.894 283.827C702.186 283.209 700.373 282.931 698.558 283.011C696.743 283.092 694.961 283.527 693.315 284.294C691.669 285.061 690.191 286.143 688.964 287.48C687.738 288.816 686.788 290.38 686.168 292.082C685.549 293.785 685.272 295.592 685.353 297.402C685.435 299.211 685.873 300.986 686.643 302.627C687.413 304.267 688.5 305.74 689.841 306.961C691.183 308.183 692.753 309.129 694.461 309.745H694.461Z" fill="#57B894"/>
<path d="M695.119 307.278C698.312 308.433 701.819 308.376 704.972 307.118C708.125 305.861 710.704 303.491 712.217 300.46C713.73 297.429 714.071 293.949 713.175 290.684C712.279 287.419 710.209 284.596 707.36 282.754L705.737 288.199L704.587 281.373C704.576 281.368 704.564 281.363 704.552 281.36C702.844 280.741 701.031 280.464 699.216 280.544C697.401 280.624 695.619 281.06 693.973 281.827C692.327 282.593 690.849 283.676 689.622 285.012C688.396 286.349 687.446 287.913 686.826 289.615C686.207 291.318 685.93 293.125 686.011 294.934C686.093 296.744 686.531 298.519 687.301 300.159C688.071 301.8 689.158 303.273 690.499 304.494C691.841 305.716 693.411 306.662 695.119 307.278H695.119Z" stroke="#3F3D56" stroke-miterlimit="10"/>
<path d="M680.062 332.64C680.611 335.753 682.217 338.584 684.611 340.657C687.006 342.73 690.042 343.92 693.212 344.026C696.381 344.133 699.491 343.149 702.02 341.242C704.549 339.334 706.343 336.617 707.1 333.548C707.858 330.478 707.534 327.242 706.183 324.382C704.831 321.523 702.534 319.213 699.677 317.841C696.819 316.469 693.576 316.118 690.49 316.847C687.404 317.576 684.663 319.341 682.727 321.844L688.889 331.089L680.469 326.183C679.817 328.271 679.677 330.486 680.062 332.64V332.64Z" fill="#57B894"/>
<path d="M680.632 330.813C681.181 333.927 682.787 336.757 685.181 338.83C687.575 340.904 690.612 342.093 693.781 342.199C696.951 342.306 700.061 341.323 702.59 339.415C705.118 337.507 706.912 334.79 707.67 331.721C708.428 328.651 708.104 325.415 706.752 322.556C705.4 319.696 703.103 317.386 700.246 316.014C697.389 314.643 694.145 314.292 691.059 315.02C687.973 315.749 685.233 317.514 683.297 320.018L689.459 329.263L681.039 324.356C680.386 326.445 680.247 328.659 680.632 330.813V330.813Z" stroke="#3F3D56" stroke-miterlimit="10"/>
<path d="M5.98601 311.497C7.30869 311.976 8.72497 312.143 10.1232 311.984C11.5215 311.824 12.8635 311.343 14.0435 310.579C15.2235 309.814 16.2092 308.787 16.9229 307.578C17.6367 306.369 18.0589 305.011 18.1564 303.612C18.2539 302.212 18.0239 300.809 17.4847 299.514C16.9455 298.218 16.1116 297.065 15.049 296.145C13.9863 295.225 12.7239 294.564 11.3611 294.214C9.9984 293.863 8.57262 293.833 7.19618 294.125L7.42364 298.788L5.21073 294.792C3.03889 295.809 1.36106 297.644 0.545935 299.894C0.256451 300.682 0.0804655 301.507 0.02323 302.344C-0.11645 304.309 0.390085 306.265 1.46607 307.916C2.54206 309.568 4.12886 310.825 5.98601 311.497V311.497Z" fill="#57B894"/>
<path d="M16.9356 365.57C16.1544 361.605 19.5393 358.09 22.8828 355.805C26.2263 353.52 30.133 351.275 31.2739 347.398C32.9134 341.826 28.0297 336.722 24.2286 332.321C21.4085 329.055 18.9867 325.468 17.0139 321.634C16.1562 320.128 15.572 318.482 15.2882 316.774C14.9885 314.304 15.7847 311.846 16.5867 309.49C19.2587 301.641 22.1155 293.858 25.1571 286.141" stroke="#3F3D56" stroke-miterlimit="10"/>
<path d="M6.36029 310.297C7.68296 310.776 9.09924 310.943 10.4975 310.783C11.8958 310.624 13.2378 310.143 14.4177 309.378C15.5977 308.614 16.5834 307.587 17.2972 306.378C18.0109 305.169 18.4332 303.811 18.5306 302.411C18.6281 301.012 18.3982 299.609 17.859 298.313C17.3197 297.018 16.4859 295.864 15.4232 294.945C14.3606 294.025 13.0981 293.364 11.7354 293.013C10.3727 292.663 8.94689 292.633 7.57046 292.925L7.79792 297.587L5.58501 293.592C3.41316 294.609 1.73533 296.444 0.920203 298.694C0.630722 299.482 0.454739 300.307 0.3975 301.144C0.257812 303.108 0.764343 305.064 1.84033 306.716C2.91632 308.368 4.50313 309.625 6.36029 310.297V310.297Z" stroke="#3F3D56" stroke-miterlimit="10"/>
<path d="M15.8249 284.531C16.344 283.103 17.2152 281.829 18.3582 280.825C19.5013 279.821 20.8794 279.12 22.3656 278.787L23.1138 283.219L24.501 278.564C26.427 278.592 28.2941 279.23 29.8328 280.385C31.3714 281.541 32.502 283.153 33.0612 284.99C33.6204 286.828 33.5793 288.795 32.944 290.607C32.3086 292.42 31.1118 293.984 29.5263 295.074C27.9408 296.165 26.0487 296.725 24.1231 296.673C22.1976 296.622 20.3382 295.962 18.8135 294.789C17.2888 293.615 16.1777 291.989 15.6405 290.146C15.1033 288.302 15.1679 286.335 15.8249 284.531V284.531Z" fill="#57B894"/>
<path d="M16.3237 282.93C16.8428 281.503 17.714 280.228 18.857 279.224C20.0001 278.221 21.3782 277.52 22.8644 277.186L23.6126 281.618L24.9998 276.964C26.9258 276.992 28.7929 277.63 30.3316 278.785C31.8702 279.94 33.0007 281.553 33.5599 283.39C34.1192 285.227 34.0781 287.194 33.4427 289.007C32.8074 290.819 31.6105 292.384 30.025 293.474C28.4396 294.564 26.5474 295.124 24.6219 295.073C22.6964 295.021 20.837 294.362 19.3123 293.188C17.7876 292.015 16.6765 290.389 16.1393 288.545C15.6021 286.701 15.6667 284.735 16.3237 282.93V282.93Z" stroke="#3F3D56" stroke-miterlimit="10"/>
<path d="M22.6333 332.411C24.731 333.17 27.0352 333.132 29.1069 332.306C31.1786 331.48 32.8729 329.923 33.8668 327.931C34.8608 325.94 35.0848 323.654 34.4963 321.508C33.9077 319.363 32.5478 317.509 30.6756 316.298L29.6097 319.876L28.8539 315.391C28.8464 315.388 28.8387 315.385 28.8308 315.382C27.7088 314.976 26.5174 314.793 25.3246 314.846C24.1319 314.898 22.9613 315.185 21.8796 315.688C20.7979 316.192 19.8264 316.903 19.0206 317.781C18.2148 318.659 17.5905 319.687 17.1833 320.806C16.7762 321.924 16.5942 323.112 16.6478 324.301C16.7014 325.49 16.9895 326.656 17.4956 327.734C18.0018 328.812 18.716 329.78 19.5976 330.582C20.4791 331.385 21.5107 332.006 22.6333 332.411V332.411Z" fill="#57B894"/>
<path d="M23.0657 330.79C25.1633 331.549 27.4676 331.511 29.5393 330.685C31.611 329.859 33.3053 328.302 34.2992 326.31C35.2931 324.319 35.5171 322.033 34.9286 319.887C34.3401 317.742 32.9801 315.888 31.108 314.677L30.0421 318.255L29.2862 313.77C29.2788 313.767 29.271 313.764 29.2631 313.761C28.1413 313.356 26.9504 313.174 25.7583 313.227C24.5662 313.281 23.3963 313.567 22.3154 314.071C20.1323 315.089 18.4442 316.929 17.6223 319.187C16.8005 321.445 16.9123 323.936 17.9331 326.112C18.9539 328.288 20.8002 329.971 23.0657 330.79V330.79Z" stroke="#3F3D56" stroke-miterlimit="10"/>
<path d="M13.173 347.453C13.5337 349.499 14.5891 351.359 16.1621 352.721C17.7352 354.083 19.7302 354.864 21.8127 354.934C23.8952 355.004 25.9385 354.358 27.6 353.105C29.2614 351.851 30.4398 350.066 30.9378 348.05C31.4357 346.033 31.2227 343.907 30.3346 342.028C29.4466 340.149 27.9374 338.632 26.0601 337.73C24.1829 336.829 22.0518 336.598 20.0243 337.077C17.9967 337.556 16.196 338.715 14.9242 340.361L18.9729 346.435L13.4408 343.211C13.0119 344.583 12.92 346.038 13.173 347.453V347.453Z" fill="#57B894"/>
<path d="M13.5471 346.253C13.9077 348.299 14.9631 350.158 16.5361 351.521C18.1092 352.883 20.1043 353.664 22.1868 353.734C24.2693 353.804 26.3126 353.158 27.974 351.904C29.6354 350.651 30.8139 348.866 31.3118 346.849C31.8097 344.833 31.5968 342.707 30.7087 340.828C29.8206 338.949 28.3114 337.431 26.4342 336.53C24.5569 335.629 22.4258 335.398 20.3983 335.877C18.3707 336.356 16.57 337.515 15.2982 339.16L19.3469 345.234L13.8148 342.01C13.3859 343.383 13.2941 344.838 13.5471 346.253V346.253Z" stroke="#3F3D56" stroke-miterlimit="10"/>
<path d="M319.618 225.958C325.858 225.958 330.916 219.433 330.916 211.385C330.916 203.337 325.858 196.812 319.618 196.812C313.379 196.812 308.321 203.337 308.321 211.385C308.321 219.433 313.379 225.958 319.618 225.958Z" fill="#2F2E41"/>
<path d="M381.09 226.289C387.33 226.289 392.388 219.765 392.388 211.716C392.388 203.668 387.33 197.143 381.09 197.143C374.851 197.143 369.793 203.668 369.793 211.716C369.793 219.765 374.851 226.289 381.09 226.289Z" fill="#2F2E41"/>
<path d="M372.451 254.773C372.451 261.357 363.227 266.696 351.85 266.696C340.472 266.696 331.248 261.357 331.248 254.773C331.248 249.07 338.166 244.3 347.41 243.134C348.882 242.941 350.365 242.846 351.85 242.85C354.337 242.842 356.818 243.108 359.246 243.644C366.968 245.36 372.451 249.699 372.451 254.773Z" fill="#2F2E41"/>
<path d="M322.277 222.646C328.516 222.646 333.574 216.121 333.574 208.073C333.574 200.025 328.516 193.5 322.277 193.5C316.037 193.5 310.979 200.025 310.979 208.073C310.979 216.121 316.037 222.646 322.277 222.646Z" stroke="#3F3D56" stroke-miterlimit="10"/>
<path d="M383.749 222.977C389.988 222.977 395.046 216.453 395.046 208.404C395.046 200.356 389.988 193.831 383.749 193.831C377.509 193.831 372.451 200.356 372.451 208.404C372.451 216.453 377.509 222.977 383.749 222.977Z" stroke="#3F3D56" stroke-miterlimit="10"/>
<path d="M354.508 263.384C365.886 263.384 375.109 258.046 375.109 251.461C375.109 244.876 365.886 239.537 354.508 239.537C343.13 239.537 333.906 244.876 333.906 251.461C333.906 258.046 343.13 263.384 354.508 263.384Z" stroke="#3F3D56" stroke-miterlimit="10"/>
<path d="M359.492 244.638C359.498 245.471 359.184 246.275 358.615 246.885C358.346 247.177 358.02 247.411 357.656 247.571C357.293 247.732 356.899 247.816 356.502 247.818H349.856C349.037 247.789 348.263 247.439 347.703 246.843C347.142 246.247 346.841 245.454 346.866 244.638C346.862 243.992 347.052 243.36 347.411 242.822C348.881 242.616 350.365 242.514 351.85 242.518C354.34 242.51 356.823 242.795 359.246 243.366C359.41 243.77 359.494 244.202 359.492 244.638V244.638Z" fill="white"/>
<path d="M322.277 207.411C324.112 207.411 325.599 205.928 325.599 204.099C325.599 202.269 324.112 200.786 322.277 200.786C320.442 200.786 318.954 202.269 318.954 204.099C318.954 205.928 320.442 207.411 322.277 207.411Z" fill="white"/>
<path d="M384.081 207.411C385.916 207.411 387.404 205.928 387.404 204.099C387.404 202.269 385.916 200.786 384.081 200.786C382.246 200.786 380.758 202.269 380.758 204.099C380.758 205.928 382.246 207.411 384.081 207.411Z" fill="white"/>
<path opacity="0.3" d="M387.404 238.544C389.239 238.544 390.726 237.061 390.726 235.232C390.726 233.403 389.239 231.92 387.404 231.92C385.568 231.92 384.081 233.403 384.081 235.232C384.081 237.061 385.568 238.544 387.404 238.544Z" fill="white"/>
<path opacity="0.3" d="M306.327 238.544C308.162 238.544 309.65 237.061 309.65 235.232C309.65 233.403 308.162 231.92 306.327 231.92C304.492 231.92 303.004 233.403 303.004 235.232C303.004 237.061 304.492 238.544 306.327 238.544Z" fill="white"/>
</g>
<defs>
<clipPath id="clip0">
<rect width="714" height="387" fill="white"/>
</clipPath>
</defs>
</svg>
